STARTFONT 2.1
COMMENT 
COMMENT This file has been produced by ttf2bdf written by Subhabrata Biswas
COMMENT 
COMMENT For comments, questions, bug reports, send a mail to
COMMENT                                           subhabrata.biswas@usa.net
COMMENT 
FONT -*-Gotham Black-Medium-R-Normal--64-480-96-96-c-33--fontspecific
SIZE 48 96 96
FONTBOUNDINGBOX 85 72 -5 -11
STARTPROPERTIES 15
FOUNDRY "Misc"
FAMILY_NAME "Gotham Black"
WEIGHT_NAME "Medium"
SLANT "R"
SETWIDTH_NAME "Normal"
PIXEL_SIZE 37
POINT_SIZE 480
RESOLUTION_X 96
RESOLUTION_Y 96
SPACING "C"
CHARSET_ENCODING "fontspecific"
FONT_ASCENT 60
FONT_DESCENT 12
DEFAULT_CHAR 31
COPYRIGHT "You may wish to put your copyright here"
ENDPROPERTIES
CHARS 226
STARTCHAR C0030
ENCODING 30
SWIDTH 500 0
DWIDTH 32 0
BBX 1 1 0 -1
BITMAP
00
ENDCHAR
STARTCHAR C0031
ENCODING 31
SWIDTH 500 0
DWIDTH 32 0
BBX 1 1 0 -1
BITMAP
00
ENDCHAR
STARTCHAR C0032- 
ENCODING 32
SWIDTH 281 0
DWIDTH 18 0
BBX 1 1 0 -1
BITMAP
00
ENDCHAR
STARTCHAR C0033-!
ENCODING 33
SWIDTH 328 0
DWIDTH 21 0
BBX 14 45 3 0
BITMAP
FFFC
FFFC
FFFC
FFFC
FFFC
FFFC
7FFC
7FFC
7FFC
7FFC
7FFC
7FF8
3FF8
3FF8
3FF8
3FF8
3FF8
3FF0
3FF0
1FF0
1FF0
1FF0
1FF0
1FF0
1FE0
1FE0
0FE0
0FE0
0FE0
0FE0
0000
0000
0000
0000
0000
7FFC
7FFC
7FFC
7FFC
7FFC
7FFC
7FFC
7FFC
7FFC
7FFC
ENDCHAR
STARTCHAR C0034-"
ENCODING 34
SWIDTH 531 0
DWIDTH 34 0
BBX 31 23 2 22
BITMAP
3FFE3FFE
7FFC3FFE
7FFC3FFE
7FFC3FFC
7FF83FFC
7FF83FF8
7FF83FF8
7FF03FF8
7FF07FF0
7FF07FF0
7FE07FF0
7FE07FE0
7FC07FE0
7FC07FC0
7FC07FC0
7F807FC0
7F807F80
7F807F80
FF007F80
FF007F00
FE007F00
FE007F00
FE007E00
ENDCHAR
STARTCHAR C0035-#
ENCODING 35
SWIDTH 703 0
DWIDTH 45 0
BBX 41 45 2 0
BITMAP
001FF00FFC00
001FF00FF800
001FF00FF800
001FF00FF800
003FF00FF800
003FE00FF800
003FE01FF800
003FE01FF800
003FE01FF000
3FFFFFFFFF80
3FFFFFFFFF80
3FFFFFFFFF80
3FFFFFFFFF80
3FFFFFFFFF80
3FFFFFFFFF80
3FFFFFFFFF80
3FFFFFFFFF80
3FFFFFFFFF80
3FFFFFFFFF80
00FF807FC000
00FF807FC000
01FF007FC000
01FF007FC000
01FF007FC000
01FF00FFC000
01FF00FF8000
FFFFFFFFFE00
FFFFFFFFFE00
FFFFFFFFFE00
FFFFFFFFFE00
FFFFFFFFFE00
FFFFFFFFFE00
FFFFFFFFFE00
FFFFFFFFFE00
FFFFFFFFFE00
FFFFFFFFFE00
07FC03FE0000
07FC03FE0000
0FFC03FE0000
0FFC03FE0000
0FF807FE0000
0FF807FE0000
0FF807FC0000
0FF807FC0000
1FF807FC0000
ENDCHAR
STARTCHAR C0036-$
ENCODING 36
SWIDTH 671 0
DWIDTH 43 0
BBX 39 55 2 -6
BITMAP
00007E0000
00007E0000
00007E0000
00007E0000
000FFFE000
007FFFFC00
01FFFFFF00
03FFFFFFC0
07FFFFFFF0
0FFFFFFFF8
1FFFFFFFF0
3FFFFFFFE0
3FFFFFFFC0
3FFE7FFFC0
7FFC7E3F80
7FF87E0F00
7FF87E0300
7FF87E0000
7FFC7E0000
7FFF7E0000
7FFFFE0000
3FFFFF8000
3FFFFFF000
1FFFFFFE00
1FFFFFFF80
0FFFFFFFC0
07FFFFFFF0
01FFFFFFF8
00FFFFFFF8
001FFFFFFC
0003FFFFFC
00007FFFFE
00007EFFFE
00007E3FFE
06007E1FFE
0F007E1FFE
0FC07E1FFE
1FF07E1FFE
3FFE7E3FFE
3FFFFFFFFC
7FFFFFFFFC
FFFFFFFFF8
FFFFFFFFF8
3FFFFFFFF0
1FFFFFFFE0
07FFFFFF80
00FFFFFF00
001FFFF800
0000FF8000
00007E0000
00007E0000
00007E0000
00007E0000
00007E0000
00007E0000
ENDCHAR
STARTCHAR C0037-%
ENCODING 37
SWIDTH 906 0
DWIDTH 58 0
BBX 53 46 2 -1
BITMAP
00FE000001FC00
03FF800003FF00
0FFFE00007FE00
1FFFF00007FC00
3FFFF8000FF800
3FFFF8001FF000
7FFFFC003FE000
7FC7FC003FE000
FF83FE007FC000
FF01FE00FF8000
FF01FE01FF0000
FF01FE01FF0000
FF01FE03FE0000
FF01FE07FC0000
FF01FE0FF80000
FF83FE0FF00000
7FC7FC1FF00000
7FFFFC3FE00000
3FFFF87FC00000
3FFFF87F800000
1FFFF0FF800000
0FFFE1FF000000
03FF83FE03F800
00FE03FC0FFE00
000007F83FFF80
00000FF87FFFC0
00001FF0FFFFE0
00001FE0FFFFE0
00003FC1FFFFF0
00007FC1FF1FF0
0000FF83FE0FF8
0000FF03FC07F8
0001FE03FC07F8
0003FE03FC07F8
0007FC03FC07F8
0007F803FC07F8
000FF003FC07F8
001FE003FE0FF8
003FE001FF1FF0
007FC001FFFFF0
007F8000FFFFE0
00FF0000FFFFE0
01FF00007FFFC0
03FE00003FFF80
03FC00000FFE00
0400000003F800
ENDCHAR
STARTCHAR C0038-&
ENCODING 38
SWIDTH 703 0
DWIDTH 45 0
BBX 42 47 2 -1
BITMAP
0001FF000000
000FFFC00000
003FFFF00000
007FFFFC0000
00FFFFFC0000
01FFFFFE0000
01FFFFFF0000
03FFFFFF0000
03FFFFFF8000
07FFC7FF8000
07FF83FF8000
07FF01FF8000
07FF01FF8000
07FF01FF8000
07FF01FF8000
07FF83FF0000
03FF87FF0000
03FFCFFF0000
03FFFFFE0000
01FFFFFC0000
00FFFFF80000
01FFFFF04000
03FFFFC07000
0FFFFF00FC00
1FFFFF80FF00
1FFFFFC1FFC0
3FFFFFE3FF80
7FFFFFF3FF00
7FFCFFFFFF00
7FF87FFFFE00
FFF03FFFFE00
FFF01FFFFC00
FFF00FFFF800
FFF007FFF800
FFF003FFF000
FFF803FFF000
FFFE0FFFF800
FFFFFFFFFC00
7FFFFFFFFE00
7FFFFFFFFF00
3FFFFFFFFF80
3FFFFFFFFFC0
1FFFFFFFFE00
0FFFFFE3FC00
03FFFF81F800
00FFFE00E000
001FF0004000
ENDCHAR
STARTCHAR C0039-'
ENCODING 39
SWIDTH 281 0
DWIDTH 18 0
BBX 15 23 2 22
BITMAP
3FFE
7FFE
7FFC
7FFC
7FFC
7FF8
7FF8
7FF0
7FF0
7FF0
7FE0
7FE0
7FE0
7FC0
7FC0
7FC0
7F80
7F80
FF00
FF00
FF00
FE00
FE00
ENDCHAR
STARTCHAR C0040-(
ENCODING 40
SWIDTH 437 0
DWIDTH 28 0
BBX 24 55 3 -9
BITMAP
000020
0000F0
0001F0
0007F8
000FFC
003FFC
007FFE
00FFFF
01FFFE
03FFF8
07FFF0
07FFE0
0FFFC0
1FFF80
1FFF00
3FFF00
3FFE00
3FFC00
7FFC00
7FF800
7FF800
7FF800
FFF800
FFF000
FFF000
FFF000
FFF000
FFF000
FFF000
FFF000
FFF000
FFF000
FFF800
7FF800
7FF800
7FF800
7FFC00
3FFC00
3FFE00
3FFF00
1FFF00
1FFF80
0FFFC0
07FFE0
07FFF0
03FFF8
01FFFE
00FFFF
007FFE
003FFC
000FFC
0007F8
0001F0
0000F0
000020
ENDCHAR
STARTCHAR C0041-)
ENCODING 41
SWIDTH 437 0
DWIDTH 28 0
BBX 24 55 2 -9
BITMAP
040000
0F0000
0F8000
1FE000
3FF000
3FFC00
7FFE00
FFFF00
7FFF80
1FFFC0
0FFFE0
07FFE0
03FFF0
01FFF8
00FFF8
00FFFC
007FFC
003FFC
003FFE
001FFE
001FFE
001FFE
001FFF
000FFF
000FFF
000FFF
000FFF
000FFF
000FFF
000FFF
000FFF
000FFF
001FFF
001FFE
001FFE
001FFE
003FFE
003FFC
007FFC
00FFFC
00FFF8
01FFF8
03FFF0
07FFE0
0FFFE0
1FFFC0
7FFF80
FFFF00
7FFE00
3FFC00
3FF000
1FE000
0F8000
0F0000
040000
ENDCHAR
STARTCHAR C0042-*
ENCODING 42
SWIDTH 421 0
DWIDTH 27 0
BBX 23 23 2 22
BITMAP
00FE00
007E00
007C00
107C10
387C38
3C7C7C
7F7CFC
FFBFFE
FFFFFE
3FFFF8
07FFC0
00FE00
07FFC0
3FFFF8
FFFFFE
FFBFFE
7F7CFC
3C7C7C
387C38
107C10
007C00
007E00
00FE00
ENDCHAR
STARTCHAR C0043-+
ENCODING 43
SWIDTH 640 0
DWIDTH 41 0
BBX 34 33 3 6
BITMAP
001FFE0000
001FFE0000
001FFE0000
001FFE0000
001FFE0000
001FFE0000
001FFE0000
001FFE0000
001FFE0000
001FFE0000
001FFE0000
FFFFFFFFC0
FFFFFFFFC0
FFFFFFFFC0
FFFFFFFFC0
FFFFFFFFC0
FFFFFFFFC0
FFFFFFFFC0
FFFFFFFFC0
FFFFFFFFC0
FFFFFFFFC0
001FFE0000
001FFE0000
001FFE0000
001FFE0000
001FFE0000
001FFE0000
001FFE0000
001FFE0000
001FFE0000
001FFE0000
001FFE0000
001FFE0000
ENDCHAR
STARTCHAR C0044-,
ENCODING 44
SWIDTH 281 0
DWIDTH 18 0
BBX 14 23 2 -11
BITMAP
7FFC
7FFC
7FFC
7FFC
7FFC
7FFC
7FFC
7FFC
7FFC
7FFC
7FFC
7FFC
03FC
03FC
03FC
07F8
0FF8
3FF0
FFF0
FFE0
FFC0
FF00
F800
ENDCHAR
STARTCHAR C0045--
ENCODING 45
SWIDTH 406 0
DWIDTH 26 0
BBX 21 10 3 15
BITMAP
FFFFF8
FFFFF8
FFFFF8
FFFFF8
FFFFF8
FFFFF8
FFFFF8
FFFFF8
FFFFF8
FFFFF8
ENDCHAR
STARTCHAR C0046-.
ENCODING 46
SWIDTH 281 0
DWIDTH 18 0
BBX 13 12 3 0
BITMAP
FFF8
FFF8
FFF8
FFF8
FFF8
FFF8
FFF8
FFF8
FFF8
FFF8
FFF8
FFF8
ENDCHAR
STARTCHAR C0047-/
ENCODING 47
SWIDTH 531 0
DWIDTH 34 0
BBX 38 59 -2 -8
BITMAP
0000000FFC
0000001FF8
0000001FF8
0000003FF0
0000003FF0
0000007FE0
0000007FE0
000000FFC0
000000FFC0
000001FF80
000001FF80
000003FF00
000003FF00
000007FE00
000007FE00
00000FFC00
00000FFC00
00000FF800
00001FF800
00001FF000
00003FF000
00003FE000
00007FE000
00007FC000
0000FFC000
0000FFC000
0001FF8000
0001FF8000
0003FF0000
0003FF0000
0007FE0000
0007FE0000
000FFC0000
000FFC0000
001FF80000
001FF80000
003FF00000
003FF00000
007FE00000
007FE00000
00FFC00000
00FFC00000
01FF800000
01FF800000
01FF000000
03FF000000
03FE000000
07FE000000
07FC000000
0FFC000000
0FFC000000
1FF8000000
1FF8000000
3FF0000000
3FF0000000
7FE0000000
7FE0000000
FFC0000000
FFC0000000
ENDCHAR
STARTCHAR C0048-0
ENCODING 48
SWIDTH 734 0
DWIDTH 47 0
BBX 41 47 3 -1
BITMAP
0000FF800000
0007FFF00000
001FFFFC0000
007FFFFF0000
00FFFFFF8000
01FFFFFFC000
03FFFFFFE000
07FFFFFFF000
0FFFFFFFF800
0FFFFFFFF800
1FFFC1FFFC00
1FFF80FFFC00
3FFF007FFE00
3FFE003FFE00
7FFE003FFF00
7FFC001FFF00
7FFC001FFF00
7FFC001FFF00
FFF8000FFF80
FFF8000FFF80
FFF8000FFF80
FFF8000FFF80
FFF8000FFF80
FFF8000FFF80
FFF8000FFF80
FFF8000FFF80
FFF8000FFF80
FFF8000FFF80
FFF8000FFF80
7FFC001FFF00
7FFC001FFF00
7FFC001FFF00
7FFE003FFF00
3FFE003FFE00
3FFF007FFE00
1FFF80FFFC00
1FFFC1FFFC00
0FFFFFFFF800
0FFFFFFFF800
07FFFFFFF000
03FFFFFFE000
01FFFFFFC000
00FFFFFF8000
007FFFFF0000
001FFFFC0000
0007FFF00000
0000FF800000
ENDCHAR
STARTCHAR C0049-1
ENCODING 49
SWIDTH 421 0
DWIDTH 27 0
BBX 22 45 1 0
BITMAP
001FFC
00FFFC
0FFFFC
7FFFFC
FFFFFC
7FFFFC
7FFFFC
7FFFFC
7FFFFC
3FFFFC
3FFFFC
3FFFFC
3C3FFC
003FFC
003FFC
003FFC
003FFC
003FFC
003FFC
003FFC
003FFC
003FFC
003FFC
003FFC
003FFC
003FFC
003FFC
003FFC
003FFC
003FFC
003FFC
003FFC
003FFC
003FFC
003FFC
003FFC
003FFC
003FFC
003FFC
003FFC
003FFC
003FFC
003FFC
003FFC
003FFC
ENDCHAR
STARTCHAR C0050-2
ENCODING 50
SWIDTH 625 0
DWIDTH 40 0
BBX 36 46 2 0
BITMAP
0003FF0000
003FFFE000
00FFFFF800
03FFFFFE00
07FFFFFF00
0FFFFFFF80
1FFFFFFFC0
3FFFFFFFC0
7FFFFFFFE0
7FFFFFFFE0
1FFE0FFFE0
0FFC03FFF0
07F001FFF0
03E001FFF0
00C001FFF0
008001FFF0
000001FFF0
000003FFF0
000003FFF0
000007FFE0
00000FFFE0
00001FFFE0
00003FFFC0
00007FFF80
0001FFFF80
0003FFFF00
0007FFFE00
000FFFFC00
003FFFF000
007FFFE000
00FFFFC000
01FFFF0000
07FFFE0000
0FFFF80000
1FFFF00000
3FFFE00000
FFFFFFFFF0
FFFFFFFFF0
FFFFFFFFF0
FFFFFFFFF0
FFFFFFFFF0
FFFFFFFFF0
FFFFFFFFF0
FFFFFFFFF0
FFFFFFFFF0
FFFFFFFFF0
ENDCHAR
STARTCHAR C0051-3
ENCODING 51
SWIDTH 625 0
DWIDTH 40 0
BBX 36 46 1 -1
BITMAP
1FFFFFFFE0
1FFFFFFFE0
1FFFFFFFE0
1FFFFFFFE0
1FFFFFFFE0
1FFFFFFFE0
1FFFFFFFE0
1FFFFFFFE0
1FFFFFFFE0
1FFFFFFFE0
00001FFF80
00003FFF00
00007FFE00
0000FFFC00
0001FFF800
0003FFF000
0007FFC000
000FFF8000
001FFFC000
003FFFF800
003FFFFE00
003FFFFF00
003FFFFF80
001FFFFFC0
001FFFFFC0
001FFFFFE0
00001FFFE0
000003FFF0
000001FFF0
000000FFF0
000000FFF0
010000FFF0
038000FFF0
07E001FFF0
0FF001FFF0
1FFE07FFE0
3FFFFFFFE0
7FFFFFFFE0
FFFFFFFFC0
7FFFFFFF80
3FFFFFFF80
1FFFFFFF00
07FFFFFC00
01FFFFF800
007FFFE000
0007FF0000
ENDCHAR
STARTCHAR C0052-4
ENCODING 52
SWIDTH 687 0
DWIDTH 44 0
BBX 42 45 1 0
BITMAP
000001FFF000
000003FFF000
000007FFF000
000007FFF000
00000FFFF000
00001FFFF000
00003FFFF000
00007FFFF000
0000FFFFF000
0000FFFFF000
0001FFFFF000
0003FFFFF000
0007FFFFF000
000FFFFFF000
001FFFFFF000
001FFEFFF000
003FFCFFF000
007FF8FFF000
00FFF0FFF000
01FFF0FFF000
01FFE0FFF000
03FFC0FFF000
07FF80FFF000
0FFF00FFF000
1FFE00FFF000
3FFE00FFF000
3FFC00FFF000
7FFFFFFFFFC0
FFFFFFFFFFC0
7FFFFFFFFFC0
7FFFFFFFFFC0
7FFFFFFFFFC0
7FFFFFFFFFC0
7FFFFFFFFFC0
3FFFFFFFFFC0
3FFFFFFFFFC0
3FFFFFFFFFC0
000000FFF000
000000FFF000
000000FFF000
000000FFF000
000000FFF000
000000FFF000
000000FFF000
000000FFF000
ENDCHAR
STARTCHAR C0053-5
ENCODING 53
SWIDTH 625 0
DWIDTH 40 0
BBX 37 46 1 -1
BITMAP
07FFFFFFE0
07FFFFFFE0
07FFFFFFE0
07FFFFFFE0
07FFFFFFE0
07FFFFFFE0
07FFFFFFE0
07FFFFFFE0
07FFFFFFE0
07FFFFFFE0
07FE000000
07FE000000
0FFE000000
0FFE000000
0FFE000000
0FFE3FC000
0FFFFFF800
0FFFFFFE00
0FFFFFFF00
0FFFFFFF80
0FFFFFFFC0
0FFFFFFFE0
0FFFFFFFE0
07FFFFFFF0
03FFFFFFF0
00FE03FFF8
003801FFF8
000000FFF8
0000007FF8
0000007FF8
0000007FF8
0100007FF8
0380007FF8
07E000FFF8
07F001FFF0
0FFE03FFF0
1FFFFFFFF0
3FFFFFFFE0
7FFFFFFFE0
FFFFFFFFC0
3FFFFFFF80
1FFFFFFF00
07FFFFFE00
01FFFFF800
007FFFE000
0007FF0000
ENDCHAR
STARTCHAR C0054-6
ENCODING 54
SWIDTH 656 0
DWIDTH 42 0
BBX 36 47 3 -1
BITMAP
0001FFC000
000FFFF800
003FFFFE00
007FFFFF80
01FFFFFFE0
03FFFFFFE0
07FFFFFFC0
07FFFFFF80
0FFFFFFF80
1FFFFFFF00
1FFF80FE00
3FFF003E00
3FFE000C00
3FFC000000
7FFC000000
7FF8000000
7FF8000000
7FF07FC000
FFF1FFF000
FFF7FFFC00
FFFFFFFF00
FFFFFFFF80
FFFFFFFF80
FFFFFFFFC0
FFFFFFFFE0
FFFFFFFFE0
FFFE07FFE0
FFFC03FFF0
FFF801FFF0
FFF000FFF0
FFF000FFF0
FFF000FFF0
7FF000FFF0
7FF000FFF0
7FF801FFF0
3FFC03FFE0
3FFE07FFE0
3FFFFFFFE0
1FFFFFFFC0
0FFFFFFFC0
0FFFFFFF80
07FFFFFF00
03FFFFFE00
01FFFFFC00
007FFFF000
001FFFC000
0003FE0000
ENDCHAR
STARTCHAR C0055-7
ENCODING 55
SWIDTH 609 0
DWIDTH 39 0
BBX 34 45 3 0
BITMAP
FFFFFFFFC0
FFFFFFFFC0
FFFFFFFFC0
FFFFFFFFC0
FFFFFFFFC0
FFFFFFFFC0
FFFFFFFFC0
FFFFFFFFC0
FFFFFFFFC0
FFFFFFFFC0
00000FFFC0
00000FFF80
00001FFF80
00001FFF00
00003FFF00
00003FFE00
00007FFC00
0000FFFC00
0000FFF800
0001FFF800
0001FFF000
0003FFF000
0003FFE000
0007FFE000
0007FFC000
000FFF8000
001FFF8000
001FFF0000
003FFF0000
003FFE0000
007FFE0000
007FFC0000
00FFFC0000
01FFF80000
01FFF00000
03FFF00000
03FFE00000
07FFE00000
07FFC00000
0FFFC00000
0FFF800000
1FFF800000
3FFF000000
3FFE000000
7FFE000000
ENDCHAR
STARTCHAR C0056-8
ENCODING 56
SWIDTH 625 0
DWIDTH 40 0
BBX 37 47 2 -1
BITMAP
0007FE0000
007FFFE000
01FFFFF800
03FFFFFC00
07FFFFFE00
0FFFFFFF00
1FFFFFFF80
3FFFFFFFC0
3FFFFFFFC0
7FFFFFFFE0
7FFE0FFFE0
7FFC03FFE0
7FF801FFE0
7FF801FFE0
7FF801FFE0
7FF801FFE0
3FF801FFC0
3FFC03FFC0
1FFF0FFF80
0FFFFFFF00
07FFFFFE00
03FFFFFC00
01FFFFF800
07FFFFFE00
0FFFFFFF00
1FFFFFFFC0
3FFFFFFFE0
7FFE03FFE0
7FFC01FFF0
7FF800FFF0
FFF0007FF8
FFF0007FF8
FFF0007FF8
FFF0007FF8
FFF800FFF8
FFFC01FFF8
FFFE03FFF8
7FFFFFFFF0
7FFFFFFFF0
3FFFFFFFE0
3FFFFFFFE0
1FFFFFFFC0
0FFFFFFF80
03FFFFFF00
01FFFFFC00
007FFFF000
0007FF0000
ENDCHAR
STARTCHAR C0057-9
ENCODING 57
SWIDTH 656 0
DWIDTH 42 0
BBX 36 47 3 -1
BITMAP
0007FE0000
003FFFC000
00FFFFE000
03FFFFF800
07FFFFFC00
0FFFFFFE00
1FFFFFFF00
3FFFFFFF80
3FFFFFFF80
7FFFFFFFC0
7FFE07FFC0
7FFC03FFC0
FFF801FFE0
FFF000FFE0
FFF000FFE0
FFF000FFF0
FFF000FFF0
FFF000FFF0
FFF000FFF0
FFF801FFF0
FFFC03FFF0
7FFE07FFF0
7FFFFFFFF0
7FFFFFFFF0
3FFFFFFFF0
1FFFFFFFF0
0FFFFFFFF0
07FFFFFFF0
03FFFEFFF0
00FFF8FFE0
003FE1FFE0
000001FFE0
000001FFE0
040003FFC0
060007FFC0
07800FFFC0
0FF01FFF80
1FFFFFFF80
3FFFFFFF00
3FFFFFFE00
7FFFFFFE00
FFFFFFFC00
7FFFFFF800
1FFFFFE000
0FFFFFC000
01FFFF0000
003FF80000
ENDCHAR
STARTCHAR C0058-:
ENCODING 58
SWIDTH 296 0
DWIDTH 19 0
BBX 13 35 3 0
BITMAP
FFF8
FFF8
FFF8
FFF8
FFF8
FFF8
FFF8
FFF8
FFF8
FFF8
FFF8
FFF8
0000
0000
0000
0000
0000
0000
0000
0000
0000
0000
0000
FFF8
FFF8
FFF8
FFF8
FFF8
FFF8
FFF8
FFF8
FFF8
FFF8
FFF8
FFF8
ENDCHAR
STARTCHAR C0059-;
ENCODING 59
SWIDTH 296 0
DWIDTH 19 0
BBX 14 46 2 -11
BITMAP
7FFC
7FFC
7FFC
7FFC
7FFC
7FFC
7FFC
7FFC
7FFC
7FFC
7FFC
7FFC
0000
0000
0000
0000
0000
0000
0000
0000
0000
0000
0000
7FFC
7FFC
7FFC
7FFC
7FFC
7FFC
7FFC
7FFC
7FFC
7FFC
7FFC
7FFC
03FC
03FC
03FC
07F8
0FF8
3FF0
FFF0
FFE0
FFC0
FF00
F800
ENDCHAR
STARTCHAR C0060-<
ENCODING 60
SWIDTH 640 0
DWIDTH 41 0
BBX 32 37 4 4
BITMAP
00000001
0000000F
0000003F
000001FF
000007FF
00003FFF
0000FFFF
0007FFFF
001FFFFF
00FFFFFF
03FFFFFF
1FFFFFFF
7FFFFFF8
FFFFFFC0
FFFFFE00
FFFFF000
FFFF8000
FFFC0000
FFE00000
FFFC0000
FFFF8000
FFFFF000
FFFFFE00
FFFFFFC0
7FFFFFF8
1FFFFFFF
03FFFFFF
00FFFFFF
001FFFFF
0007FFFF
0000FFFF
00003FFF
000007FF
000001FF
0000003F
0000000F
00000001
ENDCHAR
STARTCHAR C0061-=
ENCODING 61
SWIDTH 640 0
DWIDTH 41 0
BBX 31 27 5 9
BITMAP
FFFFFFFE
FFFFFFFE
FFFFFFFE
FFFFFFFE
FFFFFFFE
FFFFFFFE
FFFFFFFE
FFFFFFFE
FFFFFFFE
FFFFFFFE
00000000
00000000
00000000
00000000
00000000
00000000
00000000
FFFFFFFE
FFFFFFFE
FFFFFFFE
FFFFFFFE
FFFFFFFE
FFFFFFFE
FFFFFFFE
FFFFFFFE
FFFFFFFE
FFFFFFFE
ENDCHAR
STARTCHAR C0062->
ENCODING 62
SWIDTH 640 0
DWIDTH 41 0
BBX 32 37 5 4
BITMAP
80000000
F0000000
FC000000
FF800000
FFE00000
FFFC0000
FFFF0000
FFFFE000
FFFFF800
FFFFFF00
FFFFFFC0
FFFFFFF8
1FFFFFFE
03FFFFFF
007FFFFF
000FFFFF
0001FFFF
00003FFF
000007FF
00003FFF
0001FFFF
000FFFFF
007FFFFF
03FFFFFF
1FFFFFFE
FFFFFFF8
FFFFFFC0
FFFFFF00
FFFFF800
FFFFE000
FFFF0000
FFFC0000
FFE00000
FF800000
FC000000
F0000000
80000000
ENDCHAR
STARTCHAR C0063-?
ENCODING 63
SWIDTH 546 0
DWIDTH 35 0
BBX 33 46 0 0
BITMAP
001FFC0000
00FFFF8000
03FFFFE000
0FFFFFF800
3FFFFFFC00
7FFFFFFE00
FFFFFFFE00
3FFFFFFF00
3FFFFFFF00
1FFFFFFF80
0FF81FFF80
07E00FFF80
078007FF80
030007FF80
000007FF80
00000FFF80
00000FFF80
00003FFF00
0007FFFF00
001FFFFE00
001FFFFE00
001FFFFC00
001FFFF800
000FFFE000
000FFF8000
000FFC0000
000FF80000
000FF80000
000FF80000
000FF00000
0000000000
0000000000
0000000000
0000000000
0000000000
0000000000
007FFC0000
007FFC0000
007FFC0000
007FFC0000
007FFC0000
007FFC0000
007FFC0000
007FFC0000
007FFC0000
007FFC0000
ENDCHAR
STARTCHAR C0064-@
ENCODING 64
SWIDTH 968 0
DWIDTH 62 0
BBX 56 57 3 -11
BITMAP
000001FFC00000
00001FFFFC0000
00007FFFFF0000
0001FE003FE000
0007E00003F000
001F800000FC00
003E0000003E00
007C0000001F00
00F00000000780
01E000000003C0
03C000000001E0
038000000000F0
07000000000070
0F0003F0000078
0E001FFC380038
1C003FFF3FF01C
1C00FFFFBFF01C
3801FFFFBFF00E
3801FFFFFFF00E
7803FFFFFFE00E
7007FFFFFFE00F
7007FFFFFFE007
700FFF83FFE007
E00FFE01FFE007
E00FFC00FFE007
E01FFC00FFC007
E01FF800FFC007
E01FF800FFC007
E01FF800FFC007
E01FF801FFC007
E01FF801FF800E
E01FFC03FF800E
E01FFE0FFF800E
E00FFFFFFF801C
700FFFFFFF801C
700FFFFFFF8038
7007FFFFFFC078
7007FFFFFFE0F0
3803FFFE7FFFE0
3801FFFC3FFFC0
1C007FF00FFF00
1C001FC003FC00
0E000000000000
0F000000000000
07000000000000
03800000000000
03C00000000000
01E00000000000
00F00000000000
007C0000000000
003E0000001800
000F8000007C00
0007F00001F800
0001FE001FE000
00007FFFFF0000
00001FFFFC0000
000001FFC00000
ENDCHAR
STARTCHAR C0065-A
ENCODING 65
SWIDTH 796 0
DWIDTH 51 0
BBX 51 45 0 0
BITMAP
00001FFF000000
00001FFF000000
00003FFF000000
00003FFF800000
00003FFF800000
00007FFFC00000
00007FFFC00000
0000FFFFE00000
0000FFFFE00000
0001FFFFE00000
0001FFFFF00000
0001FFFFF00000
0003FFFFF80000
0003FFFFF80000
0007FFFFFC0000
0007FFBFFC0000
000FFF3FFC0000
000FFF1FFE0000
000FFF1FFE0000
001FFE1FFF0000
001FFE0FFF0000
003FFC0FFF8000
003FFC07FF8000
007FFC07FF8000
007FF807FFC000
007FF803FFC000
00FFF003FFE000
00FFFFFFFFE000
01FFFFFFFFF000
01FFFFFFFFF000
01FFFFFFFFF000
03FFFFFFFFF800
03FFFFFFFFF800
07FFFFFFFFFC00
07FFFFFFFFFC00
0FFFFFFFFFFC00
0FFFFFFFFFFE00
0FFF00003FFE00
1FFF00001FFF00
1FFF00001FFF00
3FFE00001FFF80
3FFE00000FFF80
7FFC00000FFF80
7FFC000007FFC0
FFFC000007FFE0
ENDCHAR
STARTCHAR C0066-B
ENCODING 66
SWIDTH 718 0
DWIDTH 46 0
BBX 40 45 4 0
BITMAP
FFFFFFF000
FFFFFFFE00
FFFFFFFF80
FFFFFFFFE0
FFFFFFFFF0
FFFFFFFFF0
FFFFFFFFF8
FFFFFFFFF8
FFFFFFFFFC
FFFFFFFFFC
FFF000FFFC
FFF0007FFC
FFF0003FFC
FFF0003FFC
FFF0003FFC
FFF0003FF8
FFF0007FF8
FFF001FFF0
FFFFFFFFF0
FFFFFFFFE0
FFFFFFFF80
FFFFFFFF00
FFFFFFFF80
FFFFFFFFE0
FFFFFFFFF8
FFFFFFFFFC
FFFFFFFFFC
FFF0007FFE
FFF0001FFE
FFF0000FFF
FFF0000FFF
FFF0000FFF
FFF0000FFF
FFF0001FFF
FFF0007FFF
FFFFFFFFFF
FFFFFFFFFE
FFFFFFFFFE
FFFFFFFFFE
FFFFFFFFFC
FFFFFFFFF8
FFFFFFFFF0
FFFFFFFFC0
FFFFFFFF00
FFFFFFF800
ENDCHAR
STARTCHAR C0067-C
ENCODING 67
SWIDTH 734 0
DWIDTH 47 0
BBX 43 47 2 -1
BITMAP
00001FF80000
0001FFFF8000
0007FFFFE000
001FFFFFF800
003FFFFFFC00
00FFFFFFFF00
01FFFFFFFF80
03FFFFFFFFC0
07FFFFFFFFC0
07FFFFFFFFE0
0FFFFFFFFF80
1FFFF01FFF00
1FFFC007FC00
3FFF8001F800
3FFF0000F000
7FFE00004000
7FFE00000000
7FFC00000000
7FFC00000000
FFFC00000000
FFF800000000
FFF800000000
FFF800000000
FFF800000000
FFF800000000
FFF800000000
FFF800000000
FFFC00000000
FFFC00000000
7FFC00000000
7FFE00000000
7FFE00006000
3FFF0000F800
3FFF8001FC00
1FFFC007FE00
1FFFF01FFF80
0FFFFFFFFFC0
0FFFFFFFFFE0
07FFFFFFFFC0
03FFFFFFFF80
01FFFFFFFF00
00FFFFFFFE00
007FFFFFFC00
001FFFFFF800
0007FFFFE000
0001FFFF0000
00003FF80000
ENDCHAR
STARTCHAR C0068-D
ENCODING 68
SWIDTH 765 0
DWIDTH 49 0
BBX 43 45 4 0
BITMAP
FFFFFF000000
FFFFFFF00000
FFFFFFFC0000
FFFFFFFF0000
FFFFFFFFC000
FFFFFFFFE000
FFFFFFFFF800
FFFFFFFFFC00
FFFFFFFFFC00
FFFFFFFFFE00
FFF007FFFF00
FFF000FFFF00
FFF0003FFF80
FFF0001FFF80
FFF0000FFFC0
FFF0000FFFC0
FFF00007FFC0
FFF00007FFE0
FFF00003FFE0
FFF00003FFE0
FFF00003FFE0
FFF00003FFE0
FFF00003FFE0
FFF00003FFE0
FFF00003FFE0
FFF00003FFE0
FFF00003FFE0
FFF00007FFC0
FFF00007FFC0
FFF0000FFFC0
FFF0000FFFC0
FFF0001FFF80
FFF0003FFF80
FFF000FFFF00
FFF007FFFF00
FFFFFFFFFE00
FFFFFFFFFC00
FFFFFFFFF800
FFFFFFFFF000
FFFFFFFFE000
FFFFFFFFC000
FFFFFFFF0000
FFFFFFFC0000
FFFFFFE00000
FFFFFE000000
ENDCHAR
STARTCHAR C0069-E
ENCODING 69
SWIDTH 671 0
DWIDTH 43 0
BBX 36 45 4 0
BITMAP
FFFFFFFFF0
FFFFFFFFF0
FFFFFFFFF0
FFFFFFFFF0
FFFFFFFFF0
FFFFFFFFF0
FFFFFFFFF0
FFFFFFFFF0
FFFFFFFFF0
FFFFFFFFF0
FFF0000000
FFF0000000
FFF0000000
FFF0000000
FFF0000000
FFF0000000
FFF0000000
FFFFFFFFC0
FFFFFFFFC0
FFFFFFFFC0
FFFFFFFFC0
FFFFFFFFC0
FFFFFFFFC0
FFFFFFFFC0
FFFFFFFFC0
FFFFFFFFC0
FFFFFFFFC0
FFF0000000
FFF0000000
FFF0000000
FFF0000000
FFF0000000
FFF0000000
FFF0000000
FFF0000000
FFFFFFFFF0
FFFFFFFFF0
FFFFFFFFF0
FFFFFFFFF0
FFFFFFFFF0
FFFFFFFFF0
FFFFFFFFF0
FFFFFFFFF0
FFFFFFFFF0
FFFFFFFFF0
ENDCHAR
STARTCHAR C0070-F
ENCODING 70
SWIDTH 640 0
DWIDTH 41 0
BBX 35 45 4 0
BITMAP
FFFFFFFFE0
FFFFFFFFE0
FFFFFFFFE0
FFFFFFFFE0
FFFFFFFFE0
FFFFFFFFE0
FFFFFFFFE0
FFFFFFFFE0
FFFFFFFFE0
FFFFFFFFE0
FFF0000000
FFF0000000
FFF0000000
FFF0000000
FFF0000000
FFF0000000
FFF0000000
FFF0000000
FFF0000000
FFFFFFFF80
FFFFFFFF80
FFFFFFFF80
FFFFFFFF80
FFFFFFFF80
FFFFFFFF80
FFFFFFFF80
FFFFFFFF80
FFFFFFFF80
FFFFFFFF80
FFF0000000
FFF0000000
FFF0000000
FFF0000000
FFF0000000
FFF0000000
FFF0000000
FFF0000000
FFF0000000
FFF0000000
FFF0000000
FFF0000000
FFF0000000
FFF0000000
FFF0000000
FFF0000000
ENDCHAR
STARTCHAR C0071-G
ENCODING 71
SWIDTH 765 0
DWIDTH 49 0
BBX 44 47 2 -1
BITMAP
00001FFC0000
0000FFFFC000
0007FFFFF000
001FFFFFFC00
003FFFFFFF00
00FFFFFFFF80
01FFFFFFFFE0
03FFFFFFFFC0
07FFFFFFFF80
07FFFFFFFF00
0FFFFFFFFE00
1FFFF807FC00
1FFFE001FC00
3FFFC0007800
3FFF80003000
7FFF00000000
7FFE00000000
7FFC00000000
7FFC00000000
FFFC01FFFFF0
FFF801FFFFF0
FFF801FFFFF0
FFF801FFFFF0
FFF801FFFFF0
FFF801FFFFF0
FFF801FFFFF0
FFF801FFFFF0
FFF801FFFFF0
FFFC01FFFFF0
7FFC0000FFF0
7FFC0000FFF0
7FFE0000FFF0
3FFF0000FFF0
3FFF8000FFF0
1FFFC000FFF0
1FFFE001FFF0
0FFFF807FFF0
0FFFFFFFFFF0
07FFFFFFFFF0
03FFFFFFFFF0
01FFFFFFFFE0
00FFFFFFFFC0
007FFFFFFF00
001FFFFFFE00
0007FFFFF800
0001FFFFC000
00001FFC0000
ENDCHAR
STARTCHAR C0072-H
ENCODING 72
SWIDTH 765 0
DWIDTH 49 0
BBX 41 45 4 0
BITMAP
FFF00007FF80
FFF00007FF80
FFF00007FF80
FFF00007FF80
FFF00007FF80
FFF00007FF80
FFF00007FF80
FFF00007FF80
FFF00007FF80
FFF00007FF80
FFF00007FF80
FFF00007FF80
FFF00007FF80
FFF00007FF80
FFF00007FF80
FFF00007FF80
FFF00007FF80
FFF00007FF80
FFFFFFFFFF80
FFFFFFFFFF80
FFFFFFFFFF80
FFFFFFFFFF80
FFFFFFFFFF80
FFFFFFFFFF80
FFFFFFFFFF80
FFFFFFFFFF80
FFFFFFFFFF80
FFFFFFFFFF80
FFF00007FF80
FFF00007FF80
FFF00007FF80
FFF00007FF80
FFF00007FF80
FFF00007FF80
FFF00007FF80
FFF00007FF80
FFF00007FF80
FFF00007FF80
FFF00007FF80
FFF00007FF80
FFF00007FF80
FFF00007FF80
FFF00007FF80
FFF00007FF80
FFF00007FF80
ENDCHAR
STARTCHAR C0073-I
ENCODING 73
SWIDTH 328 0
DWIDTH 21 0
BBX 13 45 4 0
BITMAP
FFF8
FFF8
FFF8
FFF8
FFF8
FFF8
FFF8
FFF8
FFF8
FFF8
FFF8
FFF8
FFF8
FFF8
FFF8
FFF8
FFF8
FFF8
FFF8
FFF8
FFF8
FFF8
FFF8
FFF8
FFF8
FFF8
FFF8
FFF8
FFF8
FFF8
FFF8
FFF8
FFF8
FFF8
FFF8
FFF8
FFF8
FFF8
FFF8
FFF8
FFF8
FFF8
FFF8
FFF8
FFF8
ENDCHAR
STARTCHAR C0074-J
ENCODING 74
SWIDTH 562 0
DWIDTH 36 0
BBX 32 46 1 -1
BITMAP
00000FFF
00000FFF
00000FFF
00000FFF
00000FFF
00000FFF
00000FFF
00000FFF
00000FFF
00000FFF
00000FFF
00000FFF
00000FFF
00000FFF
00000FFF
00000FFF
00000FFF
00000FFF
00000FFF
00000FFF
00000FFF
00000FFF
00000FFF
00000FFF
00000FFF
00000FFF
00000FFF
00000FFF
00000FFF
00000FFF
00000FFF
00000FFF
01000FFF
03801FFF
07E01FFE
0FF07FFE
1FFFFFFE
3FFFFFFC
7FFFFFFC
FFFFFFF8
7FFFFFF8
3FFFFFF0
1FFFFFE0
07FFFF80
01FFFE00
003FF000
ENDCHAR
STARTCHAR C0075-K
ENCODING 75
SWIDTH 734 0
DWIDTH 47 0
BBX 43 45 4 0
BITMAP
FFF0001FFFC0
FFF0003FFF80
FFF0007FFF00
FFF000FFFE00
FFF000FFFC00
FFF001FFF800
FFF003FFF000
FFF007FFF000
FFF00FFFE000
FFF01FFFC000
FFF01FFF8000
FFF03FFF0000
FFF07FFE0000
FFF0FFFC0000
FFF1FFF80000
FFF3FFF80000
FFF7FFF00000
FFF7FFE00000
FFFFFFC00000
FFFFFF800000
FFFFFFC00000
FFFFFFE00000
FFFFFFE00000
FFFFFFF00000
FFFFFFF80000
FFFFFFF80000
FFFFFFFC0000
FFFFFFFE0000
FFFF7FFE0000
FFFF7FFF0000
FFFE3FFF8000
FFFC1FFF8000
FFF81FFFC000
FFF00FFFE000
FFF007FFF000
FFF007FFF000
FFF003FFF800
FFF001FFFC00
FFF001FFFC00
FFF000FFFE00
FFF0007FFF00
FFF0007FFF00
FFF0003FFF80
FFF0001FFFC0
FFF0001FFFE0
ENDCHAR
STARTCHAR C0076-L
ENCODING 76
SWIDTH 609 0
DWIDTH 39 0
BBX 34 45 4 0
BITMAP
FFF0000000
FFF0000000
FFF0000000
FFF0000000
FFF0000000
FFF0000000
FFF0000000
FFF0000000
FFF0000000
FFF0000000
FFF0000000
FFF0000000
FFF0000000
FFF0000000
FFF0000000
FFF0000000
FFF0000000
FFF0000000
FFF0000000
FFF0000000
FFF0000000
FFF0000000
FFF0000000
FFF0000000
FFF0000000
FFF0000000
FFF0000000
FFF0000000
FFF0000000
FFF0000000
FFF0000000
FFF0000000
FFF0000000
FFF0000000
FFF0000000
FFFFFFFFC0
FFFFFFFFC0
FFFFFFFFC0
FFFFFFFFC0
FFFFFFFFC0
FFFFFFFFC0
FFFFFFFFC0
FFFFFFFFC0
FFFFFFFFC0
FFFFFFFFC0
ENDCHAR
STARTCHAR C0077-M
ENCODING 77
SWIDTH 875 0
DWIDTH 56 0
BBX 48 45 4 0
BITMAP
FFFC00003FFF
FFFC00003FFF
FFFE00007FFF
FFFE00007FFF
FFFF0000FFFF
FFFF8001FFFF
FFFF8001FFFF
FFFFC003FFFF
FFFFC003FFFF
FFFFE007FFFF
FFFFF00FFFFF
FFFFF00FFFFF
FFFFF81FFFFF
FFFFFC3FFFFF
FFFFFC3FFFFF
FFFFFE7FFFFF
FFFFFE7FFFFF
FFFFFFFFFFFF
FFFFFFFFFFFF
FFFFFFFFFFFF
FFF7FFFFEFFF
FFF3FFFFCFFF
FFF3FFFFCFFF
FFF1FFFF8FFF
FFF0FFFF0FFF
FFF0FFFF0FFF
FFF07FFE0FFF
FFF03FFC0FFF
FFF03FFC0FFF
FFF01FF80FFF
FFF00FF00FFF
FFF00FF00FFF
FFF007E00FFF
FFF003C00FFF
FFF003C00FFF
FFF001800FFF
FFF001000FFF
FFF000000FFF
FFF000000FFF
FFF000000FFF
FFF000000FFF
FFF000000FFF
FFF000000FFF
FFF000000FFF
FFF000000FFF
ENDCHAR
STARTCHAR C0078-N
ENCODING 78
SWIDTH 781 0
DWIDTH 50 0
BBX 42 45 4 0
BITMAP
FFF00003FFC0
FFF80003FFC0
FFFC0003FFC0
FFFC0003FFC0
FFFE0003FFC0
FFFF0003FFC0
FFFF8003FFC0
FFFF8003FFC0
FFFFC003FFC0
FFFFE003FFC0
FFFFF003FFC0
FFFFF003FFC0
FFFFF803FFC0
FFFFFC03FFC0
FFFFFE03FFC0
FFFFFF03FFC0
FFFFFF03FFC0
FFFFFF83FFC0
FFFFFFC3FFC0
FFFFFFE3FFC0
FFFFFFE3FFC0
FFF7FFF3FFC0
FFF3FFFBFFC0
FFF3FFFFFFC0
FFF1FFFFFFC0
FFF0FFFFFFC0
FFF07FFFFFC0
FFF03FFFFFC0
FFF03FFFFFC0
FFF01FFFFFC0
FFF00FFFFFC0
FFF007FFFFC0
FFF007FFFFC0
FFF003FFFFC0
FFF001FFFFC0
FFF000FFFFC0
FFF0007FFFC0
FFF0007FFFC0
FFF0003FFFC0
FFF0001FFFC0
FFF0000FFFC0
FFF0000FFFC0
FFF00007FFC0
FFF00003FFC0
FFF00001FFC0
ENDCHAR
STARTCHAR C0079-O
ENCODING 79
SWIDTH 828 0
DWIDTH 53 0
BBX 48 47 2 -1
BITMAP
00001FF80000
0001FFFF8000
0007FFFFE000
001FFFFFF800
003FFFFFFC00
00FFFFFFFF00
01FFFFFFFF80
03FFFFFFFFC0
07FFFFFFFFE0
07FFFFFFFFE0
0FFFFFFFFFF0
1FFFF81FFFF8
1FFFE007FFF8
3FFF8001FFFC
3FFF0000FFFC
7FFE00007FFE
7FFE00007FFE
7FFC00003FFE
7FFC00003FFF
FFFC00003FFF
FFF800001FFF
FFF800001FFF
FFF800001FFF
FFF800001FFF
FFF800001FFF
FFF800001FFF
FFF800001FFF
FFFC00003FFF
FFFC00003FFE
7FFC00003FFE
7FFE00007FFE
7FFE00007FFE
3FFF0000FFFC
3FFF8001FFFC
1FFFE007FFF8
1FFFF81FFFF8
0FFFFFFFFFF0
07FFFFFFFFE0
07FFFFFFFFE0
03FFFFFFFFC0
01FFFFFFFF80
00FFFFFFFF00
003FFFFFFC00
001FFFFFF800
0007FFFFE000
0001FFFF8000
00001FF80000
ENDCHAR
STARTCHAR C0080-P
ENCODING 80
SWIDTH 671 0
DWIDTH 43 0
BBX 38 45 4 0
BITMAP
FFFFFF8000
FFFFFFF000
FFFFFFFE00
FFFFFFFF00
FFFFFFFF80
FFFFFFFFC0
FFFFFFFFE0
FFFFFFFFF0
FFFFFFFFF0
FFFFFFFFF8
FFF003FFF8
FFF000FFFC
FFF0007FFC
FFF0003FFC
FFF0003FFC
FFF0003FFC
FFF0003FFC
FFF0003FFC
FFF0003FFC
FFF0007FFC
FFF000FFF8
FFF003FFF8
FFFFFFFFF8
FFFFFFFFF0
FFFFFFFFF0
FFFFFFFFE0
FFFFFFFFC0
FFFFFFFF80
FFFFFFFF00
FFFFFFFC00
FFFFFFF000
FFFFFF0000
FFF0000000
FFF0000000
FFF0000000
FFF0000000
FFF0000000
FFF0000000
FFF0000000
FFF0000000
FFF0000000
FFF0000000
FFF0000000
FFF0000000
FFF0000000
ENDCHAR
STARTCHAR C0081-Q
ENCODING 81
SWIDTH 828 0
DWIDTH 53 0
BBX 49 47 2 -1
BITMAP
00001FF8000000
0001FFFF800000
0007FFFFE00000
001FFFFFF80000
003FFFFFFC0000
00FFFFFFFF0000
01FFFFFFFF8000
03FFFFFFFFC000
07FFFFFFFFE000
07FFFFFFFFF000
0FFFFFFFFFF000
1FFFF81FFFF800
1FFFE007FFF800
3FFF8001FFFC00
3FFF0000FFFC00
7FFF00007FFE00
7FFE00007FFE00
7FFC00003FFE00
7FFC00003FFF00
FFFC00003FFF00
FFF800001FFF00
FFF800001FFF00
FFF800081FFF00
FFF8000C1FFF00
FFF8001E1FFF00
FFF8003F1FFF00
FFF8007F9FFF00
FFF800FFDFFF00
FFFC01FFFFFE00
7FFC03FFFFFE00
7FFC00FFFFFE00
7FFE007FFFFE00
3FFF003FFFFC00
3FFF001FFFFC00
1FFF800FFFF800
1FFFE00FFFF000
0FFFF83FFFF000
07FFFFFFFFFC00
07FFFFFFFFFE00
03FFFFFFFFFF00
01FFFFFFFFFF80
00FFFFFFFFFE00
003FFFFFFFFC00
001FFFFFFBFC00
0007FFFFE1F800
0001FFFF807000
00001FF8002000
ENDCHAR
STARTCHAR C0082-R
ENCODING 82
SWIDTH 718 0
DWIDTH 46 0
BBX 41 45 4 0
BITMAP
FFFFFFE00000
FFFFFFFE0000
FFFFFFFF8000
FFFFFFFFC000
FFFFFFFFF000
FFFFFFFFF800
FFFFFFFFF800
FFFFFFFFFC00
FFFFFFFFFE00
FFFFFFFFFE00
FFF001FFFE00
FFF0007FFF00
FFF0003FFF00
FFF0001FFF00
FFF0001FFF00
FFF0001FFF00
FFF0001FFF00
FFF0001FFF00
FFF0001FFF00
FFF0003FFF00
FFF0007FFE00
FFF001FFFE00
FFFFFFFFFC00
FFFFFFFFFC00
FFFFFFFFF800
FFFFFFFFF000
FFFFFFFFE000
FFFFFFFFC000
FFFFFFFF0000
FFFFFFFE0000
FFFFFFFF0000
FFFFFFFF0000
FFF03FFF8000
FFF01FFFC000
FFF01FFFC000
FFF00FFFE000
FFF007FFF000
FFF003FFF000
FFF003FFF800
FFF001FFFC00
FFF000FFFC00
FFF000FFFE00
FFF0007FFF00
FFF0003FFF00
FFF0001FFF80
ENDCHAR
STARTCHAR C0083-S
ENCODING 83
SWIDTH 656 0
DWIDTH 42 0
BBX 40 47 0 -1
BITMAP
0000FFE000
000FFFFE00
003FFFFFC0
007FFFFFF0
01FFFFFFF8
03FFFFFFFE
03FFFFFFFE
07FFFFFFFC
0FFFFFFFF8
0FFFFFFFF8
0FFFC07FF0
1FFF000FE0
1FFF0003C0
1FFF0000C0
1FFF000000
1FFF800000
1FFFF00000
1FFFFE0000
1FFFFFE000
0FFFFFFC00
0FFFFFFF80
07FFFFFFC0
07FFFFFFF0
03FFFFFFF8
01FFFFFFFC
007FFFFFFC
001FFFFFFE
0007FFFFFE
0000FFFFFF
00000FFFFF
000000FFFF
0000003FFF
0100001FFF
03C0001FFF
07F0001FFF
0FFC003FFF
1FFF807FFE
3FFFFFFFFE
3FFFFFFFFE
7FFFFFFFFC
FFFFFFFFF8
1FFFFFFFF0
0FFFFFFFE0
03FFFFFFC0
00FFFFFF80
001FFFFC00
0001FFE000
ENDCHAR
STARTCHAR C0084-T
ENCODING 84
SWIDTH 656 0
DWIDTH 42 0
BBX 38 45 2 0
BITMAP
FFFFFFFFFC
FFFFFFFFFC
FFFFFFFFFC
FFFFFFFFFC
FFFFFFFFFC
FFFFFFFFFC
FFFFFFFFFC
FFFFFFFFFC
FFFFFFFFFC
FFFFFFFFFC
0007FF8000
0007FF8000
0007FF8000
0007FF8000
0007FF8000
0007FF8000
0007FF8000
0007FF8000
0007FF8000
0007FF8000
0007FF8000
0007FF8000
0007FF8000
0007FF8000
0007FF8000
0007FF8000
0007FF8000
0007FF8000
0007FF8000
0007FF8000
0007FF8000
0007FF8000
0007FF8000
0007FF8000
0007FF8000
0007FF8000
0007FF8000
0007FF8000
0007FF8000
0007FF8000
0007FF8000
0007FF8000
0007FF8000
0007FF8000
0007FF8000
ENDCHAR
STARTCHAR C0085-U
ENCODING 85
SWIDTH 765 0
DWIDTH 49 0
BBX 43 46 3 -1
BITMAP
FFF80003FFE0
FFF80003FFE0
FFF80003FFE0
FFF80003FFE0
FFF80003FFE0
FFF80003FFE0
FFF80003FFE0
FFF80003FFE0
FFF80003FFE0
FFF80003FFE0
FFF80003FFE0
FFF80003FFE0
FFF80003FFE0
FFF80003FFE0
FFF80003FFE0
FFF80003FFE0
FFF80003FFE0
FFF80003FFE0
FFF80003FFE0
FFF80003FFE0
FFF80003FFE0
FFF80003FFE0
FFF80003FFE0
FFF80003FFE0
FFF80003FFE0
FFF80003FFE0
FFF80003FFE0
FFF80003FFE0
FFF80003FFE0
FFFC0003FFE0
FFFC0007FFE0
7FFC0007FFC0
7FFE000FFFC0
7FFF001FFFC0
7FFFC07FFF80
3FFFFFFFFF80
3FFFFFFFFF80
1FFFFFFFFF00
0FFFFFFFFE00
0FFFFFFFFE00
07FFFFFFFC00
03FFFFFFF800
00FFFFFFE000
007FFFFF8000
000FFFFE0000
0001FFE00000
ENDCHAR
STARTCHAR C0086-V
ENCODING 86
SWIDTH 765 0
DWIDTH 49 0
BBX 48 45 0 0
BITMAP
FFFC00003FFF
7FFE00003FFF
7FFE00003FFE
3FFF00007FFE
3FFF00007FFC
1FFF00007FFC
1FFF8000FFFC
1FFF8000FFF8
0FFF8000FFF8
0FFFC001FFF0
07FFC001FFF0
07FFC003FFF0
07FFE003FFE0
03FFE003FFE0
03FFE007FFC0
01FFF007FFC0
01FFF007FFC0
01FFF80FFF80
00FFF80FFF80
00FFF80FFF00
007FFC1FFF00
007FFC1FFF00
007FFC1FFE00
003FFE3FFE00
003FFE3FFC00
001FFE7FFC00
001FFF7FFC00
001FFF7FF800
000FFFFFF800
000FFFFFF000
0007FFFFF000
0007FFFFF000
0003FFFFE000
0003FFFFE000
0003FFFFC000
0001FFFFC000
0001FFFFC000
0000FFFF8000
0000FFFF8000
0000FFFF0000
00007FFF0000
00007FFE0000
00003FFE0000
00003FFE0000
00003FFC0000
ENDCHAR
STARTCHAR C0087-W
ENCODING 87
SWIDTH 1109 0
DWIDTH 71 0
BBX 70 45 1 0
BITMAP
FFF80007FF00007FFC
FFFC0007FF8000FFF8
7FFC0007FF8000FFF8
7FFC000FFF8000FFF0
7FFC000FFFC001FFF0
3FFE000FFFC001FFF0
3FFE001FFFC001FFE0
3FFE001FFFE003FFE0
1FFF001FFFE003FFE0
1FFF003FFFE003FFC0
1FFF003FFFF007FFC0
0FFF803FFFF007FFC0
0FFF807FFFF007FF80
0FFF807FFFF807FF80
07FF807FFFF80FFF80
07FFC0FFFFF80FFF00
07FFC0FFFFFC0FFF00
03FFC0FFFFFC1FFF00
03FFE1FFFFFC1FFE00
03FFE1FFFFFE1FFE00
01FFE1FFDFFE3FFE00
01FFF3FFDFFE3FFC00
01FFF3FFCFFF3FFC00
00FFF3FF8FFF3FFC00
00FFF7FF87FF7FF800
00FFFFFF87FFFFF800
007FFFFF07FFFFF800
007FFFFF03FFFFF000
007FFFFF03FFFFF000
003FFFFE03FFFFF000
003FFFFE01FFFFE000
003FFFFC01FFFFE000
001FFFFC01FFFFE000
001FFFFC00FFFFC000
001FFFF800FFFFC000
000FFFF800FFFFC000
000FFFF8007FFF8000
000FFFF0007FFF8000
0007FFF0007FFF8000
0007FFF0003FFF0000
0007FFE0003FFF0000
0003FFE0001FFF0000
0003FFE0001FFE0000
0003FFC0001FFE0000
0001FFC0000FFE0000
ENDCHAR
STARTCHAR C0088-X
ENCODING 88
SWIDTH 734 0
DWIDTH 47 0
BBX 45 45 1 0
BITMAP
FFFE0003FFF8
7FFF0003FFE0
3FFF0007FFE0
1FFF800FFFC0
1FFF800FFF80
0FFFC01FFF80
07FFE03FFF00
07FFE03FFE00
03FFF07FFE00
01FFF87FFC00
01FFF8FFF800
00FFFDFFF800
007FFDFFF000
007FFFFFE000
003FFFFFE000
001FFFFFC000
001FFFFF8000
000FFFFF8000
0007FFFF0000
0007FFFE0000
0003FFFE0000
0001FFFC0000
0001FFFC0000
0003FFFE0000
0007FFFE0000
0007FFFF0000
000FFFFF8000
001FFFFF8000
001FFFFFC000
003FFFFFE000
007FFFFFE000
007FFFFFF000
00FFFDFFF800
01FFF8FFF800
01FFF0FFFC00
03FFF07FFE00
07FFE07FFE00
07FFC03FFF00
0FFFC01FFF80
1FFF801FFF80
1FFF800FFFC0
3FFF0007FFE0
7FFE0007FFE0
7FFE0003FFF0
FFFC0001FFF8
ENDCHAR
STARTCHAR C0089-Y
ENCODING 89
SWIDTH 718 0
DWIDTH 46 0
BBX 47 45 0 0
BITMAP
FFFC00007FFE
7FFE0000FFFC
7FFF0000FFFC
3FFF0001FFF8
1FFF8001FFF0
1FFF8003FFF0
0FFFC007FFE0
07FFC007FFC0
07FFE00FFFC0
03FFF00FFF80
03FFF01FFF80
01FFF83FFF00
00FFF83FFE00
00FFFC7FFE00
007FFE7FFC00
007FFEFFFC00
003FFFFFF800
001FFFFFF000
001FFFFFF000
000FFFFFE000
000FFFFFE000
0007FFFFC000
0003FFFF8000
0003FFFF8000
0001FFFF0000
0001FFFF0000
0000FFFE0000
00007FFC0000
00007FFC0000
00007FFC0000
00007FFC0000
00007FFC0000
00007FFC0000
00007FFC0000
00007FFC0000
00007FFC0000
00007FFC0000
00007FFC0000
00007FFC0000
00007FFC0000
00007FFC0000
00007FFC0000
00007FFC0000
00007FFC0000
00007FFC0000
ENDCHAR
STARTCHAR C0090-Z
ENCODING 90
SWIDTH 703 0
DWIDTH 45 0
BBX 39 45 3 0
BITMAP
FFFFFFFFFE
FFFFFFFFFE
FFFFFFFFFE
FFFFFFFFFE
FFFFFFFFFE
FFFFFFFFFE
FFFFFFFFFE
FFFFFFFFFE
FFFFFFFFFE
FFFFFFFFFE
000003FFFC
000007FFF8
00000FFFF0
00001FFFE0
00003FFFE0
00007FFFC0
0000FFFF80
0001FFFF00
0001FFFE00
0003FFFC00
0007FFF800
000FFFF000
001FFFF000
003FFFE000
007FFFC000
007FFF8000
00FFFF0000
01FFFE0000
03FFFC0000
07FFFC0000
0FFFF80000
1FFFF00000
3FFFE00000
3FFFC00000
7FFF800000
FFFFFFFFFE
FFFFFFFFFE
FFFFFFFFFE
FFFFFFFFFE
FFFFFFFFFE
FFFFFFFFFE
FFFFFFFFFE
FFFFFFFFFE
FFFFFFFFFE
FFFFFFFFFE
ENDCHAR
STARTCHAR C0091-[
ENCODING 91
SWIDTH 453 0
DWIDTH 29 0
BBX 22 53 4 -8
BITMAP
FFFFFC
FFFFFC
FFFFFC
FFFFFC
FFFFFC
FFFFFC
FFFFFC
FFFFFC
FFE000
FFE000
FFE000
FFE000
FFE000
FFE000
FFE000
FFE000
FFE000
FFE000
FFE000
FFE000
FFE000
FFE000
FFE000
FFE000
FFE000
FFE000
FFE000
FFE000
FFE000
FFE000
FFE000
FFE000
FFE000
FFE000
FFE000
FFE000
FFE000
FFE000
FFE000
FFE000
FFE000
FFE000
FFE000
FFE000
FFE000
FFFFFC
FFFFFC
FFFFFC
FFFFFC
FFFFFC
FFFFFC
FFFFFC
FFFFFC
ENDCHAR
STARTCHAR C0092-\
ENCODING 92
SWIDTH 531 0
DWIDTH 34 0
BBX 39 59 -2 -8
BITMAP
FFE0000000
7FE0000000
3FF0000000
3FF0000000
1FF0000000
1FF8000000
0FF8000000
0FFC000000
07FC000000
07FE000000
03FE000000
03FF000000
03FF000000
01FF800000
01FF800000
00FFC00000
00FFC00000
007FE00000
007FE00000
003FF00000
003FF00000
001FF80000
001FF80000
000FFC0000
000FFC0000
0007FE0000
0007FE0000
0003FF0000
0003FF0000
0001FF0000
0001FF8000
0000FF8000
0000FFC000
00007FC000
00007FE000
00003FE000
00003FF000
00003FF000
00001FF800
00001FF800
00000FFC00
00000FFC00
000007FE00
000007FE00
000003FF00
000003FF00
000001FF80
000001FF80
000000FFC0
000000FFC0
0000007FE0
0000007FE0
0000003FF0
0000003FF0
0000001FF8
0000001FF8
0000000FF8
0000000FFC
00000007FE
ENDCHAR
STARTCHAR C0093-]
ENCODING 93
SWIDTH 453 0
DWIDTH 29 0
BBX 22 53 3 -8
BITMAP
FFFFFC
FFFFFC
FFFFFC
FFFFFC
FFFFFC
FFFFFC
FFFFFC
FFFFFC
001FFC
001FFC
001FFC
001FFC
001FFC
001FFC
001FFC
001FFC
001FFC
001FFC
001FFC
001FFC
001FFC
001FFC
001FFC
001FFC
001FFC
001FFC
001FFC
001FFC
001FFC
001FFC
001FFC
001FFC
001FFC
001FFC
001FFC
001FFC
001FFC
001FFC
001FFC
001FFC
001FFC
001FFC
001FFC
001FFC
001FFC
FFFFFC
FFFFFC
FFFFFC
FFFFFC
FFFFFC
FFFFFC
FFFFFC
FFFFFC
ENDCHAR
STARTCHAR C0094-^
ENCODING 94
SWIDTH 500 0
DWIDTH 32 0
BBX 26 13 3 32
BITMAP
007F8000
00FFC000
01FFE000
03FFF000
03FFF000
07FFF800
0FFFFC00
0FF7FC00
1FF3FE00
3FE1FF00
7FC0FF80
7F807F80
FF007FC0
ENDCHAR
STARTCHAR C0095-_
ENCODING 95
SWIDTH 593 0
DWIDTH 38 0
BBX 39 7 0 -10
BITMAP
FFFFFFFFFE
FFFFFFFFFE
FFFFFFFFFE
FFFFFFFFFE
FFFFFFFFFE
FFFFFFFFFE
FFFFFFFFFE
ENDCHAR
STARTCHAR C0096-`
ENCODING 96
SWIDTH 500 0
DWIDTH 32 0
BBX 18 11 6 38
BITMAP
006000
03F000
1FF000
FFF800
7FFC00
3FFC00
1FFE00
07FE00
03FF00
01FF80
00FFC0
ENDCHAR
STARTCHAR C0097-a
ENCODING 97
SWIDTH 593 0
DWIDTH 38 0
BBX 33 36 2 -1
BITMAP
003FFC0000
03FFFF8000
1FFFFFE000
3FFFFFF000
1FFFFFFC00
1FFFFFFC00
1FFFFFFE00
1FFFFFFF00
0FFFFFFF00
0FFFFFFF00
0F803FFF80
0C000FFF80
00000FFF80
000007FF80
00FFC7FF80
03FFFFFF80
0FFFFFFF80
1FFFFFFF80
3FFFFFFF80
7FFFFFFF80
7FFC0FFF80
FFF807FF80
FFF007FF80
FFF007FF80
FFF007FF80
FFF00FFF80
FFF80FFF80
FFFC3FFF80
FFFFFFFF80
7FFFFFFF80
7FFFFFFF80
3FFFFFFF80
1FFFF7FF80
0FFFE7FF80
07FFC7FF80
00FF000000
ENDCHAR
STARTCHAR C0098-b
ENCODING 98
SWIDTH 671 0
DWIDTH 43 0
BBX 38 48 3 -1
BITMAP
FFF0000000
FFF0000000
FFF0000000
FFF0000000
FFF0000000
FFF0000000
FFF0000000
FFF0000000
FFF0000000
FFF0000000
FFF0000000
FFF0000000
FFF01FC000
FFF07FF800
FFF1FFFE00
FFF3FFFF00
FFF7FFFF80
FFFFFFFFC0
FFFFFFFFE0
FFFFFFFFE0
FFFFFFFFF0
FFFFFFFFF0
FFFF03FFF8
FFFE01FFF8
FFFC00FFF8
FFF8007FFC
FFF8007FFC
FFF0003FFC
FFF0003FFC
FFF0003FFC
FFF0003FFC
FFF0003FFC
FFF0003FFC
FFF8007FFC
FFF8007FFC
FFFC00FFF8
FFFE01FFF8
FFFF03FFF8
FFFFFFFFF0
FFFFFFFFF0
FFFFFFFFE0
FFFFFFFFE0
FFFFFFFFC0
FFFFFFFF80
FFF7FFFF00
FFF1FFFE00
FFF0FFF800
00001FC000
ENDCHAR
STARTCHAR C0099-c
ENCODING 99
SWIDTH 562 0
DWIDTH 36 0
BBX 34 36 2 -1
BITMAP
0003FF0000
001FFFE000
007FFFF000
01FFFFFC00
03FFFFFE00
07FFFFFF00
0FFFFFFF80
1FFFFFFF80
1FFFFFFF40
3FFFFFFE00
3FFF03FC00
7FFE01F000
7FFC00E000
7FF8008000
FFF8000000
FFF0000000
FFF0000000
FFF0000000
FFF0000000
FFF0000000
FFF0000000
FFF8000000
7FF8004000
7FFC006000
7FFE01F000
3FFF03FC00
3FFFFFFE00
1FFFFFFF80
1FFFFFFFC0
0FFFFFFF80
07FFFFFF00
03FFFFFE00
01FFFFFC00
007FFFF000
001FFFC000
0003FE0000
ENDCHAR
STARTCHAR C0100-d
ENCODING 100
SWIDTH 671 0
DWIDTH 43 0
BBX 38 48 2 -1
BITMAP
0000003FFC
0000003FFC
0000003FFC
0000003FFC
0000003FFC
0000003FFC
0000003FFC
0000003FFC
0000003FFC
0000003FFC
0000003FFC
0000003FFC
000FE03FFC
007FFC3FFC
01FFFE3FFC
03FFFFBFFC
07FFFFFFFC
0FFFFFFFFC
1FFFFFFFFC
1FFFFFFFFC
3FFFFFFFFC
3FFFFFFFFC
7FFF03FFFC
7FFE01FFFC
7FFC00FFFC
FFF8007FFC
FFF8007FFC
FFF0003FFC
FFF0003FFC
FFF0003FFC
FFF0003FFC
FFF0003FFC
FFF0003FFC
FFF8007FFC
FFF8007FFC
7FFC00FFFC
7FFE01FFFC
7FFF83FFFC
3FFFFFFFFC
3FFFFFFFFC
1FFFFFFFFC
1FFFFFFFFC
0FFFFFFFFC
07FFFFBFFC
03FFFF3FFC
01FFFE3FFC
007FFC3FFC
000FE00000
ENDCHAR
STARTCHAR C0101-e
ENCODING 101
SWIDTH 609 0
DWIDTH 39 0
BBX 35 36 2 -1
BITMAP
0007FC0000
003FFF8000
00FFFFE000
01FFFFF000
03FFFFFC00
07FFFFFE00
0FFFFFFE00
1FFFFFFF00
3FFFFFFF80
3FFFFFFF80
7FFE0FFF80
7FF803FFC0
7FF001FFC0
FFF001FFC0
FFF001FFC0
FFFFFFFFE0
FFFFFFFFE0
FFFFFFFFE0
FFFFFFFFE0
FFFFFFFFE0
FFFFFFFFE0
FFF0000000
FFF0002000
7FF8003000
7FFC00F800
7FFF03FC00
3FFFFFFE00
3FFFFFFF80
1FFFFFFF80
0FFFFFFF00
07FFFFFF00
03FFFFFE00
01FFFFF800
00FFFFF000
003FFFC000
0003FE0000
ENDCHAR
STARTCHAR C0102-f
ENCODING 102
SWIDTH 406 0
DWIDTH 26 0
BBX 24 47 1 0
BITMAP
001FFC
007FFF
01FFFF
03FFFF
03FFFF
07FFFF
07FFFF
0FFFFF
0FFFFF
0FFF81
0FFF00
0FFF00
FFFFFF
FFFFFF
FFFFFF
FFFFFF
FFFFFF
FFFFFF
FFFFFF
FFFFFF
FFFFFF
FFFFFF
0FFF00
0FFF00
0FFF00
0FFF00
0FFF00
0FFF00
0FFF00
0FFF00
0FFF00
0FFF00
0FFF00
0FFF00
0FFF00
0FFF00
0FFF00
0FFF00
0FFF00
0FFF00
0FFF00
0FFF00
0FFF00
0FFF00
0FFF00
0FFF00
0FFF00
ENDCHAR
STARTCHAR C0103-g
ENCODING 103
SWIDTH 671 0
DWIDTH 43 0
BBX 38 45 2 -10
BITMAP
001FE03FFC
00FFFC3FFC
01FFFE3FFC
07FFFF3FFC
0FFFFFBFFC
1FFFFFFFFC
1FFFFFFFFC
3FFFFFFFFC
3FFFFFFFFC
7FFFFFFFFC
7FFF03FFFC
7FFC00FFFC
FFF8007FFC
FFF8007FFC
FFF0003FFC
FFF0003FFC
FFF0003FFC
FFF0003FFC
FFF8007FFC
FFF8007FFC
7FFC00FFFC
7FFF03FFFC
7FFFFFFFFC
3FFFFFFFFC
3FFFFFFFFC
1FFFFFFFFC
1FFFFFFFFC
0FFFFFBFFC
07FFFF3FFC
01FFFE3FFC
00FFF83FFC
001FE07FFC
0000007FF8
0C0000FFF8
0F8001FFF8
1FF007FFF8
1FFFFFFFF0
1FFFFFFFF0
3FFFFFFFE0
3FFFFFFFC0
7FFFFFFF80
3FFFFFFF00
0FFFFFFC00
01FFFFF000
000FFF0000
ENDCHAR
STARTCHAR C0104-h
ENCODING 104
SWIDTH 640 0
DWIDTH 41 0
BBX 35 47 3 0
BITMAP
FFF0000000
FFF0000000
FFF0000000
FFF0000000
FFF0000000
FFF0000000
FFF0000000
FFF0000000
FFF0000000
FFF0000000
FFF0000000
FFF0000000
FFF01FE000
FFF0FFF800
FFF1FFFE00
FFF3FFFF00
FFF7FFFF80
FFFFFFFF80
FFFFFFFFC0
FFFFFFFFC0
FFFFFFFFE0
FFFFFFFFE0
FFFE0FFFE0
FFFC03FFE0
FFF803FFE0
FFF001FFE0
FFF001FFE0
FFF001FFE0
FFF001FFE0
FFF001FFE0
FFF001FFE0
FFF001FFE0
FFF001FFE0
FFF001FFE0
FFF001FFE0
FFF001FFE0
FFF001FFE0
FFF001FFE0
FFF001FFE0
FFF001FFE0
FFF001FFE0
FFF001FFE0
FFF001FFE0
FFF001FFE0
FFF001FFE0
FFF001FFE0
FFF001FFE0
ENDCHAR
STARTCHAR C0105-i
ENCODING 105
SWIDTH 296 0
DWIDTH 19 0
BBX 12 47 4 0
BITMAP
FFF0
FFF0
FFF0
FFF0
FFF0
FFF0
FFF0
FFF0
FFF0
FFF0
0000
0000
FFF0
FFF0
FFF0
FFF0
FFF0
FFF0
FFF0
FFF0
FFF0
FFF0
FFF0
FFF0
FFF0
FFF0
FFF0
FFF0
FFF0
FFF0
FFF0
FFF0
FFF0
FFF0
FFF0
FFF0
FFF0
FFF0
FFF0
FFF0
FFF0
FFF0
FFF0
FFF0
FFF0
FFF0
FFF0
ENDCHAR
STARTCHAR C0106-j
ENCODING 106
SWIDTH 296 0
DWIDTH 19 0
BBX 17 57 -1 -10
BITMAP
07FF80
07FF80
07FF80
07FF80
07FF80
07FF80
07FF80
07FF80
07FF80
07FF80
000000
000000
07FF80
07FF80
07FF80
07FF80
07FF80
07FF80
07FF80
07FF80
07FF80
07FF80
07FF80
07FF80
07FF80
07FF80
07FF80
07FF80
07FF80
07FF80
07FF80
07FF80
07FF80
07FF80
07FF80
07FF80
07FF80
07FF80
07FF80
07FF80
07FF80
07FF80
07FF80
07FF80
07FF80
07FF80
07FF80
0FFF80
1FFF80
FFFF80
FFFF00
FFFF00
FFFE00
FFFE00
FFFC00
FFF000
FF8000
ENDCHAR
STARTCHAR C0107-k
ENCODING 107
SWIDTH 609 0
DWIDTH 39 0
BBX 35 47 3 0
BITMAP
FFF0000000
FFF0000000
FFF0000000
FFF0000000
FFF0000000
FFF0000000
FFF0000000
FFF0000000
FFF0000000
FFF0000000
FFF0000000
FFF0000000
FFF007FFE0
FFF00FFFC0
FFF01FFF80
FFF01FFF00
FFF03FFE00
FFF07FFE00
FFF0FFFC00
FFF1FFF800
FFF1FFF000
FFF3FFE000
FFF7FFC000
FFFFFF8000
FFFFFF8000
FFFFFF0000
FFFFFE0000
FFFFFF0000
FFFFFF8000
FFFFFF8000
FFFFFFC000
FFFFFFC000
FFFFFFE000
FFFFFFE000
FFFFFFF000
FFFFFFF800
FFFCFFF800
FFF87FFC00
FFF07FFC00
FFF03FFE00
FFF03FFF00
FFF01FFF00
FFF01FFF80
FFF00FFF80
FFF007FFC0
FFF007FFE0
FFF003FFE0
ENDCHAR
STARTCHAR C0108-l
ENCODING 108
SWIDTH 296 0
DWIDTH 19 0
BBX 12 47 4 0
BITMAP
FFF0
FFF0
FFF0
FFF0
FFF0
FFF0
FFF0
FFF0
FFF0
FFF0
FFF0
FFF0
FFF0
FFF0
FFF0
FFF0
FFF0
FFF0
FFF0
FFF0
FFF0
FFF0
FFF0
FFF0
FFF0
FFF0
FFF0
FFF0
FFF0
FFF0
FFF0
FFF0
FFF0
FFF0
FFF0
FFF0
FFF0
FFF0
FFF0
FFF0
FFF0
FFF0
FFF0
FFF0
FFF0
FFF0
FFF0
ENDCHAR
STARTCHAR C0109-m
ENCODING 109
SWIDTH 968 0
DWIDTH 62 0
BBX 56 35 3 0
BITMAP
FFF01FC000FF00
FFF0FFF807FFE0
FFF1FFFC0FFFF0
FFF3FFFE3FFFF8
FFF7FFFF7FFFFC
FFFFFFFFFFFFFC
FFFFFFFFFFFFFE
FFFFFFFFFFFFFE
FFFFFFFFFFFFFF
FFFFFFFFFFFFFF
FFFE1FFFF87FFF
FFF807FFE01FFF
FFF807FFE01FFF
FFF003FFC00FFF
FFF003FFC00FFF
FFF003FFC00FFF
FFF003FFC00FFF
FFF003FFC00FFF
FFF003FFC00FFF
FFF003FFC00FFF
FFF003FFC00FFF
FFF003FFC00FFF
FFF003FFC00FFF
FFF003FFC00FFF
FFF003FFC00FFF
FFF003FFC00FFF
FFF003FFC00FFF
FFF003FFC00FFF
FFF003FFC00FFF
FFF003FFC00FFF
FFF003FFC00FFF
FFF003FFC00FFF
FFF003FFC00FFF
FFF003FFC00FFF
FFF003FFC00FFF
ENDCHAR
STARTCHAR C0110-n
ENCODING 110
SWIDTH 640 0
DWIDTH 41 0
BBX 35 35 3 0
BITMAP
FFF01FE000
FFF07FF800
FFF1FFFE00
FFF3FFFF00
FFF7FFFF80
FFFFFFFF80
FFFFFFFFC0
FFFFFFFFC0
FFFFFFFFE0
FFFFFFFFE0
FFFE0FFFE0
FFFC03FFE0
FFF803FFE0
FFF001FFE0
FFF001FFE0
FFF001FFE0
FFF001FFE0
FFF001FFE0
FFF001FFE0
FFF001FFE0
FFF001FFE0
FFF001FFE0
FFF001FFE0
FFF001FFE0
FFF001FFE0
FFF001FFE0
FFF001FFE0
FFF001FFE0
FFF001FFE0
FFF001FFE0
FFF001FFE0
FFF001FFE0
FFF001FFE0
FFF001FFE0
FFF001FFE0
ENDCHAR
STARTCHAR C0111-o
ENCODING 111
SWIDTH 656 0
DWIDTH 42 0
BBX 38 36 2 -1
BITMAP
0003FF0000
001FFFE000
007FFFF800
00FFFFFC00
03FFFFFF00
07FFFFFF80
0FFFFFFFC0
1FFFFFFFE0
1FFFFFFFE0
3FFFFFFFF0
3FFF07FFF0
7FFE01FFF8
7FFC00FFF8
7FF8007FF8
FFF8007FFC
FFF0003FFC
FFF0003FFC
FFF0003FFC
FFF0003FFC
FFF0003FFC
FFF0003FFC
FFF8007FFC
7FF8007FF8
7FFC00FFF8
7FFE01FFF8
3FFF83FFF0
3FFFFFFFF0
1FFFFFFFE0
1FFFFFFFE0
0FFFFFFFC0
07FFFFFF80
03FFFFFF00
01FFFFFC00
007FFFF800
001FFFE000
0003FF0000
ENDCHAR
STARTCHAR C0112-p
ENCODING 112
SWIDTH 671 0
DWIDTH 43 0
BBX 38 45 3 -10
BITMAP
FFF01FC000
FFF0FFF800
FFF1FFFE00
FFF3FFFF00
FFF7FFFF80
FFFFFFFFC0
FFFFFFFFE0
FFFFFFFFE0
FFFFFFFFF0
FFFFFFFFF0
FFFF03FFF8
FFFE01FFF8
FFFC00FFF8
FFF8007FFC
FFF8007FFC
FFF0003FFC
FFF0003FFC
FFF0003FFC
FFF0003FFC
FFF0003FFC
FFF0003FFC
FFF8007FFC
FFF8007FFC
FFFC00FFF8
FFFE01FFF8
FFFF03FFF8
FFFFFFFFF0
FFFFFFFFF0
FFFFFFFFE0
FFFFFFFFE0
FFFFFFFFC0
FFFFFFFF80
FFF7FFFF00
FFF1FFFE00
FFF0FFF800
FFF01FC000
FFF0000000
FFF0000000
FFF0000000
FFF0000000
FFF0000000
FFF0000000
FFF0000000
FFF0000000
FFF0000000
ENDCHAR
STARTCHAR C0113-q
ENCODING 113
SWIDTH 671 0
DWIDTH 43 0
BBX 38 45 2 -10
BITMAP
000FE03FFC
007FFC3FFC
01FFFE3FFC
03FFFFBFFC
07FFFFFFFC
0FFFFFFFFC
1FFFFFFFFC
1FFFFFFFFC
3FFFFFFFFC
3FFFFFFFFC
7FFF03FFFC
7FFE01FFFC
7FFC00FFFC
FFF8007FFC
FFF8007FFC
FFF0003FFC
FFF0003FFC
FFF0003FFC
FFF0003FFC
FFF0003FFC
FFF0003FFC
FFF8007FFC
FFF8007FFC
7FFC00FFFC
7FFE01FFFC
7FFF83FFFC
3FFFFFFFFC
3FFFFFFFFC
1FFFFFFFFC
1FFFFFFFFC
0FFFFFFFFC
07FFFFBFFC
03FFFF3FFC
01FFFE3FFC
007FFC3FFC
000FE03FFC
0000003FFC
0000003FFC
0000003FFC
0000003FFC
0000003FFC
0000003FFC
0000003FFC
0000003FFC
0000003FFC
ENDCHAR
STARTCHAR C0114-r
ENCODING 114
SWIDTH 421 0
DWIDTH 27 0
BBX 23 36 3 0
BITMAP
00000E
FFF07E
FFF0FE
FFF1FE
FFF3FE
FFF7FE
FFF7FE
FFFFFE
FFFFFE
FFFFFE
FFFFFE
FFFFFE
FFFFFE
FFFFC0
FFFF00
FFFE00
FFFC00
FFF800
FFF800
FFF800
FFF000
FFF000
FFF000
FFF000
FFF000
FFF000
FFF000
FFF000
FFF000
FFF000
FFF000
FFF000
FFF000
FFF000
FFF000
FFF000
ENDCHAR
STARTCHAR C0115-s
ENCODING 115
SWIDTH 515 0
DWIDTH 33 0
BBX 30 36 1 -1
BITMAP
001FF000
00FFFF00
03FFFFC0
07FFFFF0
0FFFFFF8
1FFFFFF8
3FFFFFF0
3FFFFFF0
3FFFFFE0
7FF81FE0
7FF003C0
7FF000C0
7FFC0000
7FFF8000
3FFFF000
3FFFFE00
1FFFFF80
0FFFFFE0
07FFFFF0
03FFFFF8
00FFFFF8
001FFFFC
0001FFFC
08003FFC
1E001FFC
1F801FFC
3FF03FFC
3FFFFFFC
7FFFFFFC
FFFFFFF8
FFFFFFF8
7FFFFFF0
1FFFFFE0
0FFFFFC0
01FFFF00
001FF800
ENDCHAR
STARTCHAR C0116-t
ENCODING 116
SWIDTH 437 0
DWIDTH 28 0
BBX 24 44 1 -1
BITMAP
0FFF00
0FFF00
0FFF00
0FFF00
0FFF00
0FFF00
0FFF00
0FFF00
FFFFFF
FFFFFF
FFFFFF
FFFFFF
FFFFFF
FFFFFF
FFFFFF
FFFFFF
FFFFFF
FFFFFF
0FFF00
0FFF00
0FFF00
0FFF00
0FFF00
0FFF00
0FFF00
0FFF00
0FFF00
0FFF00
0FFF00
0FFF00
0FFF00
0FFF00
0FFF01
0FFF83
0FFFFF
0FFFFF
0FFFFF
07FFFF
07FFFF
03FFFF
03FFFF
01FFFF
007FFE
001FF0
ENDCHAR
STARTCHAR C0117-u
ENCODING 117
SWIDTH 640 0
DWIDTH 41 0
BBX 35 36 3 -1
BITMAP
FFF001FFE0
FFF001FFE0
FFF001FFE0
FFF001FFE0
FFF001FFE0
FFF001FFE0
FFF001FFE0
FFF001FFE0
FFF001FFE0
FFF001FFE0
FFF001FFE0
FFF001FFE0
FFF001FFE0
FFF001FFE0
FFF001FFE0
FFF001FFE0
FFF001FFE0
FFF001FFE0
FFF001FFE0
FFF001FFE0
FFF001FFE0
FFF001FFE0
FFF001FFE0
FFF803FFE0
FFFC07FFE0
FFFE0FFFE0
FFFFFFFFE0
7FFFFFFFE0
7FFFFFFFE0
7FFFFFFFE0
3FFFFFFFE0
3FFFFDFFE0
1FFFF9FFE0
0FFFF1FFE0
03FFE1FFE0
00FF000000
ENDCHAR
STARTCHAR C0118-v
ENCODING 118
SWIDTH 625 0
DWIDTH 40 0
BBX 38 35 1 0
BITMAP
FFF8003FFC
FFF8007FFC
7FF8007FF8
7FFC007FF8
7FFC00FFF8
3FFC00FFF0
3FFE00FFF0
1FFE01FFE0
1FFE01FFE0
1FFF01FFE0
0FFF03FFC0
0FFF03FFC0
07FF83FF80
07FF87FF80
07FF87FF80
03FFC7FF00
03FFCFFF00
01FFCFFE00
01FFEFFE00
01FFFFFE00
00FFFFFC00
00FFFFFC00
007FFFF800
007FFFF800
007FFFF800
003FFFF000
003FFFF000
001FFFE000
001FFFE000
001FFFE000
000FFFC000
000FFFC000
000FFFC000
0007FF8000
0007FF8000
ENDCHAR
STARTCHAR C0119-w
ENCODING 119
SWIDTH 859 0
DWIDTH 55 0
BBX 53 35 1 0
BITMAP
FFF007FF007FF8
FFF007FF007FF8
7FF007FF007FF8
7FF80FFF807FF0
7FF80FFF80FFF0
7FF80FFF80FFF0
3FF80FFFC0FFE0
3FFC1FFFC0FFE0
3FFC1FFFC1FFE0
1FFC1FFFC1FFC0
1FFC3FFFE1FFC0
1FFE3FFFE1FFC0
0FFE3FFFE3FFC0
0FFE7FFFF3FF80
0FFE7FFFF3FF80
0FFF7FFFF3FF80
07FF7FFFFFFF00
07FFFFDFFFFF00
07FFFFDFFFFF00
03FFFFDFFFFE00
03FFFF8FFFFE00
03FFFF8FFFFE00
01FFFF8FFFFC00
01FFFF07FFFC00
01FFFF07FFFC00
01FFFF07FFFC00
00FFFE07FFF800
00FFFE03FFF800
00FFFE03FFF800
007FFE03FFF000
007FFC01FFF000
007FFC01FFF000
003FFC01FFE000
003FF800FFE000
003FF800FFE000
ENDCHAR
STARTCHAR C0120-x
ENCODING 120
SWIDTH 593 0
DWIDTH 38 0
BBX 36 35 1 0
BITMAP
FFF801FFF0
7FFC03FFE0
7FFC03FFC0
3FFE07FFC0
1FFE0FFF80
1FFF0FFF00
0FFF9FFF00
07FF9FFE00
07FFFFFC00
03FFFFFC00
01FFFFF800
01FFFFF000
00FFFFF000
007FFFE000
007FFFC000
003FFFC000
001FFF8000
001FFF8000
003FFF8000
003FFFC000
007FFFE000
00FFFFE000
00FFFFF000
01FFFFF800
03FFFFF800
03FFFFFC00
07FFBFFE00
0FFF9FFE00
0FFF1FFF00
1FFF0FFF80
3FFE0FFF80
3FFC07FFC0
7FFC03FFE0
7FF803FFE0
FFF801FFF0
ENDCHAR
STARTCHAR C0121-y
ENCODING 121
SWIDTH 625 0
DWIDTH 40 0
BBX 38 46 1 -11
BITMAP
FFF8003FFC
FFF8007FFC
7FF8007FF8
7FFC007FF8
7FFC00FFF8
3FFC00FFF0
3FFE00FFF0
1FFE00FFF0
1FFE01FFE0
1FFF01FFE0
0FFF01FFE0
0FFF03FFC0
07FF83FFC0
07FF83FF80
07FF87FF80
03FFC7FF80
03FFC7FF00
01FFCFFF00
01FFEFFF00
01FFEFFE00
00FFFFFE00
00FFFFFC00
007FFFFC00
007FFFFC00
007FFFF800
003FFFF800
003FFFF800
003FFFF000
001FFFF000
001FFFF000
000FFFE000
000FFFE000
000FFFC000
0007FFC000
0407FFC000
070FFF8000
0FFFFF8000
0FFFFF0000
1FFFFF0000
1FFFFE0000
3FFFFE0000
3FFFFC0000
3FFFF80000
5FFFF00000
07FFE00000
00FF800000
ENDCHAR
STARTCHAR C0122-z
ENCODING 122
SWIDTH 562 0
DWIDTH 36 0
BBX 32 35 2 0
BITMAP
7FFFFFFF
7FFFFFFF
7FFFFFFF
7FFFFFFF
7FFFFFFF
7FFFFFFF
7FFFFFFF
7FFFFFFF
7FFFFFFF
7FFFFFFE
0000FFFC
0001FFF8
0003FFF0
0007FFE0
000FFFC0
001FFF80
003FFF00
007FFE00
00FFFC00
01FFF800
03FFF000
07FFE000
0FFFC000
1FFFC000
3FFF8000
7FFFFFFF
7FFFFFFF
FFFFFFFF
FFFFFFFF
FFFFFFFF
FFFFFFFF
FFFFFFFF
FFFFFFFF
FFFFFFFF
FFFFFFFF
ENDCHAR
STARTCHAR C0123-{
ENCODING 123
SWIDTH 484 0
DWIDTH 31 0
BBX 28 55 1 -9
BITMAP
000001C0
00003FC0
0000FFE0
0003FFE0
000FFFE0
001FFFE0
001FFFF0
003FFFE0
003FFF00
007FFC00
007FF800
007FF000
007FF000
007FF000
007FF000
007FF000
007FF000
007FF000
007FF000
007FF000
007FF000
00FFF000
01FFF000
07FFE000
FFFFE000
FFFFC000
FFFF0000
FFFC0000
FFFC0000
FFFF0000
FFFFC000
FFFFE000
07FFE000
01FFF000
00FFF000
007FF000
007FF000
007FF000
007FF000
007FF000
007FF000
007FF000
007FF000
007FF000
007FF800
007FFC00
003FFE00
003FFFC0
003FFFF0
001FFFF0
000FFFE0
0003FFE0
0001FFE0
00003FC0
000001C0
ENDCHAR
STARTCHAR C0124-|
ENCODING 124
SWIDTH 359 0
DWIDTH 23 0
BBX 9 59 7 -8
BITMAP
FF80
FF80
FF80
FF80
FF80
FF80
FF80
FF80
FF80
FF80
FF80
FF80
FF80
FF80
FF80
FF80
FF80
FF80
FF80
FF80
FF80
FF80
FF80
FF80
FF80
FF80
FF80
FF80
FF80
FF80
FF80
FF80
FF80
FF80
FF80
FF80
FF80
FF80
FF80
FF80
FF80
FF80
FF80
FF80
FF80
FF80
FF80
FF80
FF80
FF80
FF80
FF80
FF80
FF80
FF80
FF80
FF80
FF80
FF80
ENDCHAR
STARTCHAR C0125-}
ENCODING 125
SWIDTH 484 0
DWIDTH 31 0
BBX 28 55 2 -9
BITMAP
38000000
3FC00000
7FF00000
7FFC0000
7FFF0000
7FFF8000
FFFF8000
7FFFC000
0FFFC000
03FFE000
01FFE000
00FFE000
00FFE000
00FFE000
00FFE000
00FFE000
00FFE000
00FFE000
00FFE000
00FFE000
00FFE000
00FFF000
00FFF800
007FFE00
007FFFF0
003FFFF0
000FFFF0
0003FFF0
0003FFF0
000FFFF0
003FFFF0
007FFFF0
007FFE00
00FFF800
00FFF000
00FFE000
00FFE000
00FFE000
00FFE000
00FFE000
00FFE000
00FFE000
00FFE000
00FFE000
01FFE000
03FFE000
07FFC000
3FFFC000
FFFFC000
FFFF8000
7FFF0000
7FFC0000
7FF80000
3FC00000
38000000
ENDCHAR
STARTCHAR C0126-~
ENCODING 126
SWIDTH 500 0
DWIDTH 32 0
BBX 27 12 3 14
BITMAP
00000600
07E00FC0
1FFE1FE0
3FFFFFC0
3FFFFFC0
7FFFFFC0
7FFFFF80
FFFFFF80
FFFFFF00
FE1FFE00
FC01F800
0C000000
ENDCHAR
STARTCHAR C0127
ENCODING 127
SWIDTH 500 0
DWIDTH 32 0
BBX 1 1 0 -1
BITMAP
00
ENDCHAR
STARTCHAR C0128
ENCODING 128
SWIDTH 500 0
DWIDTH 32 0
BBX 1 1 0 -1
BITMAP
00
ENDCHAR
STARTCHAR C0129
ENCODING 129
SWIDTH 500 0
DWIDTH 32 0
BBX 1 1 0 -1
BITMAP
00
ENDCHAR
STARTCHAR C0130
ENCODING 130
SWIDTH 281 0
DWIDTH 18 0
BBX 14 23 2 -11
BITMAP
7FFC
7FFC
7FFC
7FFC
7FFC
7FFC
7FFC
7FFC
7FFC
7FFC
7FFC
7FFC
03FC
03FC
03FC
07F8
0FF8
3FF0
FFF0
FFE0
FFC0
FF00
F800
ENDCHAR
STARTCHAR C0131
ENCODING 131
SWIDTH 546 0
DWIDTH 35 0
BBX 32 46 2 -1
BITMAP
00000FFC
00007FFF
0001FFFF
0003FFFF
0007FFFF
0007FFFF
000FFFFF
000FFFFF
001FFFFF
001FFFFF
001FFF01
001FFE00
003FFE00
003FFC00
07FFFFFC
07FFFFFC
07FFFFFC
07FFFFFC
07FFFFFC
07FFFFFC
07FFFFFC
07FFFFFC
07FFFFFC
07FFFFFC
00FFF800
00FFF000
00FFF000
00FFF000
00FFF000
01FFF000
01FFF000
01FFE000
01FFE000
01FFE000
03FFE000
07FFE000
FFFFC000
FFFFC000
FFFFC000
FFFF8000
FFFF8000
FFFF0000
FFFE0000
FFFC0000
FFF80000
7FC00000
ENDCHAR
STARTCHAR C0132
ENCODING 132
SWIDTH 546 0
DWIDTH 35 0
BBX 32 23 1 -11
BITMAP
7FFC1FFF
7FFC1FFF
7FFC1FFF
7FFC1FFF
7FFC1FFF
7FFC1FFF
7FFC1FFF
7FFC1FFF
7FFC1FFF
7FFC1FFF
7FFC1FFF
7FFC1FFF
03FC00FF
03FC00FF
03FC00FF
07F801FE
0FF803FE
1FF007FC
FFF03FFC
FFE03FF8
FFC03FF0
FF003FC0
78001E00
ENDCHAR
STARTCHAR C0133
ENCODING 133
SWIDTH 843 0
DWIDTH 54 0
BBX 48 12 3 0
BITMAP
FFF03FFC0FFF
FFF03FFC0FFF
FFF03FFC0FFF
FFF03FFC0FFF
FFF03FFC0FFF
FFF03FFC0FFF
FFF03FFC0FFF
FFF03FFC0FFF
FFF03FFC0FFF
FFF03FFC0FFF
FFF03FFC0FFF
FFF03FFC0FFF
ENDCHAR
STARTCHAR C0134
ENCODING 134
SWIDTH 406 0
DWIDTH 26 0
BBX 21 31 3 14
BITMAP
01FC00
01FC00
01F800
01F800
01F800
01F800
01F800
01F800
FFFFF8
FFFFF8
FFFFF8
FFFFF8
FFFFF8
FEFFF8
00F800
01F800
01F800
01F800
01F800
01F800
01F800
01F800
01F800
01F800
01F800
01F800
01F800
01F800
01F800
01F800
01F800
ENDCHAR
STARTCHAR C0135
ENCODING 135
SWIDTH 437 0
DWIDTH 28 0
BBX 21 45 3 0
BITMAP
01FC00
01FC00
01FC00
00FC00
00FC00
00FC00
00FC00
80F808
FFFFF8
FFFFF8
FFFFF8
FFFFF8
FFFFF8
FCF9F8
00F800
00F800
00FC00
00FC00
00FC00
00FC00
00FC00
00FC00
01FC00
00FC00
00FC00
00FC00
00FC00
00FC00
00FC00
00F800
00F800
FCF9F8
FFFFF8
FFFFF8
FFFFF8
FFFFF8
FFFFF8
80F808
00FC00
00FC00
00FC00
00FC00
01FC00
01FC00
01FC00
ENDCHAR
STARTCHAR C0136
ENCODING 136
SWIDTH 500 0
DWIDTH 32 0
BBX 26 10 3 38
BITMAP
00FFC000
01FFE000
03FFF000
07FFF800
0FFFFC00
0FFFFC00
1FF7FE00
3FE1FF00
7FC0FF80
FF003FC0
ENDCHAR
STARTCHAR C0137
ENCODING 137
SWIDTH 1296 0
DWIDTH 83 0
BBX 79 46 2 -1
BITMAP
00FE000001FC00000000
03FF800003FF00000000
0FFFE00007FE00000000
1FFFF00007FC00000000
3FFFF8000FF800000000
3FFFF8001FF000000000
7FFFFC003FE000000000
7FC7FC003FE000000000
FF83FE007FC000000000
FF01FE00FF8000000000
FF01FE01FF0000000000
FF01FE01FF0000000000
FF01FE03FE0000000000
FF01FE07FC0000000000
FF01FE0FF80000000000
FF83FE0FF00000000000
7FC7FC1FF00000000000
7FFFFC3FE00000000000
3FFFF87FC00000000000
3FFFF87F800000000000
1FFFF0FF800000000000
0FFFE1FF000000000000
03FF83FE03F80001FE00
00FE03FC0FFE0007FF80
000007F83FFF801FFFE0
00000FF87FFFC03FFFF0
00001FF0FFFFE07FFFF8
00001FE0FFFFE07FFFF8
00003FC1FFFFF0FFFFFC
00007FC1FF1FF0FF87FC
0000FF83FE0FF9FF03FE
0000FF03FC07F9FE01FE
0001FE03FC07F9FE01FE
0003FE03FC07F9FE01FE
0007FC03FC07F9FE01FE
0007F803FC07F9FE01FE
000FF003FC07F9FF01FE
001FE003FE0FF9FF03FE
003FE001FF1FF0FF87FC
007FC001FFFFF0FFFFFC
007F8000FFFFE07FFFF8
00FF0000FFFFE07FFFF8
01FF00007FFFC03FFFF0
03FE00003FFF801FFFE0
03FC00000FFE0007FF80
0400000003F80001FE00
ENDCHAR
STARTCHAR C0138
ENCODING 138
SWIDTH 656 0
DWIDTH 42 0
BBX 40 59 0 -1
BITMAP
00FF803FC0
007FC0FF80
003FE1FF00
001FFBFE00
001FFFFC00
000FFFFC00
0007FFF800
0003FFF000
0003FFE000
0001FFC000
0000FFC000
0000000000
0000FFE000
000FFFFE00
003FFFFFC0
007FFFFFF0
01FFFFFFF8
03FFFFFFFE
03FFFFFFFE
07FFFFFFFC
0FFFFFFFF8
0FFFFFFFF8
0FFFC07FF0
1FFF000FE0
1FFF0003C0
1FFF0000C0
1FFF000000
1FFF800000
1FFFF00000
1FFFFE0000
1FFFFFE000
0FFFFFFC00
0FFFFFFF80
07FFFFFFC0
07FFFFFFF0
03FFFFFFF8
01FFFFFFFC
007FFFFFFC
001FFFFFFE
0007FFFFFE
0000FFFFFF
00000FFFFF
000000FFFF
0000003FFF
0100001FFF
03C0001FFF
07F0001FFF
0FFC003FFF
1FFF807FFE
3FFFFFFFFE
3FFFFFFFFE
7FFFFFFFFC
FFFFFFFFF8
1FFFFFFFF0
0FFFFFFFE0
03FFFFFFC0
00FFFFFF80
001FFFFC00
0001FFE000
ENDCHAR
STARTCHAR C0139
ENCODING 139
SWIDTH 359 0
DWIDTH 23 0
BBX 19 30 2 2
BITMAP
002000
007800
00FE00
01FF80
01FFE0
03FFC0
07FF80
0FFF00
0FFF00
1FFE00
3FFC00
7FF800
7FF800
FFF000
FFE000
FFE000
FFF000
7FF800
7FF800
3FFC00
1FFE00
0FFF00
0FFF00
07FF80
03FFC0
01FFE0
01FF80
00FE00
007800
002000
ENDCHAR
STARTCHAR C0140
ENCODING 140
SWIDTH 1078 0
DWIDTH 69 0
BBX 65 45 2 0
BITMAP
00000FFFFFFFFFFF00
0000FFFFFFFFFFFF00
0007FFFFFFFFFFFF00
001FFFFFFFFFFFFF00
007FFFFFFFFFFFFF00
00FFFFFFFFFFFFFF00
01FFFFFFFFFFFFFF00
03FFFFFFFFFFFFFF00
07FFFFFFFFFFFFFF00
0FFFFFFFFFFFFFFF00
1FFFFC03FFC0000000
1FFFE003FFC0000000
3FFF8003FFC0000000
3FFF0003FFC0000000
7FFE0003FFC0000000
7FFE0003FFC0000000
7FFC0003FFC0000000
7FFC0003FFFFFFFC00
FFFC0003FFFFFFFC00
FFF80003FFFFFFFC00
FFF80003FFFFFFFC00
FFF80003FFFFFFFC00
FFF80003FFFFFFFC00
FFF80003FFFFFFFC00
FFF80003FFFFFFFC00
FFF80003FFFFFFFC00
FFF80003FFFFFFFC00
FFFC0003FFC0000000
7FFC0003FFC0000000
7FFE0003FFC0000000
7FFE0003FFC0000000
3FFF0003FFC0000000
3FFF8003FFC0000000
1FFFE003FFC0000000
1FFFFC03FFC0000000
0FFFFFFFFFFFFFFF80
07FFFFFFFFFFFFFF80
07FFFFFFFFFFFFFF80
03FFFFFFFFFFFFFF80
00FFFFFFFFFFFFFF80
007FFFFFFFFFFFFF80
001FFFFFFFFFFFFF80
0007FFFFFFFFFFFF80
0001FFFFFFFFFFFF80
00001FFFFFFFFFFF80
ENDCHAR
STARTCHAR C0141
ENCODING 141
SWIDTH 500 0
DWIDTH 32 0
BBX 1 1 0 -1
BITMAP
00
ENDCHAR
STARTCHAR C0142
ENCODING 142
SWIDTH 703 0
DWIDTH 45 0
BBX 39 58 3 0
BITMAP
01FE00FF80
00FF01FF00
00FFC3FE00
007FEFFC00
003FFFF800
001FFFF800
000FFFF000
000FFFE000
0007FFC000
0003FF8000
0001FF8000
0000000000
0000000000
FFFFFFFFFE
FFFFFFFFFE
FFFFFFFFFE
FFFFFFFFFE
FFFFFFFFFE
FFFFFFFFFE
FFFFFFFFFE
FFFFFFFFFE
FFFFFFFFFE
FFFFFFFFFE
000003FFFC
000007FFF8
00000FFFF0
00001FFFE0
00003FFFE0
00007FFFC0
0000FFFF80
0001FFFF00
0001FFFE00
0003FFFC00
0007FFF800
000FFFF000
001FFFF000
003FFFE000
007FFFC000
007FFF8000
00FFFF0000
01FFFE0000
03FFFC0000
07FFFC0000
0FFFF80000
1FFFF00000
3FFFE00000
3FFFC00000
7FFF800000
FFFFFFFFFE
FFFFFFFFFE
FFFFFFFFFE
FFFFFFFFFE
FFFFFFFFFE
FFFFFFFFFE
FFFFFFFFFE
FFFFFFFFFE
FFFFFFFFFE
FFFFFFFFFE
ENDCHAR
STARTCHAR C0143
ENCODING 143
SWIDTH 500 0
DWIDTH 32 0
BBX 1 1 0 -1
BITMAP
00
ENDCHAR
STARTCHAR C0144
ENCODING 144
SWIDTH 500 0
DWIDTH 32 0
BBX 1 1 0 -1
BITMAP
00
ENDCHAR
STARTCHAR C0145
ENCODING 145
SWIDTH 281 0
DWIDTH 18 0
BBX 14 23 2 22
BITMAP
0078
03FC
0FFC
1FFC
3FFC
3FF0
7FC0
7F80
FF00
FF00
FF00
FFF8
FFF8
FFF8
FFF8
FFF8
FFF8
FFF8
FFF8
FFF8
FFF8
FFF8
FFF8
ENDCHAR
STARTCHAR C0146
ENCODING 146
SWIDTH 281 0
DWIDTH 18 0
BBX 14 23 2 22
BITMAP
7FFC
7FFC
7FFC
7FFC
7FFC
7FFC
7FFC
7FFC
7FFC
7FFC
7FFC
7FFC
03FC
03FC
03FC
07F8
0FF8
1FF0
FFF0
FFE0
FFC0
FF00
7800
ENDCHAR
STARTCHAR C0147
ENCODING 147
SWIDTH 546 0
DWIDTH 35 0
BBX 31 23 2 22
BITMAP
0078003C
03FC01FE
0FFC07FE
1FFC0FFE
3FFC1FFE
3FE01FF0
7FC03FE0
7F803FC0
FF007F80
FF007F80
FF007F80
FFF87FFC
FFF87FFC
FFF87FFC
FFF87FFC
FFF87FFC
FFF87FFC
FFF87FFC
FFF87FFC
FFF87FFC
FFF87FFC
FFF87FFC
FFF87FFC
ENDCHAR
STARTCHAR C0148
ENCODING 148
SWIDTH 546 0
DWIDTH 35 0
BBX 31 23 2 22
BITMAP
7FFC3FFE
7FFC3FFE
7FFC3FFE
7FFC3FFE
7FFC3FFE
7FFC3FFE
7FFC3FFE
7FFC3FFE
7FFC3FFE
7FFC3FFE
7FFC3FFE
7FFC3FFE
03FC01FE
03FC01FE
03FC01FE
07F803FC
0FF807FC
1FF00FF8
FFF07FF8
FFE07FF0
FFC07FE0
FF003F80
78003C00
ENDCHAR
STARTCHAR C0149
ENCODING 149
SWIDTH 500 0
DWIDTH 32 0
BBX 22 21 5 12
BITMAP
00FC00
07FF80
0FFFC0
1FFFE0
3FFFF0
7FFFF8
7FFFF8
7FFFF8
FFFFFC
FFFFFC
FFFFFC
FFFFFC
FFFFFC
7FFFF8
7FFFF8
7FFFF8
3FFFF0
1FFFE0
0FFFC0
07FF80
00FC00
ENDCHAR
STARTCHAR C0150
ENCODING 150
SWIDTH 531 0
DWIDTH 34 0
BBX 28 10 3 15
BITMAP
FFFFFFF0
FFFFFFF0
FFFFFFF0
FFFFFFF0
FFFFFFF0
FFFFFFF0
FFFFFFF0
FFFFFFF0
FFFFFFF0
FFFFFFF0
ENDCHAR
STARTCHAR C0151
ENCODING 151
SWIDTH 890 0
DWIDTH 57 0
BBX 52 10 3 15
BITMAP
FFFFFFFFFFFFF0
FFFFFFFFFFFFF0
FFFFFFFFFFFFF0
FFFFFFFFFFFFF0
FFFFFFFFFFFFF0
FFFFFFFFFFFFF0
FFFFFFFFFFFFF0
FFFFFFFFFFFFF0
FFFFFFFFFFFFF0
FFFFFFFFFFFFF0
ENDCHAR
STARTCHAR C0152
ENCODING 152
SWIDTH 500 0
DWIDTH 32 0
BBX 28 12 2 37
BITMAP
00000700
03F007E0
0FFF0FF0
1FFFFFE0
1FFFFFE0
3FFFFFC0
3FFFFFC0
7FFFFF80
7FFFFF80
7F0FFF00
FE00FC00
0E000000
ENDCHAR
STARTCHAR C0153
ENCODING 153
SWIDTH 687 0
DWIDTH 44 0
BBX 41 20 1 25
BITMAP
FFFFC7E01F80
FFFFC7E03F80
FFFFC7F03F80
FFFFC7F07F80
FFFFC7F87F80
03F007F8FF80
03F007FDFF80
03F007FFFF80
03F007FFFF80
03F007DFEF80
03F007DFEF80
03F007CFCF80
03F007C78F80
03F007C78F80
03F007C30F80
03F007C30F80
03F007C00F80
03F007C00F80
03F007C00F80
03F007C00F80
ENDCHAR
STARTCHAR C0154
ENCODING 154
SWIDTH 515 0
DWIDTH 33 0
BBX 30 49 1 -1
BITMAP
3FE00FF8
0FF01FF0
0FFC3FE0
07FEFFC0
03FFFF80
01FFFF00
01FFFF00
00FFFE00
007FFC00
003FF800
001FF800
00000000
00000000
001FF000
00FFFF00
03FFFFC0
07FFFFF0
0FFFFFF8
1FFFFFF8
3FFFFFF0
3FFFFFF0
3FFFFFE0
7FF81FE0
7FF003C0
7FF000C0
7FFC0000
7FFF8000
3FFFF000
3FFFFE00
1FFFFF80
0FFFFFE0
07FFFFF0
03FFFFF8
00FFFFF8
001FFFFC
0001FFFC
08003FFC
1E001FFC
1F801FFC
3FF03FFC
3FFFFFFC
7FFFFFFC
FFFFFFF8
FFFFFFF8
7FFFFFF0
1FFFFFE0
0FFFFFC0
01FFFF00
001FF800
ENDCHAR
STARTCHAR C0155
ENCODING 155
SWIDTH 359 0
DWIDTH 23 0
BBX 19 30 2 2
BITMAP
008000
03C000
0FE000
3FE000
FFF000
7FF800
3FFC00
3FFC00
1FFE00
0FFF00
07FF80
03FF80
03FFC0
01FFE0
00FFE0
00FFE0
01FFE0
03FFC0
03FF80
07FF80
0FFF00
1FFE00
3FFC00
3FFC00
7FF800
FFF000
7FE000
1FE000
03C000
008000
ENDCHAR
STARTCHAR C0156
ENCODING 156
SWIDTH 1015 0
DWIDTH 65 0
BBX 61 36 2 -1
BITMAP
0003FE0000FF0000
001FFFC007FFE000
007FFFF01FFFF800
00FFFFFC7FFFFE00
03FFFFFEFFFFFF00
07FFFFFFFFFFFF80
0FFFFFFFFFFFFFC0
1FFFFFFFFFFFFFC0
1FFFFFFFFFFFFFE0
3FFFFFFFFFFFFFE0
3FFF03FFFF83FFF0
7FFE01FFFE00FFF0
7FFC00FFFE007FF0
7FF8007FFC007FF8
FFF8003FFC007FF8
FFF0003FFFFFFFF8
FFF0003FFFFFFFF8
FFF0003FFFFFFFF8
FFF0003FFFFFFFF8
FFF0003FFFFFFFF8
FFF0003FFFFFFFF8
FFF8003FFC000000
7FF8007FFC000800
7FFC00FFFE000C00
7FFE00FFFF001E00
3FFF83FFFFC0FF80
3FFFFFFFFFFFFFC0
1FFFFFFFFFFFFFE0
1FFFFFFFFFFFFFF0
0FFFFFFFFFFFFFE0
07FFFFFFFFFFFFC0
03FFFFFEFFFFFF80
01FFFFFC7FFFFF00
007FFFF01FFFFC00
001FFFC007FFF000
0003FE0000FF8000
ENDCHAR
STARTCHAR C0157
ENCODING 157
SWIDTH 500 0
DWIDTH 32 0
BBX 1 1 0 -1
BITMAP
00
ENDCHAR
STARTCHAR C0158
ENCODING 158
SWIDTH 562 0
DWIDTH 36 0
BBX 32 48 2 0
BITMAP
1FF007F8
0FF80FF0
07FC3FE0
03FF7FE0
01FFFFC0
01FFFF80
00FFFF00
007FFE00
003FFE00
003FFC00
001FF800
00000000
00000000
7FFFFFFF
7FFFFFFF
7FFFFFFF
7FFFFFFF
7FFFFFFF
7FFFFFFF
7FFFFFFF
7FFFFFFF
7FFFFFFF
7FFFFFFE
0000FFFC
0001FFF8
0003FFF0
0007FFE0
000FFFC0
001FFF80
003FFF00
007FFE00
00FFFC00
01FFF800
03FFF000
07FFE000
0FFFC000
1FFFC000
3FFF8000
7FFFFFFF
7FFFFFFF
FFFFFFFF
FFFFFFFF
FFFFFFFF
FFFFFFFF
FFFFFFFF
FFFFFFFF
FFFFFFFF
FFFFFFFF
ENDCHAR
STARTCHAR C0159
ENCODING 159
SWIDTH 718 0
DWIDTH 46 0
BBX 47 57 0 0
BITMAP
001FFC7FF000
001FFC7FF000
001FFC7FF000
001FFC7FF000
001FFC7FF000
001FFC7FF000
001FFC7FF000
001FFC7FF000
001FFC7FF000
001FFC7FF000
000000000000
000000000000
FFFC00007FFE
7FFE0000FFFC
7FFF0000FFFC
3FFF0001FFF8
1FFF8001FFF0
1FFF8003FFF0
0FFFC007FFE0
07FFC007FFC0
07FFE00FFFC0
03FFF00FFF80
03FFF01FFF80
01FFF83FFF00
00FFF83FFE00
00FFFC7FFE00
007FFE7FFC00
007FFEFFFC00
003FFFFFF800
001FFFFFF000
001FFFFFF000
000FFFFFE000
000FFFFFE000
0007FFFFC000
0003FFFF8000
0003FFFF8000
0001FFFF0000
0001FFFF0000
0000FFFE0000
00007FFC0000
00007FFC0000
00007FFC0000
00007FFC0000
00007FFC0000
00007FFC0000
00007FFC0000
00007FFC0000
00007FFC0000
00007FFC0000
00007FFC0000
00007FFC0000
00007FFC0000
00007FFC0000
00007FFC0000
00007FFC0000
00007FFC0000
00007FFC0000
ENDCHAR
STARTCHAR C0160
ENCODING 160
SWIDTH 281 0
DWIDTH 18 0
BBX 1 1 0 -1
BITMAP
00
ENDCHAR
STARTCHAR C0161
ENCODING 161
SWIDTH 328 0
DWIDTH 21 0
BBX 14 45 3 0
BITMAP
7FFC
7FFC
7FFC
7FFC
7FFC
7FFC
7FFC
7FFC
7FFC
7FFC
0000
0000
0000
0000
0000
0FE0
0FE0
0FE0
0FE0
1FE0
1FE0
1FF0
1FF0
1FF0
1FF0
1FF0
3FF0
3FF0
3FF8
3FF8
3FF8
3FF8
3FF8
7FF8
7FFC
7FFC
7FFC
7FFC
7FFC
FFFC
FFFC
FFFC
FFFC
FFFC
FFFC
ENDCHAR
STARTCHAR C0162
ENCODING 162
SWIDTH 578 0
DWIDTH 37 0
BBX 34 45 2 0
BITMAP
00001FC000
00001FC000
00001FC000
00003FC000
00007FC000
000FFF8000
003FFFF000
00FFFFF800
03FFFFFE00
07FFFFFF00
0FFFFFFF80
1FFFFFFF80
1FFFFFFF40
3FFFFFFE00
3FFE7FFC00
7FFC7EF000
7FF87E6000
7FF07E0000
FFF07C0000
FFE0FC0000
FFE0FC0000
FFE0FC0000
FFE0FC0000
FFE0F80000
FFE1F80000
FFE1F80000
7FF1F80000
7FF1F82000
7FF9F87000
3FFDF1FC00
3FFFF7FE00
1FFFFFFF00
1FFFFFFFC0
0FFFFFFF80
07FFFFFF00
03FFFFFE00
01FFFFFC00
007FFFF000
001FFFC000
000FFE0000
000FE00000
000FE00000
001FE00000
001FE00000
001FC00000
ENDCHAR
STARTCHAR C0163
ENCODING 163
SWIDTH 640 0
DWIDTH 41 0
BBX 36 46 3 0
BITMAP
0000FFE000
0007FFFC00
000FFFFF00
003FFFFF80
007FFFFFE0
00FFFFFFF0
00FFFFFFF0
01FFFFFFE0
01FFFFFFC0
03FFFFFF80
03FFF07F00
03FFC03E00
07FFC00C00
07FF800800
07FF800000
07FF800000
07FF800000
07FF800000
07FF800000
07FF800000
FFFFFFFE00
FFFFFFFE00
FFFFFFFE00
FFFFFFFE00
FFFFFFFE00
FFFFFFFE00
FFFFFFFE00
FFFFFFFE00
FFFFFFFE00
07FF800000
07FF800000
07FF800000
07FF800000
07FF800000
07FF800000
07FF800000
07FFFFFFF0
1FFFFFFFF0
FFFFFFFFF0
FFFFFFFFF0
FFFFFFFFF0
FFFFFFFFF0
FFFFFFFFF0
FFFFFFFFF0
FFFFFFFFF0
FFFFFFFFF0
ENDCHAR
STARTCHAR C0164
ENCODING 164
SWIDTH 687 0
DWIDTH 44 0
BBX 41 47 2 -1
BITMAP
00000FFC0000
00007FFF8000
0001FFFFE000
0003FFFFF800
0007FFFFFC00
001FFFFFFE00
001FFFFFFF00
003FFFFFFF00
007FFFFFFE00
00FFFFFFF800
00FFFE0FF000
01FFF803E000
01FFF001C000
01FFE0008000
03FFE0000000
03FFC0000000
FFFFFFF00000
FFFFFFF00000
FFFFFFF00000
FFFFFFF00000
FFFFFFF00000
FFFFFFF00000
07FF80000000
07FF80000000
07FF80000000
FFFFFFF00000
FFFFFFF00000
FFFFFFF00000
FFFFFFF00000
FFFFFFF00000
FFFFFFF00000
03FFC0000000
03FFE0000000
03FFE000C000
01FFF001E000
01FFF803F000
00FFFE0FF800
00FFFFFFFC00
007FFFFFFE00
007FFFFFFF00
003FFFFFFF80
001FFFFFFE00
000FFFFFFC00
0007FFFFF800
0001FFFFE000
00007FFF8000
00000FFC0000
ENDCHAR
STARTCHAR C0165
ENCODING 165
SWIDTH 703 0
DWIDTH 45 0
BBX 44 45 1 0
BITMAP
FFFC0003FFF0
7FFE0003FFE0
7FFE0007FFE0
3FFF000FFFC0
1FFF000FFF80
1FFF801FFF80
0FFF801FFF00
07FFC03FFE00
07FFE03FFE00
03FFE07FFC00
01FFF07FF800
01FFF0FFF800
00FFF9FFF000
007FF9FFE000
007FFFFFE000
003FFFFFC000
001FFFFF8000
001FFFFF8000
000FFFFF0000
0007FFFE0000
0FFFFFFFFF00
0FFFFFFFFF00
0FFFFFFFFF00
0FFFFFFFFF00
0FFFFFFFFF00
0FFFFFFFFF00
0FFFFFFFFF00
0FFFFFFFFF00
0000FFF00000
0000FFF00000
0000FFF00000
0FFFFFFFFF00
0FFFFFFFFF00
0FFFFFFFFF00
0FFFFFFFFF00
0FFFFFFFFF00
0FFFFFFFFF00
0FFFFFFFFF00
0FFFFFFFFF00
0000FFF00000
0000FFF00000
0000FFF00000
0000FFF00000
0000FFF00000
0000FFF00000
ENDCHAR
STARTCHAR C0166
ENCODING 166
SWIDTH 500 0
DWIDTH 32 0
BBX 1 1 0 -1
BITMAP
00
ENDCHAR
STARTCHAR C0167
ENCODING 167
SWIDTH 625 0
DWIDTH 40 0
BBX 34 47 3 -1
BITMAP
000FFE0000
007FFFC000
01FFFFF000
03FFFFFC00
07FFFFFF00
0FFFFFFF00
0FFFFFFE00
1FFFFFFC00
1FFC07FC00
1FFC01F800
1FFC007000
1FFE002000
1FFF800000
1FFFF80000
0FFFFF8000
0FFFFFF000
07FFFFFC00
0FFFFFFE00
1FFFFFFF00
3FFFFFFF80
7FC1FFFFC0
FF801FFFC0
FF8001FFC0
FF8000FFC0
FFE0007FC0
FFFC007FC0
FFFFC0FF80
7FFFFFFF00
3FFFFFFE00
1FFFFFFC00
0FFFFFF800
03FFFFFC00
007FFFFC00
000FFFFE00
00007FFE00
02001FFE00
03800FFE00
07E00FFE00
0FF80FFE00
0FFFFFFE00
1FFFFFFE00
3FFFFFFC00
3FFFFFF800
0FFFFFF000
03FFFFE000
00FFFF8000
001FFC0000
ENDCHAR
STARTCHAR C0168
ENCODING 168
SWIDTH 500 0
DWIDTH 32 0
BBX 24 10 4 37
BITMAP
FFE7FF
FFE7FF
FFE7FF
FFE7FF
FFE7FF
FFE7FF
FFE7FF
FFE7FF
FFE7FF
FFE7FF
ENDCHAR
STARTCHAR C0169
ENCODING 169
SWIDTH 828 0
DWIDTH 53 0
BBX 47 47 3 -1
BITMAP
00001FF00000
0001FFFF0000
0007FFFFC000
001FE00FF000
003F0001F800
00FC00007E00
01F000001F00
03E000000F80
0780000003C0
0700000001C0
0F00000001E0
1E000FF000F0
1C003FFC0070
3C00FFFF0078
3801FFFF8038
7803FFFFC03C
7007FFFF801C
7007F83F001C
700FF00E001C
E00FE004000E
E01FE000000E
E01FC000000E
E01FC000000E
E01FC000000E
E01FC000000E
E01FC000000E
E01FE000000E
E00FE004000E
700FF00E001C
700FF83F801C
7007FFFFC01C
7803FFFFE03C
3801FFFF8038
3800FFFF0078
1C007FFC0070
1E000FF000F0
0E00000001E0
0700000001C0
0780000003C0
03C000000F80
01F000001F00
00FC00007E00
003F0001F800
001FE00FF000
0007FFFFC000
0001FFFF0000
00001FF00000
ENDCHAR
STARTCHAR C0170
ENCODING 170
SWIDTH 390 0
DWIDTH 25 0
BBX 19 28 3 17
BITMAP
0FF800
3FFF00
3FFF80
3FFFC0
3FFFC0
181FE0
000FE0
000FE0
0FEFE0
3FFFE0
7FFFE0
FE0FE0
FC0FE0
FC0FE0
FE1FE0
FFFFE0
7FFFE0
3FEFE0
1FCFE0
000000
000000
000000
000000
FFFFE0
FFFFE0
FFFFE0
FFFFE0
FFFFE0
ENDCHAR
STARTCHAR C0171
ENCODING 171
SWIDTH 625 0
DWIDTH 40 0
BBX 36 30 2 2
BITMAP
0020001800
0078001E00
00FE003F80
01FF807FE0
01FFE0FFF0
03FFC0FFE0
07FF81FFE0
0FFF03FFC0
0FFF07FF80
1FFE07FF00
3FFC0FFF00
7FF81FFE00
7FF83FFC00
FFF07FF800
FFE07FF800
FFE0FFF800
FFF07FF800
7FF83FFC00
7FF81FFE00
3FFC0FFF00
1FFE07FF00
0FFF07FF80
0FFF03FFC0
07FF81FFE0
03FFC0FFF0
01FFE0FFF0
01FF807FE0
00FE003F80
0078001E00
0020001800
ENDCHAR
STARTCHAR C0172
ENCODING 172
SWIDTH 500 0
DWIDTH 32 0
BBX 1 1 0 -1
BITMAP
00
ENDCHAR
STARTCHAR C0173
ENCODING 173
SWIDTH 406 0
DWIDTH 26 0
BBX 21 10 3 15
BITMAP
FFFFF8
FFFFF8
FFFFF8
FFFFF8
FFFFF8
FFFFF8
FFFFF8
FFFFF8
FFFFF8
FFFFF8
ENDCHAR
STARTCHAR C0174
ENCODING 174
SWIDTH 828 0
DWIDTH 53 0
BBX 47 47 3 -1
BITMAP
00001FF00000
0001FFFF0000
0007FFFFC000
001FE00FF000
003F0001F800
00FC00007E00
01F000001F00
03E000000F80
0780000003C0
0700000001C0
0F00000001E0
1E07FFF800F0
1C07FFFE0070
3C07FFFF8078
3807FFFFC038
7807FFFFC03C
7007FFFFE01C
7007F01FE01C
7007F00FE01C
E007F00FE00E
E007F00FE00E
E007F00FE00E
E007F01FC00E
E007FFFFC00E
E007FFFF800E
E007FFFF000E
E007FFFE000E
E007FFFC000E
7007F0FE001C
7007F0FF001C
7007F07F801C
7807F03F803C
3807F03FC038
3807F01FE078
1C07F00FF070
1E00000000F0
0E00000001E0
0700000001C0
0780000003C0
03C000000F80
01F000001F00
00FC00007E00
003F0001F800
001FE00FF000
0007FFFFC000
0001FFFF0000
00001FF00000
ENDCHAR
STARTCHAR C0175
ENCODING 175
SWIDTH 500 0
DWIDTH 32 0
BBX 24 7 4 38
BITMAP
FFFFFF
FFFFFF
FFFFFF
FFFFFF
FFFFFF
FFFFFF
FFFFFF
ENDCHAR
STARTCHAR C0176
ENCODING 176
SWIDTH 468 0
DWIDTH 30 0
BBX 24 23 3 22
BITMAP
007E00
03FFC0
07FFE0
0FFFF0
1FFFF8
3FFFFC
7F81FE
7F00FE
FE007F
FC003F
FC003F
FC003F
FC003F
FC003F
FE007F
7F00FE
7F81FE
3FFFFC
3FFFFC
1FFFF8
07FFE0
03FFC0
007E00
ENDCHAR
STARTCHAR C0177
ENCODING 177
SWIDTH 625 0
DWIDTH 40 0
BBX 37 47 1 -1
BITMAP
0003FF8000
001FFFF000
00FFFFFC00
01FFFFFF00
07FFFFFF80
0FFFFFFFC0
1FFFFFFFC0
3FFFFFFFE0
3FFFFFFFE0
0FFFFFFFF0
07FE07FFF0
03F801FFF0
01F000FFF0
00E000FFF0
004000FFF0
000000FFF0
000001FFE0
000007FFE0
0007FFFFC0
0007FFFF80
0007FFFF00
0007FFFE00
0007FFFC00
0007FFFF00
0007FFFF80
0007FFFFC0
0007FFFFE0
0007FFFFF0
000003FFF0
000000FFF8
0000007FF8
0000007FF8
0080007FF8
03C0007FF8
07E000FFF8
0FF800FFF8
1FFE03FFF8
3FFFFFFFF0
7FFFFFFFF0
FFFFFFFFE0
7FFFFFFFE0
1FFFFFFFC0
0FFFFFFF80
03FFFFFF00
00FFFFFC00
003FFFF000
0003FF8000
ENDCHAR
STARTCHAR C0178
ENCODING 178
SWIDTH 500 0
DWIDTH 32 0
BBX 1 1 0 -1
BITMAP
00
ENDCHAR
STARTCHAR C0179
ENCODING 179
SWIDTH 500 0
DWIDTH 32 0
BBX 1 1 0 -1
BITMAP
00
ENDCHAR
STARTCHAR C0180
ENCODING 180
SWIDTH 500 0
DWIDTH 32 0
BBX 18 11 8 38
BITMAP
018000
03F000
03FE00
07FFC0
0FFF80
0FFF00
1FFE00
1FF800
3FF000
7FE000
FFC000
ENDCHAR
STARTCHAR C0181
ENCODING 181
SWIDTH 828 0
DWIDTH 53 0
BBX 53 52 2 -6
BITMAP
00001FF8000000
0001FFFF800000
0007FFFFE00000
001FFFFFF80000
003FFFFFFC0000
00FFFFFFFF0000
01FFFFFFFF8000
03FFFFFFFFC000
07FFFFFFFFE000
07FFFFFFFFE000
0FFFFFFFFFF000
1FFFF81FFFF800
1FFFE007FFF800
3FFF8001FFFC00
3FFF0000FFFC00
7FFE00007FFE00
7FFE00007FFE00
7FFC00003FFE00
7FFC00003FFE00
FFFC00003FFF00
FFF800001FFF00
FFF800001FFF00
FFF800001FFF00
FFF800001FFF00
FFF800001FFF00
FFF800001FFF00
FFF800001FFF00
FFFC00003FFF00
FFFC00003FFF00
7FFC00003FFE00
7FFE00007FFE00
7FFE00007FFE00
3FFF0000FFFC00
3FFF8001FFFC00
1FFFE007FFF800
1FFFF81FFFF800
0FFFFFFFFFF000
0FFFFFFFFFF000
07FFFFFFFFE000
03FFFFFFFFC000
01FFFFFFFFC000
00FFFFFFFFE000
003FFFFFFFF000
001FFFFFFFF800
0007FFFFFFFC00
0001FFFFFFFE00
00001FF9FFFF00
00000000FFFF80
000000007FFFC0
000000003FFFE0
000000001FFFF0
000000000FFFF8
ENDCHAR
STARTCHAR C0182
ENCODING 182
SWIDTH 593 0
DWIDTH 38 0
BBX 33 45 1 0
BITMAP
0007FFFF80
007FFFFF80
01FFFFFF80
03FFFFFF80
0FFFFFFF80
1FFFFFFF80
3FFFFFFF80
3FFFFFFF80
7FFFFFFF80
7FFFFFFF80
FFFFFFFF80
FFFFFFFF80
FFFFFFFF80
FFFFFFFF80
FFFFFFFF80
FFFFFFFF80
FFFFFFFF80
FFFFFFFF80
FFFFFFFF80
FFFFFFFF80
FFFFFFFF80
7FFFFFFF80
7FFFFFFF80
3FFFFFFF80
1FFFFFFF80
1FFFFFFF80
07FFFFFF80
03FFFFFF80
00FFFFFF80
003FFFFF80
0003FFFF80
00000FFF80
00000FFF80
00000FFF80
00000FFF80
00000FFF80
00000FFF80
00000FFF80
00000FFF80
00000FFF80
00000FFF80
00000FFF80
00000FFF80
00000FFF80
00000FFF80
ENDCHAR
STARTCHAR C0183
ENCODING 183
SWIDTH 281 0
DWIDTH 18 0
BBX 13 12 3 14
BITMAP
FFF8
FFF8
FFF8
FFF8
FFF8
FFF8
FFF8
FFF8
FFF8
FFF8
FFF8
FFF8
ENDCHAR
STARTCHAR C0184
ENCODING 184
SWIDTH 500 0
DWIDTH 32 0
BBX 14 12 7 -11
BITMAP
07FC
07F8
0FF8
1FF8
1FF0
3FF0
7FF0
FFE0
7FE0
0FE0
03C0
00C0
ENDCHAR
STARTCHAR C0185
ENCODING 185
SWIDTH 500 0
DWIDTH 32 0
BBX 1 1 0 -1
BITMAP
00
ENDCHAR
STARTCHAR C0186
ENCODING 186
SWIDTH 390 0
DWIDTH 25 0
BBX 21 28 2 17
BITMAP
01FC00
07FF00
1FFFC0
3FFFE0
3FFFE0
7FFFF0
7F8FF0
FF07F8
FE03F8
FE03F8
FE03F8
FE03F8
FF07F8
7F8FF0
7FFFF0
3FFFE0
3FFFE0
1FFFC0
07FF00
01FC00
000000
000000
000000
7FFFF0
7FFFF0
7FFFF0
7FFFF0
7FFFF0
ENDCHAR
STARTCHAR C0187
ENCODING 187
SWIDTH 625 0
DWIDTH 40 0
BBX 36 30 2 2
BITMAP
0080006000
03C001E000
0FE007F000
3FE01FF800
FFF03FFC00
7FF83FFC00
3FFC1FFE00
3FFC0FFF00
1FFE07FF80
0FFF03FF80
07FF83FFC0
03FF81FFE0
03FFC0FFF0
01FFE07FF0
00FFF07FF0
00FFF07FF0
01FFE07FF0
03FFC0FFF0
03FF81FFE0
07FF83FFC0
0FFF03FF80
1FFE07FF80
3FFC0FFF00
3FFC1FFE00
7FF81FFC00
FFF03FFC00
7FE01FF800
1FE007F000
03C001E000
0080006000
ENDCHAR
STARTCHAR C0188
ENCODING 188
SWIDTH 500 0
DWIDTH 32 0
BBX 1 1 0 -1
BITMAP
00
ENDCHAR
STARTCHAR C0189
ENCODING 189
SWIDTH 500 0
DWIDTH 32 0
BBX 1 1 0 -1
BITMAP
00
ENDCHAR
STARTCHAR C0190
ENCODING 190
SWIDTH 500 0
DWIDTH 32 0
BBX 1 1 0 -1
BITMAP
00
ENDCHAR
STARTCHAR C0191
ENCODING 191
SWIDTH 546 0
DWIDTH 35 0
BBX 33 46 1 -1
BITMAP
001FFF0000
001FFF0000
001FFF0000
001FFF0000
001FFF0000
001FFF0000
001FFF0000
001FFF0000
001FFF0000
001FFF0000
0000000000
0000000000
0000000000
0000000000
0000000000
0000000000
0007F80000
0007F80000
0007F80000
0007FC0000
001FFC0000
00FFFC0000
03FFFC0000
07FFFC0000
1FFFFC0000
1FFFFC0000
3FFFFE0000
7FFFF00000
7FFF000000
FFFC000000
FFF8000000
FFF0000000
FFF0006000
FFF000F000
FFF803F000
FFFC0FF800
FFFFFFFC00
7FFFFFFE00
7FFFFFFF00
3FFFFFFF00
3FFFFFFF80
1FFFFFFE00
0FFFFFF800
03FFFFE000
00FFFF8000
001FFC0000
ENDCHAR
STARTCHAR C0192
ENCODING 192
SWIDTH 796 0
DWIDTH 51 0
BBX 51 60 0 0
BITMAP
00000300000000
00001F80000000
0000FF80000000
0007FFC0000000
0007FFC0000000
0001FFE0000000
0000FFE0000000
00007FF0000000
00003FF8000000
00001FF8000000
00000FFC000000
000007FC000000
00000002000000
00000000000000
00000000000000
00001FFF000000
00001FFF000000
00003FFF000000
00003FFF800000
00003FFF800000
00007FFFC00000
00007FFFC00000
0000FFFFE00000
0000FFFFE00000
0001FFFFE00000
0001FFFFF00000
0001FFFFF00000
0003FFFFF80000
0003FFFFF80000
0007FFFFFC0000
0007FFBFFC0000
000FFFBFFC0000
000FFF1FFE0000
000FFF1FFE0000
001FFE1FFF0000
001FFE0FFF0000
003FFE0FFF8000
003FFC0FFF8000
007FFC07FF8000
007FF807FFC000
007FF803FFC000
00FFF803FFE000
00FFFFFFFFE000
01FFFFFFFFF000
01FFFFFFFFF000
01FFFFFFFFF000
03FFFFFFFFF800
03FFFFFFFFF800
07FFFFFFFFFC00
07FFFFFFFFFC00
0FFFFFFFFFFC00
0FFFFFFFFFFE00
0FFF00003FFE00
1FFF00001FFF00
1FFF00001FFF00
3FFE00001FFF80
3FFE00000FFF80
7FFC00000FFF80
7FFC000007FFC0
FFFC000007FFE0
ENDCHAR
STARTCHAR C0193
ENCODING 193
SWIDTH 796 0
DWIDTH 51 0
BBX 51 60 0 0
BITMAP
00000018000000
0000003F000000
0000003FE00000
0000007FFC0000
0000007FF80000
000000FFF00000
000001FFE00000
000001FFC00000
000003FF800000
000003FF000000
000007FE000000
000007FC000000
00000800000000
00000000000000
00000000000000
00001FFF000000
00001FFF000000
00003FFF000000
00003FFF800000
00003FFF800000
00007FFFC00000
00007FFFC00000
0000FFFFE00000
0000FFFFE00000
0001FFFFE00000
0001FFFFF00000
0001FFFFF00000
0003FFFFF80000
0003FFFFF80000
0007FFFFFC0000
0007FFBFFC0000
000FFFBFFC0000
000FFF1FFE0000
000FFF1FFE0000
001FFE1FFF0000
001FFE0FFF0000
003FFE0FFF8000
003FFC0FFF8000
007FFC07FF8000
007FF807FFC000
007FF803FFC000
00FFF803FFE000
00FFFFFFFFE000
01FFFFFFFFF000
01FFFFFFFFF000
01FFFFFFFFF000
03FFFFFFFFF800
03FFFFFFFFF800
07FFFFFFFFFC00
07FFFFFFFFFC00
0FFFFFFFFFFC00
0FFFFFFFFFFE00
0FFF00003FFE00
1FFF00001FFF00
1FFF00001FFF00
3FFE00001FFF80
3FFE00000FFF80
7FFC00000FFF80
7FFC000007FFC0
FFFC000007FFE0
ENDCHAR
STARTCHAR C0194
ENCODING 194
SWIDTH 796 0
DWIDTH 51 0
BBX 51 58 0 0
BITMAP
00000FFE000000
00001FFF000000
00001FFF000000
00003FFF800000
00007FFFC00000
0000FFFFE00000
0001FFFFE00000
0001FF1FF00000
0003FE0FF80000
0007F807FC0000
000FF001FE0000
00000000000000
00000000000000
00001FFF000000
00001FFF000000
00003FFF000000
00003FFF800000
00003FFF800000
00007FFFC00000
00007FFFC00000
0000FFFFE00000
0000FFFFE00000
0001FFFFE00000
0001FFFFF00000
0001FFFFF00000
0003FFFFF80000
0003FFFFF80000
0007FFFFFC0000
0007FFBFFC0000
000FFF3FFC0000
000FFF1FFE0000
000FFF1FFE0000
001FFE1FFF0000
001FFE0FFF0000
003FFC0FFF8000
003FFC07FF8000
007FFC07FF8000
007FF807FFC000
007FF803FFC000
00FFF003FFE000
00FFFFFFFFE000
01FFFFFFFFF000
01FFFFFFFFF000
01FFFFFFFFF000
03FFFFFFFFF800
03FFFFFFFFF800
07FFFFFFFFFC00
07FFFFFFFFFC00
0FFFFFFFFFFC00
0FFFFFFFFFFE00
0FFF00003FFE00
1FFF00001FFF00
1FFF00001FFF00
3FFE00001FFF80
3FFE00000FFF80
7FFC00000FFF80
7FFC000007FFC0
FFFC000007FFE0
ENDCHAR
STARTCHAR C0195
ENCODING 195
SWIDTH 796 0
DWIDTH 51 0
BBX 51 59 0 0
BITMAP
00007F00600000
0000FFE0FE0000
0001FFFFFE0000
0003FFFFFC0000
0007FFFFFC0000
0007FFFFFC0000
0007FFFFF80000
000FFFFFF00000
000FE0FFF00000
0007E01FC00000
0000C000000000
00000000000000
00000000000000
00000000000000
00001FFF000000
00001FFF000000
00003FFF000000
00003FFF800000
00003FFF800000
00007FFFC00000
00007FFFC00000
0000FFFFE00000
0000FFFFE00000
0001FFFFE00000
0001FFFFF00000
0001FFFFF00000
0003FFFFF80000
0003FFFFF80000
0007FFFFFC0000
0007FFBFFC0000
000FFF3FFC0000
000FFF1FFE0000
000FFF1FFE0000
001FFE1FFF0000
001FFE0FFF0000
003FFC0FFF8000
003FFC07FF8000
007FFC07FF8000
007FF807FFC000
007FF803FFC000
00FFF003FFE000
00FFFFFFFFE000
01FFFFFFFFF000
01FFFFFFFFF000
01FFFFFFFFF000
03FFFFFFFFF800
03FFFFFFFFF800
07FFFFFFFFFC00
07FFFFFFFFFC00
0FFFFFFFFFFC00
0FFFFFFFFFFE00
0FFF00003FFE00
1FFF00001FFF00
1FFF00001FFF00
3FFE00001FFF80
3FFE00000FFF80
7FFC00000FFF80
7FFC000007FFC0
FFFC000007FFE0
ENDCHAR
STARTCHAR C0196
ENCODING 196
SWIDTH 796 0
DWIDTH 51 0
BBX 50 57 0 0
BITMAP
0007FF1FFC0000
0007FF1FFC0000
0007FF1FFC0000
0007FF1FFC0000
0007FF1FFC0000
0007FF1FFC0000
0007FF1FFC0000
0007FF1FFC0000
0007FF1FFC0000
0007FF1FFC0000
00000000000000
00000000000000
00001FFE000000
00003FFF000000
00003FFF000000
00003FFF000000
00007FFF800000
00007FFF800000
0000FFFFC00000
0000FFFFC00000
0001FFFFE00000
0001FFFFE00000
0001FFFFE00000
0003FFFFF00000
0003FFFFF00000
0007FFFFF80000
0007FFFFF80000
000FFFBFFC0000
000FFF3FFC0000
000FFF1FFC0000
001FFF1FFE0000
001FFE1FFE0000
003FFE0FFF0000
003FFE0FFF0000
007FFC07FF8000
007FFC07FF8000
007FF807FF8000
00FFF803FFC000
00FFF803FFC000
01FFFFFFFFE000
01FFFFFFFFE000
01FFFFFFFFE000
03FFFFFFFFF000
03FFFFFFFFF000
07FFFFFFFFF800
07FFFFFFFFF800
0FFFFFFFFFFC00
0FFFFFFFFFFC00
0FFFFFFFFFFC00
1FFF00003FFE00
1FFF00003FFE00
3FFE00001FFF00
3FFE00001FFF00
7FFC00001FFF80
7FFC00000FFF80
7FFC00000FFF80
FFF8000007FFC0
ENDCHAR
STARTCHAR C0197
ENCODING 197
SWIDTH 796 0
DWIDTH 51 0
BBX 50 57 1 0
BITMAP
000003E0000000
00000FF8000000
00003FFE000000
00003FFE000000
00007C1F000000
0000F80F800000
0000F007800000
0000F007800000
0000F007800000
0000F007800000
0000F80F800000
00007C1F000000
00003F7E000000
00003FFE000000
00007FFF000000
00007FFF000000
00007FFF000000
0000FFFF800000
0000FFFF800000
0001FFFFC00000
0001FFFFC00000
0003FFFFE00000
0003FFFFE00000
0003FFFFE00000
0007FFFFF00000
0007FFFFF00000
000FFF7FF80000
000FFF7FF80000
000FFF7FFC0000
001FFE3FFC0000
001FFE3FFC0000
003FFC1FFE0000
003FFC1FFE0000
003FF81FFF0000
007FF80FFF0000
007FF80FFF0000
00FFF007FF8000
00FFF007FF8000
01FFE007FFC000
01FFFFFFFFC000
01FFFFFFFFE000
03FFFFFFFFE000
03FFFFFFFFE000
07FFFFFFFFF000
07FFFFFFFFF000
07FFFFFFFFF800
0FFFFFFFFFF800
0FFFFFFFFFFC00
1FFFFFFFFFFC00
1FFF00007FFC00
3FFE00003FFE00
3FFE00003FFE00
3FFE00003FFF00
7FFC00001FFF00
7FFC00001FFF80
FFF800000FFF80
FFF800000FFFC0
ENDCHAR
STARTCHAR C0198
ENCODING 198
SWIDTH 1062 0
DWIDTH 68 0
BBX 66 45 0 0
BITMAP
000001FFFFFFFFFF80
000001FFFFFFFFFF80
000003FFFFFFFFFF80
000003FFFFFFFFFF80
000007FFFFFFFFFF80
000007FFFFFFFFFF80
00000FFFFFFFFFFF80
00000FFFFFFFFFFF80
00001FFFFFFFFFFF80
00001FFFFFFFFFFF80
00003FFDFFE1FFFF80
00007FF9FFE0000000
00007FF9FFE0000000
0000FFF1FFE0000000
0000FFF1FFE0000000
0001FFE1FFE0000000
0001FFE1FFE0000000
0003FFC1FFFFFFFE00
0003FFC1FFFFFFFE00
0007FF81FFFFFFFE00
0007FF81FFFFFFFE00
000FFF01FFFFFFFE00
000FFF01FFFFFFFE00
001FFE01FFFFFFFE00
001FFE01FFFFFFFE00
003FFC01FFFFFFFE00
003FFC01FFFFFFFE00
007FFFFFFFE0000000
007FFFFFFFE0000000
00FFFFFFFFE0000000
01FFFFFFFFE0000000
01FFFFFFFFE0000000
03FFFFFFFFE0000000
03FFFFFFFFE0000000
07FFFFFFFFE0000000
07FFFFFFFFFFFFFFC0
0FFFFFFFFFFFFFFFC0
0FFF0001FFFFFFFFC0
1FFF0001FFFFFFFFC0
1FFE0001FFFFFFFFC0
3FFE0001FFFFFFFFC0
3FFC0001FFFFFFFFC0
7FFC0001FFFFFFFFC0
7FF80001FFFFFFFFC0
FFF80001FFFFFFFFC0
ENDCHAR
STARTCHAR C0199
ENCODING 199
SWIDTH 734 0
DWIDTH 47 0
BBX 43 57 2 -11
BITMAP
00001FF80000
0001FFFF8000
0007FFFFE000
001FFFFFF800
007FFFFFFC00
00FFFFFFFF00
01FFFFFFFF80
03FFFFFFFFC0
07FFFFFFFFC0
07FFFFFFFFE0
0FFFFFFFFF80
1FFFF01FFF00
1FFFC007FC00
3FFF8001F800
3FFF0000F000
7FFE00004000
7FFE00000000
7FFC00000000
FFFC00000000
FFF800000000
FFF800000000
FFF800000000
FFF800000000
FFF800000000
FFF800000000
FFF800000000
FFF800000000
FFFC00000000
FFFC00000000
7FFC00000000
7FFE00006000
7FFF0000F000
3FFF8001FC00
3FFFC003FE00
1FFFF00FFF00
1FFFFFFFFFC0
0FFFFFFFFFE0
0FFFFFFFFFC0
07FFFFFFFFC0
03FFFFFFFF80
01FFFFFFFF00
00FFFFFFFE00
003FFFFFF800
001FFFFFF000
0007FFFFC000
0000FFFE0000
00007FC00000
0000FF800000
0000FF800000
0001FF800000
0003FF000000
0003FF000000
0007FF000000
000BFE000000
0000FE000000
00001E000000
000004000000
ENDCHAR
STARTCHAR C0200
ENCODING 200
SWIDTH 671 0
DWIDTH 43 0
BBX 36 60 4 0
BITMAP
0000C00000
0007E00000
003FE00000
01FFF00000
03FFF00000
007FF80000
003FF80000
001FFC0000
000FFE0000
0007FE0000
0003FF0000
0001FF0000
0000000000
0000000000
0000000000
FFFFFFFFF0
FFFFFFFFF0
FFFFFFFFF0
FFFFFFFFF0
FFFFFFFFF0
FFFFFFFFF0
FFFFFFFFF0
FFFFFFFFF0
FFFFFFFFF0
FFFFFFFFF0
FFF0000000
FFF0000000
FFF0000000
FFF0000000
FFF0000000
FFF0000000
FFF0000000
FFFFFFFFC0
FFFFFFFFC0
FFFFFFFFC0
FFFFFFFFC0
FFFFFFFFC0
FFFFFFFFC0
FFFFFFFFC0
FFFFFFFFC0
FFFFFFFFC0
FFFFFFFFC0
FFFFFE0000
FFF0000000
FFF0000000
FFF0000000
FFF0000000
FFF0000000
FFF0000000
FFF0000000
FFFFFFFFF0
FFFFFFFFF0
FFFFFFFFF0
FFFFFFFFF0
FFFFFFFFF0
FFFFFFFFF0
FFFFFFFFF0
FFFFFFFFF0
FFFFFFFFF0
FFFFFFFFF0
ENDCHAR
STARTCHAR C0201
ENCODING 201
SWIDTH 671 0
DWIDTH 43 0
BBX 36 60 4 0
BITMAP
0000300000
00003E0000
00007FC000
00007FF800
0000FFFC00
0001FFF000
0001FFE000
0003FFC000
0003FF0000
0007FE0000
0007FC0000
000FF80000
0000000000
0000000000
0000000000
FFFFFFFFF0
FFFFFFFFF0
FFFFFFFFF0
FFFFFFFFF0
FFFFFFFFF0
FFFFFFFFF0
FFFFFFFFF0
FFFFFFFFF0
FFFFFFFFF0
FFFFFFFFF0
FFF0000000
FFF0000000
FFF0000000
FFF0000000
FFF0000000
FFF0000000
FFF0000000
FFFFFFFFC0
FFFFFFFFC0
FFFFFFFFC0
FFFFFFFFC0
FFFFFFFFC0
FFFFFFFFC0
FFFFFFFFC0
FFFFFFFFC0
FFFFFFFFC0
FFFFFFFFC0
FFFFFE0000
FFF0000000
FFF0000000
FFF0000000
FFF0000000
FFF0000000
FFF0000000
FFF0000000
FFFFFFFFF0
FFFFFFFFF0
FFFFFFFFF0
FFFFFFFFF0
FFFFFFFFF0
FFFFFFFFF0
FFFFFFFFF0
FFFFFFFFF0
FFFFFFFFF0
FFFFFFFFF0
ENDCHAR
STARTCHAR C0202
ENCODING 202
SWIDTH 671 0
DWIDTH 43 0
BBX 36 58 4 0
BITMAP
0007FE0000
000FFF0000
001FFF8000
003FFFC000
003FFFC000
007FFFE000
00FFFFF000
01FF9FF800
03FE07FC00
03FC03FC00
07F801FE00
0000000000
0000000000
FFFFFFFFF0
FFFFFFFFF0
FFFFFFFFF0
FFFFFFFFF0
FFFFFFFFF0
FFFFFFFFF0
FFFFFFFFF0
FFFFFFFFF0
FFFFFFFFF0
FFFFFFFFF0
FFF0000000
FFF0000000
FFF0000000
FFF0000000
FFF0000000
FFF0000000
FFF0000000
FFFFFFFFC0
FFFFFFFFC0
FFFFFFFFC0
FFFFFFFFC0
FFFFFFFFC0
FFFFFFFFC0
FFFFFFFFC0
FFFFFFFFC0
FFFFFFFFC0
FFFFFFFFC0
FFF0000000
FFF0000000
FFF0000000
FFF0000000
FFF0000000
FFF0000000
FFF0000000
FFF0000000
FFFFFFFFF0
FFFFFFFFF0
FFFFFFFFF0
FFFFFFFFF0
FFFFFFFFF0
FFFFFFFFF0
FFFFFFFFF0
FFFFFFFFF0
FFFFFFFFF0
FFFFFFFFF0
ENDCHAR
STARTCHAR C0203
ENCODING 203
SWIDTH 671 0
DWIDTH 43 0
BBX 36 57 4 0
BITMAP
03FF8FFE00
03FF8FFE00
03FF8FFE00
03FF8FFE00
03FF8FFE00
03FF8FFE00
03FF8FFE00
03FF8FFE00
03FF8FFE00
03FF8FFE00
0000000000
0000000000
FFFFFFFFF0
FFFFFFFFF0
FFFFFFFFF0
FFFFFFFFF0
FFFFFFFFF0
FFFFFFFFF0
FFFFFFFFF0
FFFFFFFFF0
FFFFFFFFF0
FFFFFFFFF0
FFF0000000
FFF0000000
FFF0000000
FFF0000000
FFF0000000
FFF0000000
FFF0000000
FFFFFFFFC0
FFFFFFFFC0
FFFFFFFFC0
FFFFFFFFC0
FFFFFFFFC0
FFFFFFFFC0
FFFFFFFFC0
FFFFFFFFC0
FFFFFFFFC0
FFFFFFFFC0
FFF0000000
FFF0000000
FFF0000000
FFF0000000
FFF0000000
FFF0000000
FFF0000000
FFF0000000
FFFFFFFFF0
FFFFFFFFF0
FFFFFFFFF0
FFFFFFFFF0
FFFFFFFFF0
FFFFFFFFF0
FFFFFFFFF0
FFFFFFFFF0
FFFFFFFFF0
FFFFFFFFF0
ENDCHAR
STARTCHAR C0204
ENCODING 204
SWIDTH 328 0
DWIDTH 21 0
BBX 19 60 -2 0
BITMAP
006000
03F000
1FF000
FFF800
7FF800
3FFC00
1FFE00
0FFE00
07FF00
03FF00
01FF80
00FF80
000040
000000
000000
03FFE0
03FFE0
03FFE0
03FFE0
03FFE0
03FFE0
03FFE0
03FFE0
03FFE0
03FFE0
03FFE0
03FFE0
03FFE0
03FFE0
03FFE0
03FFE0
03FFE0
03FFE0
03FFE0
03FFE0
03FFE0
03FFE0
03FFE0
03FFE0
03FFE0
03FFE0
03FFE0
03FFE0
03FFE0
03FFE0
03FFE0
03FFE0
03FFE0
03FFE0
03FFE0
03FFE0
03FFE0
03FFE0
03FFE0
03FFE0
03FFE0
03FFE0
03FFE0
03FFE0
03FFE0
ENDCHAR
STARTCHAR C0205
ENCODING 205
SWIDTH 328 0
DWIDTH 21 0
BBX 19 60 4 0
BITMAP
00C000
01F800
01FF00
03FFE0
03FFC0
07FF80
0FFF00
0FFE00
1FFC00
1FF800
3FF000
3FE000
400000
000000
000000
FFF800
FFF800
FFF800
FFF800
FFF800
FFF800
FFF800
FFF800
FFF800
FFF800
FFF800
FFF800
FFF800
FFF800
FFF800
FFF800
FFF800
FFF800
FFF800
FFF800
FFF800
FFF800
FFF800
FFF800
FFF800
FFF800
FFF800
FFF800
FFF800
FFF800
FFF800
FFF800
FFF800
FFF800
FFF800
FFF800
FFF800
FFF800
FFF800
FFF800
FFF800
FFF800
FFF800
FFF800
FFF800
ENDCHAR
STARTCHAR C0206
ENCODING 206
SWIDTH 328 0
DWIDTH 21 0
BBX 27 58 -3 0
BITMAP
00FFE000
01FFF000
01FFF000
03FFF800
07FFFC00
0FFFFE00
1FFFFE00
1FF1FF00
3FE0FF80
7F807FC0
FF001FE0
00000000
00000000
01FFF000
01FFF000
01FFF000
01FFF000
01FFF000
01FFF000
01FFF000
01FFF000
01FFF000
01FFF000
01FFF000
01FFF000
01FFF000
01FFF000
01FFF000
01FFF000
01FFF000
01FFF000
01FFF000
01FFF000
01FFF000
01FFF000
01FFF000
01FFF000
01FFF000
01FFF000
01FFF000
01FFF000
01FFF000
01FFF000
01FFF000
01FFF000
01FFF000
01FFF000
01FFF000
01FFF000
01FFF000
01FFF000
01FFF000
01FFF000
01FFF000
01FFF000
01FFF000
01FFF000
01FFF000
ENDCHAR
STARTCHAR C0207
ENCODING 207
SWIDTH 328 0
DWIDTH 21 0
BBX 25 57 -2 0
BITMAP
FFE3FF80
FFE3FF80
FFE3FF80
FFE3FF80
FFE3FF80
FFE3FF80
FFE3FF80
FFE3FF80
FFE3FF80
FFE3FF80
00000000
00000000
03FFE000
03FFE000
03FFE000
03FFE000
03FFE000
03FFE000
03FFE000
03FFE000
03FFE000
03FFE000
03FFE000
03FFE000
03FFE000
03FFE000
03FFE000
03FFE000
03FFE000
03FFE000
03FFE000
03FFE000
03FFE000
03FFE000
03FFE000
03FFE000
03FFE000
03FFE000
03FFE000
03FFE000
03FFE000
03FFE000
03FFE000
03FFE000
03FFE000
03FFE000
03FFE000
03FFE000
03FFE000
03FFE000
03FFE000
03FFE000
03FFE000
03FFE000
03FFE000
03FFE000
03FFE000
ENDCHAR
STARTCHAR C0208
ENCODING 208
SWIDTH 812 0
DWIDTH 52 0
BBX 47 45 2 0
BITMAP
07FFFFF00000
07FFFFFF0000
07FFFFFFE000
07FFFFFFF800
07FFFFFFFC00
07FFFFFFFF00
07FFFFFFFF80
07FFFFFFFFC0
07FFFFFFFFE0
07FFFFFFFFE0
07FF803FFFF0
07FF8007FFF8
07FF8003FFF8
07FF8001FFF8
07FF8000FFFC
07FF8000FFFC
07FF80007FFC
FFFFFF807FFE
FFFFFF803FFE
FFFFFF803FFE
FFFFFF803FFE
FFFFFF803FFE
FFFFFF803FFE
FFFFFF803FFE
FFFFFF803FFE
FFFFFF803FFE
FFFFFF803FFE
07FF80007FFC
07FF80007FFC
07FF8000FFFC
07FF8000FFFC
07FF8001FFF8
07FF8003FFF8
07FF8007FFF0
07FF803FFFF0
07FFFFFFFFE0
07FFFFFFFFC0
07FFFFFFFF80
07FFFFFFFF00
07FFFFFFFE00
07FFFFFFFC00
07FFFFFFF000
07FFFFFFC000
07FFFFFF0000
07FFFFF00000
ENDCHAR
STARTCHAR C0209
ENCODING 209
SWIDTH 781 0
DWIDTH 50 0
BBX 42 59 4 0
BITMAP
0007E00E0000
001FFE0FE000
003FFFFFC000
003FFFFFC000
007FFFFFC000
007FFFFF8000
00FFFFFF8000
00FFFFFF0000
00FE1FFE0000
00FC01FC0000
000C00000000
000000000000
000000000000
000000000000
FFF00003FFC0
FFF80003FFC0
FFFC0003FFC0
FFFC0003FFC0
FFFE0003FFC0
FFFF0003FFC0
FFFF8003FFC0
FFFF8003FFC0
FFFFC003FFC0
FFFFE003FFC0
FFFFF003FFC0
FFFFF003FFC0
FFFFF803FFC0
FFFFFC03FFC0
FFFFFE03FFC0
FFFFFF03FFC0
FFFFFF03FFC0
FFFFFF83FFC0
FFFFFFC3FFC0
FFFFFFE3FFC0
FFFFFFE3FFC0
FFF7FFF3FFC0
FFF3FFFBFFC0
FFF3FFFFFFC0
FFF1FFFFFFC0
FFF0FFFFFFC0
FFF07FFFFFC0
FFF03FFFFFC0
FFF03FFFFFC0
FFF01FFFFFC0
FFF00FFFFFC0
FFF007FFFFC0
FFF007FFFFC0
FFF003FFFFC0
FFF001FFFFC0
FFF000FFFFC0
FFF0007FFFC0
FFF0007FFFC0
FFF0003FFFC0
FFF0001FFFC0
FFF0000FFFC0
FFF0000FFFC0
FFF00007FFC0
FFF00003FFC0
FFF00001FFC0
ENDCHAR
STARTCHAR C0210
ENCODING 210
SWIDTH 828 0
DWIDTH 53 0
BBX 48 61 2 -1
BITMAP
00000C000000
00007E000000
0003FE000000
001FFF000000
000FFF000000
0007FF800000
0003FF800000
0001FFC00000
0000FFE00000
00007FE00000
00003FF00000
00000FF00000
000000000000
000000000000
00001FF80000
0001FFFF8000
0007FFFFE000
001FFFFFF800
003FFFFFFC00
00FFFFFFFF00
01FFFFFFFF80
03FFFFFFFFC0
07FFFFFFFFE0
07FFFFFFFFE0
0FFFFFFFFFF0
1FFFF81FFFF8
1FFFE007FFF8
3FFF8001FFFC
3FFF0000FFFC
7FFE00007FFE
7FFE00007FFE
7FFC00003FFE
7FFC00003FFF
FFFC00003FFF
FFF800001FFF
FFF800001FFF
FFF800001FFF
FFF800001FFF
FFF800001FFF
FFF800001FFF
FFF800001FFF
FFFC00003FFF
FFFC00003FFE
7FFC00003FFE
7FFE00007FFE
7FFE00007FFE
3FFF0000FFFC
3FFF8001FFFC
1FFFE007FFF8
1FFFF81FFFF8
0FFFFFFFFFF0
07FFFFFFFFE0
07FFFFFFFFE0
03FFFFFFFFC0
01FFFFFFFF80
00FFFFFFFF00
003FFFFFFC00
001FFFFFF800
0007FFFFE000
0001FFFF8000
00001FF80000
ENDCHAR
STARTCHAR C0211
ENCODING 211
SWIDTH 828 0
DWIDTH 53 0
BBX 48 61 2 -1
BITMAP
000000300000
0000007E0000
0000007FC000
000000FFF800
000000FFF000
000001FFE000
000001FFC000
000003FF8000
000003FF0000
000007FE0000
00000FFC0000
00000FF80000
000000000000
000000000000
00001FF80000
0001FFFF8000
0007FFFFE000
001FFFFFF800
003FFFFFFC00
00FFFFFFFF00
01FFFFFFFF80
03FFFFFFFFC0
07FFFFFFFFE0
07FFFFFFFFE0
0FFFFFFFFFF0
1FFFF81FFFF8
1FFFE007FFF8
3FFF8001FFFC
3FFF0000FFFC
7FFE00007FFE
7FFE00007FFE
7FFC00003FFE
7FFC00003FFF
FFFC00003FFF
FFF800001FFF
FFF800001FFF
FFF800001FFF
FFF800001FFF
FFF800001FFF
FFF800001FFF
FFF800001FFF
FFFC00003FFF
FFFC00003FFE
7FFC00003FFE
7FFE00007FFE
7FFE00007FFE
3FFF0000FFFC
3FFF8001FFFC
1FFFE007FFF8
1FFFF81FFFF8
0FFFFFFFFFF0
07FFFFFFFFE0
07FFFFFFFFE0
03FFFFFFFFC0
01FFFFFFFF80
00FFFFFFFF00
003FFFFFFC00
001FFFFFF800
0007FFFFE000
0001FFFF8000
00001FF80000
ENDCHAR
STARTCHAR C0212
ENCODING 212
SWIDTH 828 0
DWIDTH 53 0
BBX 48 59 2 -1
BITMAP
00001FF80000
00003FFC0000
00007FFE0000
00007FFE0000
0000FFFF0000
0001FFFF8000
0003FFFFC000
0003FE7FC000
0007F83FE000
000FF00FF000
001FE007F800
000000000000
00001FF80000
0001FFFF8000
0007FFFFE000
001FFFFFF800
003FFFFFFC00
00FFFFFFFF00
01FFFFFFFF80
03FFFFFFFFC0
07FFFFFFFFE0
07FFFFFFFFE0
0FFFFFFFFFF0
1FFFF81FFFF8
1FFFE007FFF8
3FFF8001FFFC
3FFF0000FFFC
7FFE00007FFE
7FFE00007FFE
7FFC00003FFE
7FFC00003FFF
FFFC00003FFF
FFF800001FFF
FFF800001FFF
FFF800001FFF
FFF800001FFF
FFF800001FFF
FFF800001FFF
FFF800001FFF
FFFC00003FFF
FFFC00003FFE
7FFC00003FFE
7FFE00007FFE
7FFE00007FFE
3FFF0000FFFC
3FFF8001FFFC
1FFFE007FFF8
1FFFF81FFFF8
0FFFFFFFFFF0
07FFFFFFFFE0
07FFFFFFFFE0
03FFFFFFFFC0
01FFFFFFFF80
00FFFFFFFF00
003FFFFFFC00
001FFFFFF800
0007FFFFE000
0001FFFF8000
00001FF80000
ENDCHAR
STARTCHAR C0213
ENCODING 213
SWIDTH 828 0
DWIDTH 53 0
BBX 48 60 2 -1
BITMAP
0000FE00C000
0001FFC1FC00
0003FFFFFC00
0007FFFFFC00
0007FFFFF800
000FFFFFF800
000FFFFFF000
000FFFFFF000
001FC1FFE000
000FC03F8000
000180000000
000000000000
000000000000
00001FF80000
0001FFFF8000
0007FFFFE000
001FFFFFF800
003FFFFFFC00
00FFFFFFFF00
01FFFFFFFF80
03FFFFFFFFC0
07FFFFFFFFE0
07FFFFFFFFE0
0FFFFFFFFFF0
1FFFF81FFFF8
1FFFE007FFF8
3FFF8001FFFC
3FFF0000FFFC
7FFE00007FFE
7FFE00007FFE
7FFC00003FFE
7FFC00003FFF
FFFC00003FFF
FFF800001FFF
FFF800001FFF
FFF800001FFF
FFF800001FFF
FFF800001FFF
FFF800001FFF
FFF800001FFF
FFFC00003FFF
FFFC00003FFE
7FFC00003FFE
7FFE00007FFE
7FFE00007FFE
3FFF0000FFFC
3FFF8001FFFC
1FFFE007FFF8
1FFFF81FFFF8
0FFFFFFFFFF0
07FFFFFFFFE0
07FFFFFFFFE0
03FFFFFFFFC0
01FFFFFFFF80
00FFFFFFFF00
003FFFFFFC00
001FFFFFF800
0007FFFFE000
0001FFFF8000
00001FF80000
ENDCHAR
STARTCHAR C0214
ENCODING 214
SWIDTH 828 0
DWIDTH 53 0
BBX 49 58 2 -1
BITMAP
000FFE3FF80000
000FFE3FF80000
000FFE3FF80000
000FFE3FF80000
000FFE3FF80000
000FFE3FF80000
000FFE3FF80000
000FFE3FF80000
000FFE3FF80000
000FFE3FF80000
00000000000000
00001FFC000000
0000FFFF800000
0007FFFFF00000
001FFFFFFC0000
003FFFFFFE0000
007FFFFFFF8000
01FFFFFFFFC000
03FFFFFFFFE000
07FFFFFFFFF000
07FFFFFFFFF000
0FFFFFFFFFF800
1FFFF80FFFFC00
1FFFE003FFFC00
3FFF8001FFFE00
3FFF00007FFE00
7FFE00007FFF00
7FFE00003FFF00
7FFC00001FFF00
7FFC00001FFF80
FFFC00001FFF80
FFF800000FFF80
FFF800000FFF80
FFF800000FFF80
FFF800000FFF80
FFF800000FFF80
FFF800000FFF80
FFF800000FFF80
FFFC00001FFF80
7FFC00001FFF00
7FFC00001FFF00
7FFE00003FFF00
7FFF00003FFF00
3FFF00007FFE00
3FFFC000FFFE00
1FFFE003FFFC00
1FFFF80FFFFC00
0FFFFFFFFFF800
07FFFFFFFFF000
07FFFFFFFFF000
03FFFFFFFFE000
01FFFFFFFFC000
00FFFFFFFF0000
003FFFFFFE0000
001FFFFFFC0000
0007FFFFF00000
0000FFFF800000
00001FFC000000
ENDCHAR
STARTCHAR C0215
ENCODING 215
SWIDTH 500 0
DWIDTH 32 0
BBX 1 1 0 -1
BITMAP
00
ENDCHAR
STARTCHAR C0216
ENCODING 216
SWIDTH 828 0
DWIDTH 53 0
BBX 50 47 1 -1
BITMAP
00000FFC000000
0000FFFF80FFC0
0003FFFFE1FF00
000FFFFFFBFE00
001FFFFFFFFC00
007FFFFFFFF800
00FFFFFFFFF000
01FFFFFFFFE000
03FFFFFFFFF000
03FFFFFFFFF800
07FFFC0FFFF800
0FFFE003FFFC00
0FFFC007FFFC00
1FFF800FFFFE00
1FFF000FFFFE00
3FFF001FFFFF00
3FFE003FFFFF00
3FFE007FFFFF00
3FFC00FFDFFF80
7FFC01FF8FFF80
7FFC01FF0FFF80
7FFC03FE0FFF80
7FFC07FE0FFF80
7FFC0FFC0FFF80
7FFC1FF80FFF80
7FFC1FF00FFF80
7FFC3FE00FFF80
7FFC7FC00FFF80
7FFEFF801FFF00
3FFFFF001FFF00
3FFFFF001FFF00
3FFFFE003FFF00
1FFFFC007FFE00
1FFFF8007FFE00
0FFFF000FFFC00
0FFFF803FFFC00
07FFFC0FFFF800
07FFFFFFFFF000
03FFFFFFFFF000
01FFFFFFFFE000
03FFFFFFFFC000
07FFFFFFFF8000
0FFFFFFFFE0000
1FF7FFFFFC0000
3FE1FFFFF00000
7FC07FFFC00000
80000FFC000000
ENDCHAR
STARTCHAR C0217
ENCODING 217
SWIDTH 765 0
DWIDTH 49 0
BBX 43 60 3 -1
BITMAP
000030000000
0001F8000000
000FF8000000
007FFC000000
00FFFC000000
003FFE000000
001FFF000000
0007FF000000
0003FF800000
0001FF800000
0000FFC00000
00007FC00000
000000200000
000000000000
FFF80003FFE0
FFF80003FFE0
FFF80003FFE0
FFF80003FFE0
FFF80003FFE0
FFF80003FFE0
FFF80003FFE0
FFF80003FFE0
FFF80003FFE0
FFF80003FFE0
FFF80003FFE0
FFF80003FFE0
FFF80003FFE0
FFF80003FFE0
FFF80003FFE0
FFF80003FFE0
FFF80003FFE0
FFF80003FFE0
FFF80003FFE0
FFF80003FFE0
FFF80003FFE0
FFF80003FFE0
FFF80003FFE0
FFF80003FFE0
FFF80003FFE0
FFF80003FFE0
FFF80003FFE0
FFF80003FFE0
FFF80003FFE0
FFFC0003FFE0
FFFC0007FFE0
7FFC0007FFC0
7FFE000FFFC0
7FFF001FFFC0
7FFFC07FFF80
3FFFFFFFFF80
3FFFFFFFFF80
1FFFFFFFFF00
0FFFFFFFFE00
0FFFFFFFFE00
07FFFFFFFC00
03FFFFFFF800
00FFFFFFE000
007FFFFF8000
000FFFFE0000
0001FFE00000
ENDCHAR
STARTCHAR C0218
ENCODING 218
SWIDTH 765 0
DWIDTH 49 0
BBX 43 60 3 -1
BITMAP
000001800000
000003F00000
000003FE0000
000007FFC000
000007FFE000
00000FFF8000
00001FFF0000
00001FFC0000
00003FF80000
00003FF00000
00007FE00000
00007FC00000
000080000000
000000000000
FFF80003FFE0
FFF80003FFE0
FFF80003FFE0
FFF80003FFE0
FFF80003FFE0
FFF80003FFE0
FFF80003FFE0
FFF80003FFE0
FFF80003FFE0
FFF80003FFE0
FFF80003FFE0
FFF80003FFE0
FFF80003FFE0
FFF80003FFE0
FFF80003FFE0
FFF80003FFE0
FFF80003FFE0
FFF80003FFE0
FFF80003FFE0
FFF80003FFE0
FFF80003FFE0
FFF80003FFE0
FFF80003FFE0
FFF80003FFE0
FFF80003FFE0
FFF80003FFE0
FFF80003FFE0
FFF80003FFE0
FFF80003FFE0
FFFC0003FFE0
FFFC0007FFE0
7FFC0007FFC0
7FFE000FFFC0
7FFF001FFFC0
7FFFC07FFF80
3FFFFFFFFF80
3FFFFFFFFF80
1FFFFFFFFF00
0FFFFFFFFE00
0FFFFFFFFE00
07FFFFFFFC00
03FFFFFFF800
00FFFFFFE000
007FFFFF8000
000FFFFE0000
0001FFE00000
ENDCHAR
STARTCHAR C0219
ENCODING 219
SWIDTH 765 0
DWIDTH 49 0
BBX 43 59 3 -1
BITMAP
0000FFE00000
0001FFF00000
0003FFF80000
0003FFF80000
0007FFFC0000
000FFFFE0000
001FFFFF0000
003FF1FF8000
003FE0FF8000
007F803FC000
00FF001FE000
000000000000
000000000000
FFF80003FFE0
FFF80003FFE0
FFF80003FFE0
FFF80003FFE0
FFF80003FFE0
FFF80003FFE0
FFF80003FFE0
FFF80003FFE0
FFF80003FFE0
FFF80003FFE0
FFF80003FFE0
FFF80003FFE0
FFF80003FFE0
FFF80003FFE0
FFF80003FFE0
FFF80003FFE0
FFF80003FFE0
FFF80003FFE0
FFF80003FFE0
FFF80003FFE0
FFF80003FFE0
FFF80003FFE0
FFF80003FFE0
FFF80003FFE0
FFF80003FFE0
FFF80003FFE0
FFF80003FFE0
FFF80003FFE0
FFF80003FFE0
FFFC0003FFE0
FFFC0007FFE0
7FFC0007FFC0
7FFE000FFFC0
7FFF001FFFC0
7FFFC07FFF80
3FFFFFFFFF80
3FFFFFFFFF80
1FFFFFFFFF00
0FFFFFFFFE00
0FFFFFFFFE00
07FFFFFFFC00
03FFFFFFF800
00FFFFFFE000
007FFFFF8000
000FFFFE0000
0001FFE00000
ENDCHAR
STARTCHAR C0220
ENCODING 220
SWIDTH 765 0
DWIDTH 49 0
BBX 42 58 3 -1
BITMAP
007FF1FFC000
007FF1FFC000
007FF1FFC000
007FF1FFC000
007FF1FFC000
007FF1FFC000
007FF1FFC000
007FF1FFC000
007FF1FFC000
007FF1FFC000
000000000000
000000000000
FFF80007FFC0
FFF80007FFC0
FFF80007FFC0
FFF80007FFC0
FFF80007FFC0
FFF80007FFC0
FFF80007FFC0
FFF80007FFC0
FFF80007FFC0
FFF80007FFC0
FFF80007FFC0
FFF80007FFC0
FFF80007FFC0
FFF80007FFC0
FFF80007FFC0
FFF80007FFC0
FFF80007FFC0
FFF80007FFC0
FFF80007FFC0
FFF80007FFC0
FFF80007FFC0
FFF80007FFC0
FFF80007FFC0
FFF80007FFC0
FFF80007FFC0
FFF80007FFC0
FFF80007FFC0
FFF80007FFC0
FFF80007FFC0
FFFC0007FFC0
FFFC000FFFC0
7FFC000FFF80
7FFE001FFF80
7FFF003FFF80
7FFFC0FFFF00
3FFFFFFFFF00
3FFFFFFFFF00
1FFFFFFFFE00
1FFFFFFFFC00
0FFFFFFFFC00
07FFFFFFF800
03FFFFFFF000
01FFFFFFC000
007FFFFF8000
001FFFFC0000
0001FFE00000
ENDCHAR
STARTCHAR C0221
ENCODING 221
SWIDTH 718 0
DWIDTH 46 0
BBX 47 60 0 0
BITMAP
000000400000
000000F80000
000001FF8000
000001FFF000
000003FFE000
000003FFC000
000007FF8000
000007FF0000
00000FFE0000
00001FF80000
00001FF00000
00003FE00000
000000000000
000000000000
000000000000
FFFC00007FFE
7FFE0000FFFC
7FFF0000FFF8
3FFF0001FFF8
1FFF8001FFF0
1FFF8003FFF0
0FFFC007FFE0
07FFC007FFC0
07FFE00FFFC0
03FFF00FFF80
03FFF01FFF80
01FFF83FFF00
00FFF83FFE00
00FFFC7FFE00
007FFE7FFC00
007FFEFFFC00
003FFFFFF800
001FFFFFF000
001FFFFFF000
000FFFFFE000
000FFFFFC000
0007FFFFC000
0003FFFF8000
0003FFFF8000
0001FFFF0000
0001FFFE0000
0000FFFE0000
00007FFC0000
00007FFC0000
00007FFC0000
00007FFC0000
00007FFC0000
00007FFC0000
00007FFC0000
00007FFC0000
00007FFC0000
00007FFC0000
00007FFC0000
00007FFC0000
00007FFC0000
00007FFC0000
00007FFC0000
00007FFC0000
00007FFC0000
00007FFC0000
ENDCHAR
STARTCHAR C0222
ENCODING 222
SWIDTH 687 0
DWIDTH 44 0
BBX 38 45 4 0
BITMAP
FFF0000000
FFF0000000
FFF0000000
FFF0000000
FFF0000000
FFF0000000
FFF0000000
FFFFFF8000
FFFFFFF000
FFFFFFFE00
FFFFFFFF00
FFFFFFFF80
FFFFFFFFE0
FFFFFFFFE0
FFFFFFFFF0
FFFFFFFFF8
FFFFFFFFF8
FFF003FFF8
FFF000FFFC
FFF0007FFC
FFF0003FFC
FFF0003FFC
FFF0003FFC
FFF0003FFC
FFF0003FFC
FFF0007FFC
FFF000FFFC
FFF003FFF8
FFFFFFFFF8
FFFFFFFFF0
FFFFFFFFF0
FFFFFFFFE0
FFFFFFFFC0
FFFFFFFF80
FFFFFFFF00
FFFFFFFC00
FFFFFFF000
FFFFFF0000
FFF0000000
FFF0000000
FFF0000000
FFF0000000
FFF0000000
FFF0000000
FFF0000000
ENDCHAR
STARTCHAR C0223
ENCODING 223
SWIDTH 640 0
DWIDTH 41 0
BBX 36 47 3 0
BITMAP
0007FE0000
007FFFC000
01FFFFF000
03FFFFF800
07FFFFFC00
0FFFFFFE00
1FFFFFFF00
3FFFFFFF80
3FFFFFFF80
7FFFFFFF80
7FFE0FFFC0
7FFC07FFC0
FFF803FFC0
FFF003FFC0
FFF003FFC0
FFF003FFC0
FFF003FFC0
FFF007FF80
FFF007FF80
FFF00FFF00
FFF03FFE00
FFF07FFC00
FFF07FF800
FFF07FF000
FFF07FF800
FFF07FFE00
FFF07FFF00
FFF07FFF80
FFF00FFFC0
FFF003FFE0
FFF001FFE0
FFF000FFF0
FFF000FFF0
FFF000FFF0
FFF000FFF0
FFF001FFF0
FFF003FFF0
FFF00FFFF0
FFF07FFFE0
FFF07FFFE0
FFF07FFFC0
FFF07FFFC0
FFF07FFF80
FFF07FFF00
FFF07FFC00
FFF07FF000
FFF07F8000
ENDCHAR
STARTCHAR C0224
ENCODING 224
SWIDTH 593 0
DWIDTH 38 0
BBX 33 51 2 -1
BITMAP
0001000000
000F800000
007F800000
03FFC00000
07FFC00000
01FFE00000
00FFE00000
007FF00000
003FF00000
000FF80000
0007F80000
0003FC0000
0000000000
0000000000
0000000000
003FFC0000
03FFFF8000
1FFFFFE000
3FFFFFF000
1FFFFFFC00
1FFFFFFC00
1FFFFFFE00
1FFFFFFF00
0FFFFFFF00
0FFFFFFF00
0F803FFF80
0C000FFF80
00000FFF80
000007FF80
00FFC7FF80
03FFFFFF80
0FFFFFFF80
1FFFFFFF80
3FFFFFFF80
7FFFFFFF80
7FFC0FFF80
FFF807FF80
FFF007FF80
FFF007FF80
FFF007FF80
FFF00FFF80
FFF80FFF80
FFFC3FFF80
FFFFFFFF80
7FFFFFFF80
7FFFFFFF80
3FFFFFFF80
1FFFF7FF80
0FFFE7FF80
07FFC7FF80
00FF000000
ENDCHAR
STARTCHAR C0225
ENCODING 225
SWIDTH 593 0
DWIDTH 38 0
BBX 33 51 2 -1
BITMAP
0000300000
00003E0000
00007FC000
00007FF800
0000FFF800
0001FFE000
0001FFC000
0003FF8000
0003FF0000
0007FE0000
0007FC0000
000FF80000
0000000000
0000000000
0000000000
003FFC0000
03FFFF8000
1FFFFFE000
3FFFFFF000
1FFFFFFC00
1FFFFFFC00
1FFFFFFE00
1FFFFFFF00
0FFFFFFF00
0FFFFFFF00
0F803FFF80
0C000FFF80
00000FFF80
000007FF80
00FFC7FF80
03FFFFFF80
0FFFFFFF80
1FFFFFFF80
3FFFFFFF80
7FFFFFFF80
7FFC0FFF80
FFF807FF80
FFF007FF80
FFF007FF80
FFF007FF80
FFF00FFF80
FFF80FFF80
FFFC3FFF80
FFFFFFFF80
7FFFFFFF80
7FFFFFFF80
3FFFFFFF80
1FFFF7FF80
0FFFE7FF80
07FFC7FF80
00FF000000
ENDCHAR
STARTCHAR C0226
ENCODING 226
SWIDTH 593 0
DWIDTH 38 0
BBX 33 49 2 -1
BITMAP
000FFC0000
001FFE0000
003FFF0000
003FFF0000
007FFF8000
00FFFFC000
01FFFFE000
01FF3FE000
03FE0FF000
07F807F800
07F003FC00
0800000000
0000000000
003FFC0000
03FFFF8000
1FFFFFE000
3FFFFFF000
1FFFFFFC00
1FFFFFFC00
1FFFFFFE00
1FFFFFFF00
0FFFFFFF00
0FFFFFFF00
0F803FFF80
0C000FFF80
00000FFF80
000007FF80
00FFC7FF80
03FFFFFF80
0FFFFFFF80
1FFFFFFF80
3FFFFFFF80
7FFFFFFF80
7FFC0FFF80
FFF807FF80
FFF007FF80
FFF007FF80
FFF007FF80
FFF00FFF80
FFF80FFF80
FFFC3FFF80
FFFFFFFF80
7FFFFFFF80
7FFFFFFF80
3FFFFFFF80
1FFFF7FF80
0FFFE7FF80
07FFC7FF80
00FF000000
ENDCHAR
STARTCHAR C0227
ENCODING 227
SWIDTH 593 0
DWIDTH 38 0
BBX 33 50 2 -1
BITMAP
000000C000
007E00FC00
00FFE1FC00
01FFFFFC00
03FFFFF800
03FFFFF800
07FFFFF800
07FFFFF000
07FFFFE000
0FE1FFE000
07E01F8000
00C0000000
0000000000
0000000000
003FFC0000
03FFFF8000
1FFFFFE000
3FFFFFF000
1FFFFFFC00
1FFFFFFC00
1FFFFFFE00
1FFFFFFF00
0FFFFFFF00
0FFFFFFF00
0F803FFF80
0C000FFF80
00000FFF80
000007FF80
00FFC7FF80
03FFFFFF80
0FFFFFFF80
1FFFFFFF80
3FFFFFFF80
7FFFFFFF80
7FFC0FFF80
FFF807FF80
FFF007FF80
FFF007FF80
FFF007FF80
FFF00FFF80
FFF80FFF80
FFFC3FFF80
FFFFFFFF80
7FFFFFFF80
7FFFFFFF80
3FFFFFFF80
1FFFF7FF80
0FFFE7FF80
07FFC7FF80
00FF000000
ENDCHAR
STARTCHAR C0228
ENCODING 228
SWIDTH 593 0
DWIDTH 38 0
BBX 34 48 1 -1
BITMAP
03FF8FFE00
03FF8FFE00
03FF8FFE00
03FF8FFE00
03FF8FFE00
03FF8FFE00
03FF8FFE00
03FF8FFE00
03FF8FFE00
03FF8FFE00
0000000000
0000000000
001FFE0000
01FFFFC000
0FFFFFF000
1FFFFFF800
0FFFFFFE00
0FFFFFFE00
0FFFFFFF00
0FFFFFFF80
07FFFFFF80
07FFFFFF80
07C01FFFC0
060007FFC0
000007FFC0
000003FFC0
007FE3FFC0
03FFFFFFC0
0FFFFFFFC0
1FFFFFFFC0
3FFFFFFFC0
7FFFFFFFC0
7FFE07FFC0
7FF803FFC0
FFF003FFC0
FFF003FFC0
FFF003FFC0
FFF007FFC0
FFF80FFFC0
FFFC1FFFC0
FFFFFFFFC0
7FFFFFFFC0
7FFFFFFFC0
3FFFFFFFC0
1FFFFDFFC0
0FFFF3FFC0
07FFE3FFC0
00FF000000
ENDCHAR
STARTCHAR C0229
ENCODING 229
SWIDTH 593 0
DWIDTH 38 0
BBX 34 55 1 -1
BITMAP
0001F80000
0007FE0000
000FFF0000
001FFF8000
001F0F8000
003E07C000
003C03C000
003C03C000
003C03C000
003C03C000
003E07C000
001F0F8000
001FFF8000
000FFF0000
0003FC0000
0001F80000
0000000000
0000000000
0000000000
001FFE0000
01FFFFC000
0FFFFFF000
1FFFFFF800
0FFFFFFE00
0FFFFFFE00
0FFFFFFF00
0FFFFFFF80
07FFFFFF80
07FFFFFF80
07C01FFFC0
060007FFC0
000007FFC0
000003FFC0
007FE3FFC0
03FFFFFFC0
0FFFFFFFC0
1FFFFFFFC0
3FFFFFFFC0
7FFFFFFFC0
7FFE07FFC0
7FF803FFC0
FFF003FFC0
FFF003FFC0
FFF003FFC0
FFF007FFC0
FFF80FFFC0
FFFC1FFFC0
FFFFFFFFC0
7FFFFFFFC0
7FFFFFFFC0
3FFFFFFFC0
1FFFFBFFC0
0FFFF3FFC0
07FFC3FFC0
00FF000000
ENDCHAR
STARTCHAR C0230
ENCODING 230
SWIDTH 937 0
DWIDTH 60 0
BBX 57 36 1 -1
BITMAP
001FFC001FF00000
01FFFF80FFFE0000
0FFFFFE3FFFF8000
1FFFFFF7FFFFC000
1FFFFFFFFFFFE000
0FFFFFFFFFFFF000
0FFFFFFFFFFFF800
0FFFFFFFFFFFFC00
0FFFFFFFFFFFFC00
07FFFFFFF81FFE00
07C01FFFF00FFE00
06000FFFE007FF00
000007FFC007FF00
000003FFC003FF00
007FC3FFC003FF00
03FFFFFFFFFFFF80
0FFFFFFFFFFFFF80
1FFFFFFFFFFFFF80
3FFFFFFFFFFFFF80
7FFFFFFFFFFFFF80
7FFE07FFFFFFFF80
7FF803FFC0000000
FFF001FFC0008000
FFF001FFE001C000
FFF001FFF003E000
FFF001FFFC0FF000
FFF803FFFFFFF800
FFFC1FFFFFFFFC00
FFFFFFFFFFFFFE00
7FFFFFFFFFFFFC00
7FFFFFFFFFFFF800
3FFFFFDFFFFFF000
1FFFFF07FFFFE000
0FFFFE03FFFFC000
03FFF000FFFF0000
007F80001FF80000
ENDCHAR
STARTCHAR C0231
ENCODING 231
SWIDTH 562 0
DWIDTH 36 0
BBX 34 46 2 -11
BITMAP
0003FF0000
001FFFE000
007FFFF000
01FFFFFC00
03FFFFFE00
07FFFFFF00
0FFFFFFF80
1FFFFFFF80
1FFFFFFF40
3FFFFFFE00
3FFF03FC00
7FFE01F000
7FFC00E000
7FF8008000
FFF8000000
FFF0000000
FFF0000000
FFF0000000
FFF0000000
FFF0000000
FFF0000000
FFF8000000
7FF8004000
7FFC006000
7FFE01F000
3FFF03FC00
3FFFFFFE00
1FFFFFFF80
1FFFFFFFC0
0FFFFFFF80
07FFFFFF00
03FFFFFE00
00FFFFFC00
007FFFF000
001FFFC000
000FFE0000
001FF00000
001FF00000
003FF00000
007FE00000
00FFE00000
00FFE00000
017FC00000
001FC00000
0007C00000
0000800000
ENDCHAR
STARTCHAR C0232
ENCODING 232
SWIDTH 609 0
DWIDTH 39 0
BBX 35 51 2 -1
BITMAP
0003000000
001F000000
00FF800000
03FF800000
0FFFC00000
03FFC00000
01FFE00000
00FFE00000
007FF00000
003FF00000
001FF80000
000FF80000
0007FC0000
0000000000
0000000000
0007FC0000
003FFF8000
00FFFFE000
01FFFFF000
03FFFFFC00
07FFFFFE00
0FFFFFFE00
1FFFFFFF00
3FFFFFFF80
3FFFFFFF80
7FFE0FFF80
7FF803FFC0
7FF001FFC0
FFF001FFC0
FFF001FFC0
FFFFFFFFE0
FFFFFFFFE0
FFFFFFFFE0
FFFFFFFFE0
FFFFFFFFE0
FFF001FFE0
FFF0000000
FFF0002000
7FF8003000
7FFC00F800
7FFF03FC00
3FFFFFFE00
3FFFFFFF80
1FFFFFFF80
0FFFFFFF00
07FFFFFF00
03FFFFFE00
01FFFFF800
00FFFFF000
003FFFC000
0003FE0000
ENDCHAR
STARTCHAR C0233
ENCODING 233
SWIDTH 609 0
DWIDTH 39 0
BBX 35 51 2 -1
BITMAP
0000180000
00003E0000
00003FC000
00007FF800
00007FFE00
0000FFF800
0000FFF000
0001FFE000
0001FFC000
0003FF8000
0003FF0000
0007FE0000
0007FC0000
0000000000
0000000000
0007FC0000
003FFF8000
00FFFFE000
01FFFFF000
03FFFFFC00
07FFFFFE00
0FFFFFFE00
1FFFFFFF00
3FFFFFFF80
3FFFFFFF80
7FFE0FFF80
7FF803FFC0
7FF001FFC0
FFF001FFC0
FFF001FFC0
FFFFFFFFE0
FFFFFFFFE0
FFFFFFFFE0
FFFFFFFFE0
FFFFFFFFE0
FFF001FFE0
FFF0000000
FFF0002000
7FF8003000
7FFC00F800
7FFF03FC00
3FFFFFFE00
3FFFFFFF80
1FFFFFFF80
0FFFFFFF00
07FFFFFF00
03FFFFFE00
01FFFFF800
00FFFFF000
003FFFC000
0003FE0000
ENDCHAR
STARTCHAR C0234
ENCODING 234
SWIDTH 609 0
DWIDTH 39 0
BBX 35 49 2 -1
BITMAP
000FFE0000
001FFE0000
001FFF0000
003FFF8000
007FFFC000
00FFFFE000
01FFFFE000
01FF3FF000
03FE0FF800
07F807FC00
0FF001FC00
0000000200
0000000000
0007FC0000
003FFF8000
00FFFFE000
01FFFFF000
03FFFFFC00
07FFFFFE00
0FFFFFFE00
1FFFFFFF00
3FFFFFFF80
3FFFFFFF80
7FFE0FFF80
7FF803FFC0
7FF001FFC0
FFF001FFC0
FFF001FFC0
FFFFFFFFE0
FFFFFFFFE0
FFFFFFFFE0
FFFFFFFFE0
FFFFFFFFE0
FFFFFFFFE0
FFF0000000
FFF0002000
7FF8003000
7FFC00F800
7FFF03FC00
3FFFFFFE00
3FFFFFFF80
1FFFFFFF80
0FFFFFFF00
07FFFFFF00
03FFFFFE00
01FFFFF800
00FFFFF000
003FFFC000
0003FE0000
ENDCHAR
STARTCHAR C0235
ENCODING 235
SWIDTH 609 0
DWIDTH 39 0
BBX 35 48 2 -1
BITMAP
07FF1FFC00
07FF1FFC00
07FF1FFC00
07FF1FFC00
07FF1FFC00
07FF1FFC00
07FF1FFC00
07FF1FFC00
07FF1FFC00
07FF1FFC00
0000000000
0000000000
0007FC0000
003FFF8000
00FFFFE000
01FFFFF800
03FFFFFC00
07FFFFFE00
0FFFFFFE00
1FFFFFFF00
3FFFFFFF80
3FFFFFFF80
7FFE0FFFC0
7FF803FFC0
7FF001FFC0
FFF001FFC0
FFF001FFE0
FFFFFFFFE0
FFFFFFFFE0
FFFFFFFFE0
FFFFFFFFE0
FFFFFFFFE0
FFFFFFFFE0
FFF0000000
FFF0002000
7FF8003000
7FFC00F800
7FFF03FC00
3FFFFFFF00
3FFFFFFF80
1FFFFFFFC0
0FFFFFFF80
07FFFFFF00
03FFFFFE00
01FFFFFC00
007FFFF000
001FFFC000
0003FE0000
ENDCHAR
STARTCHAR C0236
ENCODING 236
SWIDTH 296 0
DWIDTH 19 0
BBX 19 49 -3 0
BITMAP
003000
03F000
1FF800
FFFC00
7FFC00
1FFE00
0FFE00
07FF00
03FF80
00FF80
007FC0
000000
000000
000000
01FFE0
01FFE0
01FFE0
01FFE0
01FFE0
01FFE0
01FFE0
01FFE0
01FFE0
01FFE0
01FFE0
01FFE0
01FFE0
01FFE0
01FFE0
01FFE0
01FFE0
01FFE0
01FFE0
01FFE0
01FFE0
01FFE0
01FFE0
01FFE0
01FFE0
01FFE0
01FFE0
01FFE0
01FFE0
01FFE0
01FFE0
01FFE0
01FFE0
01FFE0
01FFE0
ENDCHAR
STARTCHAR C0237
ENCODING 237
SWIDTH 296 0
DWIDTH 19 0
BBX 19 49 4 0
BITMAP
018000
01F000
03FF00
03FFE0
07FFC0
0FFF80
0FFE00
1FFC00
1FF800
3FF000
7FC000
000000
000000
000000
FFF000
FFF000
FFF000
FFF000
FFF000
FFF000
FFF000
FFF000
FFF000
FFF000
FFF000
FFF000
FFF000
FFF000
FFF000
FFF000
FFF000
FFF000
FFF000
FFF000
FFF000
FFF000
FFF000
FFF000
FFF000
FFF000
FFF000
FFF000
FFF000
FFF000
FFF000
FFF000
FFF000
FFF000
FFF000
ENDCHAR
STARTCHAR C0238
ENCODING 238
SWIDTH 296 0
DWIDTH 19 0
BBX 26 48 -3 0
BITMAP
01FFC000
01FFE000
03FFF000
07FFF000
0FFFF800
1FFFFC00
1FFFFE00
3FE3FE00
7FC1FF00
FF807F80
FE003FC0
00000000
00000000
01FFE000
01FFE000
01FFE000
01FFE000
01FFE000
01FFE000
01FFE000
01FFE000
01FFE000
01FFE000
01FFE000
01FFE000
01FFE000
01FFE000
01FFE000
01FFE000
01FFE000
01FFE000
01FFE000
01FFE000
01FFE000
01FFE000
01FFE000
01FFE000
01FFE000
01FFE000
01FFE000
01FFE000
01FFE000
01FFE000
01FFE000
01FFE000
01FFE000
01FFE000
01FFE000
ENDCHAR
STARTCHAR C0239
ENCODING 239
SWIDTH 296 0
DWIDTH 19 0
BBX 25 47 -3 0
BITMAP
FFE3FF80
FFE3FF80
FFE3FF80
FFE3FF80
FFE3FF80
FFE3FF80
FFE3FF80
FFE3FF80
FFE3FF80
FFE3FF80
00000000
00000000
01FFE000
01FFE000
01FFE000
01FFE000
01FFE000
01FFE000
01FFE000
01FFE000
01FFE000
01FFE000
01FFE000
01FFE000
01FFE000
01FFE000
01FFE000
01FFE000
01FFE000
01FFE000
01FFE000
01FFE000
01FFE000
01FFE000
01FFE000
01FFE000
01FFE000
01FFE000
01FFE000
01FFE000
01FFE000
01FFE000
01FFE000
01FFE000
01FFE000
01FFE000
01FFE000
ENDCHAR
STARTCHAR C0240
ENCODING 240
SWIDTH 656 0
DWIDTH 42 0
BBX 37 48 2 -1
BITMAP
007FFC0C00
003FFEFC00
001FFFFE00
001FFFFF00
000FFFFF00
0007FFFF80
000FFFFE00
007FFFF000
03FFFFE000
03FFFFF000
01FFFFF000
00FF7FF800
007C3FFC00
00601FFC00
00001FFE00
00000FFF00
001FE7FF80
00FFFFFF80
03FFFFFFC0
07FFFFFFC0
0FFFFFFFE0
1FFFFFFFE0
3FFFFFFFF0
3FFFFFFFF0
7FFF07FFF0
7FFC01FFF8
7FF800FFF8
FFF800FFF8
FFF0007FF8
FFF0007FF8
FFF0007FF8
FFF0007FF8
FFF0007FF8
FFF0007FF8
FFF800FFF8
7FF800FFF0
7FFC01FFF0
7FFF07FFF0
3FFFFFFFE0
3FFFFFFFE0
1FFFFFFFC0
0FFFFFFF80
07FFFFFF00
03FFFFFE00
01FFFFFC00
00FFFFF000
001FFFC000
0003FE0000
ENDCHAR
STARTCHAR C0241
ENCODING 241
SWIDTH 640 0
DWIDTH 41 0
BBX 35 49 3 0
BITMAP
0000003000
007F003F00
00FFF07F00
01FFFFFF00
03FFFFFE00
03FFFFFE00
07FFFFFE00
07FFFFFC00
07FFFFF800
0FE0FFF000
07E00FE000
00C0000000
0000000000
0000000000
FFF01FE000
FFF07FF800
FFF1FFFE00
FFF3FFFF00
FFF7FFFF80
FFFFFFFF80
FFFFFFFFC0
FFFFFFFFC0
FFFFFFFFE0
FFFFFFFFE0
FFFE0FFFE0
FFFC03FFE0
FFF803FFE0
FFF001FFE0
FFF001FFE0
FFF001FFE0
FFF001FFE0
FFF001FFE0
FFF001FFE0
FFF001FFE0
FFF001FFE0
FFF001FFE0
FFF001FFE0
FFF001FFE0
FFF001FFE0
FFF001FFE0
FFF001FFE0
FFF001FFE0
FFF001FFE0
FFF001FFE0
FFF001FFE0
FFF001FFE0
FFF001FFE0
FFF001FFE0
FFF001FFE0
ENDCHAR
STARTCHAR C0242
ENCODING 242
SWIDTH 656 0
DWIDTH 42 0
BBX 38 51 2 -1
BITMAP
0000800000
0007C00000
003FC00000
01FFE00000
03FFE00000
01FFF00000
00FFF00000
003FF80000
001FF80000
000FFC0000
0007FC0000
0003FE0000
0001FE0000
0000010000
0000000000
0003FF0000
001FFFE000
007FFFF800
00FFFFFC00
03FFFFFF00
07FFFFFF80
0FFFFFFFC0
1FFFFFFFE0
1FFFFFFFE0
3FFFFFFFF0
3FFF07FFF0
7FFE01FFF8
7FFC00FFF8
7FF8007FF8
FFF8007FFC
FFF0003FFC
FFF0003FFC
FFF0003FFC
FFF0003FFC
FFF0003FFC
FFF0003FFC
FFF8007FFC
7FF8007FF8
7FFC00FFF8
7FFE01FFF8
3FFF83FFF0
3FFFFFFFF0
1FFFFFFFE0
1FFFFFFFE0
0FFFFFFFC0
07FFFFFF80
03FFFFFF00
01FFFFFC00
007FFFF800
001FFFE000
0003FF0000
ENDCHAR
STARTCHAR C0243
ENCODING 243
SWIDTH 656 0
DWIDTH 42 0
BBX 38 51 2 -1
BITMAP
0000040000
00000F8000
00000FF000
00001FFE00
00001FFF00
00003FFE00
00003FFC00
00007FF000
00007FE000
0000FFC000
0000FF8000
0001FF0000
0001FE0000
0002000000
0000000000
0003FF0000
001FFFE000
007FFFF800
00FFFFFC00
03FFFFFF00
07FFFFFF80
0FFFFFFFC0
1FFFFFFFE0
1FFFFFFFE0
3FFFFFFFF0
3FFF07FFF0
7FFE01FFF8
7FFC00FFF8
7FF8007FF8
FFF8007FFC
FFF0003FFC
FFF0003FFC
FFF0003FFC
FFF0003FFC
FFF0003FFC
FFF0003FFC
FFF8007FFC
7FF8007FF8
7FFC00FFF8
7FFE01FFF8
3FFF83FFF0
3FFFFFFFF0
1FFFFFFFE0
1FFFFFFFE0
0FFFFFFFC0
07FFFFFF80
03FFFFFF00
01FFFFFC00
007FFFF800
001FFFE000
0003FF0000
ENDCHAR
STARTCHAR C0244
ENCODING 244
SWIDTH 656 0
DWIDTH 42 0
BBX 38 49 2 -1
BITMAP
0003FF0000
0007FF8000
000FFFC000
001FFFE000
001FFFE000
003FFFF000
007FFFF800
00FFCFFC00
00FF07FC00
01FE01FE00
03FC00FF00
0000000000
0000000000
0003FF0000
001FFFE000
007FFFF800
00FFFFFC00
03FFFFFF00
07FFFFFF80
0FFFFFFFC0
1FFFFFFFE0
1FFFFFFFE0
3FFFFFFFF0
3FFF07FFF0
7FFE01FFF8
7FFC00FFF8
7FF8007FF8
FFF8007FFC
FFF0003FFC
FFF0003FFC
FFF0003FFC
FFF0003FFC
FFF0003FFC
FFF0003FFC
FFF8007FFC
7FF8007FF8
7FFC00FFF8
7FFE01FFF8
3FFF83FFF0
3FFFFFFFF0
1FFFFFFFE0
1FFFFFFFE0
0FFFFFFFC0
07FFFFFF80
03FFFFFF00
01FFFFFC00
007FFFF800
001FFFE000
0003FF0000
ENDCHAR
STARTCHAR C0245
ENCODING 245
SWIDTH 656 0
DWIDTH 42 0
BBX 38 50 2 -1
BITMAP
0000003000
001F807F00
003FF87F00
007FFFFE00
00FFFFFE00
00FFFFFE00
01FFFFFC00
01FFFFFC00
01FFFFF800
03F87FF000
01F807E000
0030000000
0000000000
0000000000
0003FF0000
001FFFE000
007FFFF800
00FFFFFC00
03FFFFFF00
07FFFFFF80
0FFFFFFFC0
1FFFFFFFE0
1FFFFFFFE0
3FFFFFFFF0
3FFF07FFF0
7FFE01FFF8
7FFC00FFF8
7FF8007FF8
FFF8007FFC
FFF0003FFC
FFF0003FFC
FFF0003FFC
FFF0003FFC
FFF0003FFC
FFF0003FFC
FFF8007FFC
7FF8007FF8
7FFC00FFF8
7FFE01FFF8
3FFF83FFF0
3FFFFFFFF0
1FFFFFFFE0
1FFFFFFFE0
0FFFFFFFC0
07FFFFFF80
03FFFFFF00
01FFFFFC00
007FFFF800
001FFFE000
0003FF0000
ENDCHAR
STARTCHAR C0246
ENCODING 246
SWIDTH 656 0
DWIDTH 42 0
BBX 38 48 2 -1
BITMAP
03FF87FF00
03FF87FF00
03FF87FF00
03FF87FF00
03FF87FF00
03FF87FF00
03FF87FF00
03FF87FF00
03FF87FF00
03FF87FF00
0000000000
0000000000
0003FF0000
001FFFE000
007FFFF800
00FFFFFC00
03FFFFFF00
07FFFFFF80
0FFFFFFFC0
1FFFFFFFE0
1FFFFFFFE0
3FFFFFFFF0
3FFF07FFF0
7FFE01FFF8
7FFC00FFF8
7FF8007FF8
FFF8007FFC
FFF0003FFC
FFF0003FFC
FFF0003FFC
FFF0003FFC
FFF0003FFC
FFF0003FFC
FFF8007FFC
7FF8007FF8
7FFC00FFF8
7FFE01FFF8
3FFF83FFF0
3FFFFFFFF0
1FFFFFFFE0
1FFFFFFFE0
0FFFFFFFC0
07FFFFFF80
03FFFFFF00
01FFFFFC00
007FFFF800
001FFFE000
0003FF0000
ENDCHAR
STARTCHAR C0247
ENCODING 247
SWIDTH 500 0
DWIDTH 32 0
BBX 1 1 0 -1
BITMAP
00
ENDCHAR
STARTCHAR C0248
ENCODING 248
SWIDTH 656 0
DWIDTH 42 0
BBX 40 36 1 -1
BITMAP
0001FFC1FF
000FFFFBFE
003FFFFFFC
007FFFFFF8
01FFFFFFF0
03FFFFFFE0
07FFFFFFE0
0FFFFFFFF0
0FFFFFFFF0
1FFFFFFFF8
1FFFC1FFF8
3FFF03FFFC
3FFE07FFFC
3FFC0FFFFC
7FFC1FFFFE
7FF83FDFFE
7FF87F9FFE
7FF8FF9FFE
7FF9FF1FFE
7FF9FE1FFE
7FFBFC1FFE
7FFFF83FFE
3FFFF03FFC
3FFFE07FFC
3FFFC0FFFC
1FFFC3FFF8
1FFFFFFFF8
0FFFFFFFF0
0FFFFFFFF0
07FFFFFFE0
07FFFFFFC0
0FFFFFFF80
1FFFFFFE00
3FDFFFFC00
7F87FFF000
8000FF8000
ENDCHAR
STARTCHAR C0249
ENCODING 249
SWIDTH 640 0
DWIDTH 41 0
BBX 35 50 3 -1
BITMAP
0001800000
000FC00000
00FFC00000
07FFE00000
03FFF00000
00FFF00000
007FF80000
003FFC0000
000FFC0000
0007FE0000
0003FF0000
0000000000
0000000000
0000000000
FFF001FFE0
FFF001FFE0
FFF001FFE0
FFF001FFE0
FFF001FFE0
FFF001FFE0
FFF001FFE0
FFF001FFE0
FFF001FFE0
FFF001FFE0
FFF001FFE0
FFF001FFE0
FFF001FFE0
FFF001FFE0
FFF001FFE0
FFF001FFE0
FFF001FFE0
FFF001FFE0
FFF001FFE0
FFF001FFE0
FFF001FFE0
FFF001FFE0
FFF001FFE0
FFF803FFE0
FFFC07FFE0
FFFE0FFFE0
FFFFFFFFE0
7FFFFFFFE0
7FFFFFFFE0
7FFFFFFFE0
3FFFFFFFE0
3FFFFDFFE0
1FFFF9FFE0
0FFFF1FFE0
03FFE1FFE0
00FF000000
ENDCHAR
STARTCHAR C0250
ENCODING 250
SWIDTH 640 0
DWIDTH 41 0
BBX 35 50 3 -1
BITMAP
0000300000
00007E0000
00007FE000
0000FFFC00
0000FFF800
0001FFF000
0003FFC000
0003FF8000
0007FF0000
000FFC0000
000FF80000
0010000000
0000000000
0000000000
FFF001FFE0
FFF001FFE0
FFF001FFE0
FFF001FFE0
FFF001FFE0
FFF001FFE0
FFF001FFE0
FFF001FFE0
FFF001FFE0
FFF001FFE0
FFF001FFE0
FFF001FFE0
FFF001FFE0
FFF001FFE0
FFF001FFE0
FFF001FFE0
FFF001FFE0
FFF001FFE0
FFF001FFE0
FFF001FFE0
FFF001FFE0
FFF001FFE0
FFF001FFE0
FFF803FFE0
FFFC07FFE0
FFFE0FFFE0
FFFFFFFFE0
7FFFFFFFE0
7FFFFFFFE0
7FFFFFFFE0
3FFFFFFFE0
3FFFFDFFE0
1FFFF9FFE0
0FFFF1FFE0
03FFE1FFE0
00FF000000
ENDCHAR
STARTCHAR C0251
ENCODING 251
SWIDTH 640 0
DWIDTH 41 0
BBX 35 49 3 -1
BITMAP
000FFE0000
001FFF0000
003FFF8000
007FFFC000
007FFFC000
00FFFFE000
01FFFFF000
03FF1FF800
03FE0FFC00
07FC07FC00
0FF001FE00
0000000000
0000000000
FFF001FFE0
FFF001FFE0
FFF001FFE0
FFF001FFE0
FFF001FFE0
FFF001FFE0
FFF001FFE0
FFF001FFE0
FFF001FFE0
FFF001FFE0
FFF001FFE0
FFF001FFE0
FFF001FFE0
FFF001FFE0
FFF001FFE0
FFF001FFE0
FFF001FFE0
FFF001FFE0
FFF001FFE0
FFF001FFE0
FFF001FFE0
FFF001FFE0
FFF001FFE0
FFF803FFE0
FFFC07FFE0
FFFE0FFFE0
FFFFFFFFE0
7FFFFFFFE0
7FFFFFFFE0
7FFFFFFFE0
3FFFFFFFE0
3FFFFDFFE0
1FFFF9FFE0
0FFFF1FFE0
03FFE1FFE0
00FF000000
ENDCHAR
STARTCHAR C0252
ENCODING 252
SWIDTH 640 0
DWIDTH 41 0
BBX 34 48 3 -1
BITMAP
07FF1FFC00
07FF1FFC00
07FF1FFC00
07FF1FFC00
07FF1FFC00
07FF1FFC00
07FF1FFC00
07FF1FFC00
07FF1FFC00
07FF1FFC00
0000000000
0000000000
FFF003FFC0
FFF003FFC0
FFF003FFC0
FFF003FFC0
FFF003FFC0
FFF003FFC0
FFF003FFC0
FFF003FFC0
FFF003FFC0
FFF003FFC0
FFF003FFC0
FFF003FFC0
FFF003FFC0
FFF003FFC0
FFF003FFC0
FFF003FFC0
FFF003FFC0
FFF003FFC0
FFF003FFC0
FFF003FFC0
FFF003FFC0
FFF003FFC0
FFF003FFC0
FFF807FFC0
FFF807FFC0
FFFE1FFFC0
FFFFFFFFC0
7FFFFFFFC0
7FFFFFFFC0
7FFFFFFFC0
3FFFFFFFC0
3FFFFFFFC0
1FFFFBFFC0
0FFFF3FFC0
03FFC3FFC0
00FF000000
ENDCHAR
STARTCHAR C0253
ENCODING 253
SWIDTH 625 0
DWIDTH 40 0
BBX 38 60 1 -11
BITMAP
00000C0000
00001F8000
00001FF000
00003FFE00
00007FFC00
00007FF800
0000FFF000
0000FFE000
0001FF8000
0003FF0000
0003FE0000
0004000000
0000000000
0000000000
FFF8003FFC
FFF8007FFC
7FF8007FF8
7FFC007FF8
7FFC00FFF8
3FFC00FFF0
3FFE00FFF0
1FFE00FFF0
1FFE01FFE0
1FFF01FFE0
0FFF01FFE0
0FFF03FFC0
07FF83FFC0
07FF83FF80
07FF87FF80
03FFC7FF80
03FFC7FF00
01FFCFFF00
01FFEFFF00
01FFEFFE00
00FFFFFE00
00FFFFFC00
007FFFFC00
007FFFFC00
007FFFF800
003FFFF800
003FFFF800
003FFFF000
001FFFF000
001FFFF000
000FFFE000
000FFFE000
000FFFC000
0007FFC000
0407FFC000
070FFF8000
0FFFFF8000
0FFFFF0000
1FFFFF0000
1FFFFE0000
3FFFFE0000
3FFFFC0000
3FFFF80000
5FFFF00000
07FFE00000
00FF800000
ENDCHAR
STARTCHAR C0254
ENCODING 254
SWIDTH 671 0
DWIDTH 43 0
BBX 38 57 3 -10
BITMAP
FFF0000000
FFF0000000
FFF0000000
FFF0000000
FFF0000000
FFF0000000
FFF0000000
FFF0000000
FFF0000000
FFF0000000
FFF0000000
FFF0000000
FFF01FC000
FFF0FFF800
FFF1FFFE00
FFF3FFFF00
FFF7FFFF80
FFFFFFFFC0
FFFFFFFFE0
FFFFFFFFE0
FFFFFFFFF0
FFFFFFFFF0
FFFF03FFF8
FFFE01FFF8
FFFC00FFF8
FFF8007FFC
FFF8007FFC
FFF0003FFC
FFF0003FFC
FFF0003FFC
FFF0003FFC
FFF0003FFC
FFF0003FFC
FFF8007FFC
FFF8007FFC
FFFC00FFF8
FFFE01FFF8
FFFF03FFF8
FFFFFFFFF0
FFFFFFFFF0
FFFFFFFFE0
FFFFFFFFE0
FFFFFFFFC0
FFFFFFFF80
FFF7FFFF00
FFF1FFFE00
FFF0FFF800
FFF01FC000
FFF0000000
FFF0000000
FFF0000000
FFF0000000
FFF0000000
FFF0000000
FFF0000000
FFF0000000
FFF0000000
ENDCHAR
STARTCHAR C0255
ENCODING 255
SWIDTH 625 0
DWIDTH 40 0
BBX 38 58 1 -11
BITMAP
01FFCFFE00
01FFCFFE00
01FFCFFE00
01FFCFFE00
01FFCFFE00
01FFCFFE00
01FFCFFE00
01FFCFFE00
01FFCFFE00
01FFCFFE00
0000000000
0000000000
FFF8003FFC
FFF8007FFC
7FF8007FF8
7FFC007FF8
7FFC00FFF8
3FFC00FFF0
3FFE00FFF0
1FFE00FFF0
1FFE01FFE0
1FFF01FFE0
0FFF01FFE0
0FFF03FFC0
07FF83FFC0
07FF83FF80
07FF87FF80
03FFC7FF80
03FFC7FF00
01FFCFFF00
01FFEFFF00
01FFEFFE00
00FFFFFE00
00FFFFFC00
007FFFFC00
007FFFFC00
007FFFF800
003FFFF800
003FFFF800
001FFFF000
001FFFF000
001FFFF000
000FFFE000
000FFFE000
000FFFC000
0007FFC000
0407FFC000
070FFF8000
0FFFFF8000
0FFFFF0000
1FFFFF0000
1FFFFE0000
3FFFFE0000
3FFFFC0000
3FFFF80000
5FFFF00000
07FFE00000
00FF800000
ENDCHAR
ENDFONT
